<svg xmlns="http://www.w3.org/2000/svg" width="151" height="45" fill="#044d44" xmlns:v="https://vecta.io/nano"><path d="M29.147 8.209a1.09 1.09 0 0 1-1.092-1.092 4.94 4.94 0 0 0-4.933-4.933 1.09 1.09 0 0 1-1.092-1.092A1.09 1.09 0 0 1 23.122 0a7.12 7.12 0 0 1 5.029 2.087c1.334 1.334 2.085 3.143 2.087 5.029a1.09 1.09 0 0 1-1.091 1.093zm4.531 0a1.09 1.09 0 0 1-1.092-1.092c.002-1.887.753-3.696 2.087-5.03S37.816.003 39.703.001a1.09 1.09 0 0 1 1.092 1.092 1.09 1.09 0 0 1-1.092 1.092 4.94 4.94 0 0 0-4.934 4.933 1.09 1.09 0 0 1-1.092 1.091zM16.925 36.831c-3.991 1.43-7.34 1.285-9.559.856-3.057-.591-4.838-1.891-5.112-2.455-.145-.299-.027-.385.086-.456l13.841-8.017v-2.524L1.232 32.894l-.025.014c-1.155.712-1.524 2.028-.918 3.276.756 1.556 3.433 3.021 6.662 3.646 1.176.225 2.37.338 3.568.336 2.35 0 5.191-.426 8.332-1.744l-.558-.322a4.23 4.23 0 0 1-1.367-1.268zm44.556-3.921l-.026-.014-14.949-8.659v2.524l13.841 8.017c.113.07.232.157.086.456-.274.564-2.055 1.864-5.112 2.455-2.219.429-5.568.574-9.558-.856-.353.518-.817.95-1.357 1.267l-.565.326c3.139 1.317 5.978 1.743 8.328 1.743 1.197.002 2.392-.111 3.567-.336 3.229-.625 5.906-2.089 6.662-3.646.606-1.249.237-2.566-.918-3.277z"/><path d="M44.402 18.157L33.456 11.84c-.64-.371-1.367-.567-2.108-.567s-1.467.195-2.108.566l-10.949 6.319a4.23 4.23 0 0 0-2.11 3.646v12.644a4.24 4.24 0 0 0 .568 2.108c.37.641.902 1.174 1.543 1.545l10.944 6.316a4.2 4.2 0 0 0 2.109.568c.741 0 1.468-.195 2.11-.566l10.953-6.321a4.24 4.24 0 0 0 2.1-3.651V21.803a4.24 4.24 0 0 0-2.104-3.646zm-25.018 1.891l3.542-2.044h16.842l3.538 2.042a2.05 2.05 0 0 1 .742.744 2.03 2.03 0 0 1 .274 1.014v2.772H18.365v-2.772a2.04 2.04 0 0 1 1.019-1.755zM43.311 36.21l-3.506 2.023H22.889l-3.504-2.022c-.309-.179-.566-.436-.745-.745a2.04 2.04 0 0 1-.275-1.017v-2.785h25.958v2.785a2.05 2.05 0 0 1-1.012 1.762zm28.13-15.047l1.849-.815 1.911-1.026 1.757-1.177a12.44 12.44 0 0 0 1.541-1.328h3.205v20.917h-4.592V22.672c-.616.402-1.305.775-2.065 1.117l-2.219.845-1.387-3.471zm30.709-4.347h4.808v20.917h-4.808v-8.874h-8.075v8.874h-4.808V16.816h4.808v7.999h8.075v-7.999zm14.035 20.917h-4.592V21.857h4.592v15.876zm.432-20.464c0 .825-.278 1.479-.832 1.962-.535.463-1.172.694-1.911.694a2.94 2.94 0 0 1-1.942-.694c-.534-.483-.801-1.137-.801-1.962s.267-1.469.801-1.932c.555-.483 1.202-.724 1.942-.724s1.376.242 1.911.724c.554.463.832 1.107.832 1.932zm7.811 20.464c-1.048-2.012-2.116-4.366-3.205-7.063l-3.052-8.814h4.87l.709 2.566.863 2.777.894 2.717.894 2.415.863-2.415.893-2.717.863-2.777.74-2.566h4.747l-3.083 8.814-3.174 7.063h-3.822zm11.346-7.817c0-1.409.216-2.636.648-3.682.452-1.067 1.037-1.952 1.756-2.656a7.3 7.3 0 0 1 2.466-1.6c.945-.362 1.911-.543 2.897-.543 2.302 0 4.12.694 5.456 2.083 1.335 1.368 2.003 3.391 2.003 6.067l-.031.875-.061.815H140.49c.103.926.545 1.66 1.325 2.203s1.829.815 3.144.815c.843 0 1.664-.07 2.466-.211.822-.161 1.489-.352 2.003-.574l.617 3.652c-.247.121-.576.241-.987.362s-.873.221-1.387.302a16.88 16.88 0 0 1-1.602.242 16.56 16.56 0 0 1-1.726.09c-1.459 0-2.733-.211-3.822-.634-1.069-.423-1.962-.996-2.682-1.721-.698-.744-1.222-1.62-1.572-2.626-.328-1.006-.493-2.093-.493-3.26zm10.788-1.721a4.17 4.17 0 0 0-.216-1.117 2.47 2.47 0 0 0-.524-.966c-.226-.282-.524-.513-.894-.694-.349-.181-.791-.272-1.325-.272-.514 0-.956.091-1.325.272-.37.161-.678.382-.925.664a3.21 3.21 0 0 0-.586.996 6.91 6.91 0 0 0-.277 1.117h6.072z"/></svg>