<svg xmlns="http://www.w3.org/2000/svg" width="54" height="72" fill="none" xmlns:v="https://vecta.io/nano"><path d="M9.55 17.822l-.162-3.167c-.095-4.633.441-7.741.464-7.871l.424-2.431 2.05 1.445c.112.076 2.726 1.93 5.988 5.304l1.195 1.275-.089.278c-1.145 3.641-1.866 7.408-2.078 11.278-1.731-1.679-3.502-3.123-5.189-4.345a53.47 53.47 0 0 0-2.603-1.766zm34.887 0c.095-1.145.14-2.213.162-3.167.095-4.633-.441-7.741-.464-7.871l-.424-2.431-2.05 1.445c-.112.076-2.726 1.93-5.988 5.304a50.19 50.19 0 0 0-1.195 1.275l.089.284c1.145 3.641 1.866 7.408 2.078 11.278a47.35 47.35 0 0 1 5.189-4.344 53.56 53.56 0 0 1 2.603-1.766v-.006zM26.994 49.976c-12.606.589-25.213-9.698-26.821-32.86L0 14.653l2.346.932c.413.164 9.384 3.794 16.388 11.873l-.017-1.139C18.717 16.822 21.906 7.97 27 0c5.094 7.964 8.283 16.822 8.283 26.318a39.01 39.01 0 0 1-.017 1.139c7.004-8.079 15.974-11.709 16.388-11.873L54 14.653l-.173 2.464c-1.609 23.162-14.215 33.448-26.821 32.86h-.011zM24.219 39.75c-.642 0-.905.245-.905.845 0 1.461 1.653 2.644 3.681 2.644s3.681-1.183 3.681-2.644c0-.6-.262-.84-.905-.84a7.13 7.13 0 0 0-1.022.104l-.034.005a12.16 12.16 0 0 1-1.72.153c-.575-.011-1.156-.06-1.726-.153-.346-.06-.704-.093-1.056-.109l.006-.005zM17.6 33.923c1.637 0 2.96 1.292 2.96 2.889s-1.324 2.889-2.96 2.889-2.96-1.292-2.96-2.889 1.324-2.889 2.96-2.889zm18.784 0c1.637 0 2.96 1.292 2.96 2.889s-1.324 2.889-2.96 2.889-2.96-1.292-2.96-2.889 1.324-2.889 2.96-2.889z" fill-rule="evenodd" fill="#fff"/><path d="M9.109 71.854l-1.078-3.315H4.358l-1.092 3.315H2L5.618 61.11h1.145l3.625 10.744h-1.28zm-1.476-4.523l-.997-3.103-.101-.322-.115-.41-.121-.454-.115-.468-.108.468-.121.468-.121.41-.094.307-.977 3.103h2.87zm10.381-1.127h3.261v5.248l-.748.234a7.86 7.86 0 0 1-.775.168c-.265.049-.544.085-.836.11l-.943.037c-.705 0-1.33-.127-1.873-.381a3.81 3.81 0 0 1-1.375-1.098c-.373-.478-.656-1.056-.849-1.735s-.29-1.449-.29-2.298c0-.839.106-1.598.317-2.276a4.78 4.78 0 0 1 .937-1.727 4.09 4.09 0 0 1 1.509-1.098c.597-.254 1.288-.388 2.056-.388.499 0 .977.054 1.435.161a5.51 5.51 0 0 1 1.28.468l-.485 1.186a5.56 5.56 0 0 0-.526-.234 5.2 5.2 0 0 0-.573-.19 4.93 4.93 0 0 0-.613-.139 3.79 3.79 0 0 0-.62-.051c-.548 0-1.033.1-1.455.3s-.777.478-1.065.849-.499.822-.647 1.354-.222 1.132-.222 1.8a7.77 7.77 0 0 0 .182 1.742c.126.527.323.981.593 1.361s.618.676 1.044.885.941.315 1.543.315l.539-.015.458-.051.391-.066.364-.08v-3.191h-2.015v-1.2zm13.851 5.65l-1.078-3.315h-3.672l-1.091 3.315h-1.267l3.618-10.744h1.145l3.625 10.744h-1.28zm-1.476-4.523l-.997-3.103-.101-.322-.114-.41-.121-.454-.114-.468-.108.468-.121.468-.121.41-.094.307-.977 3.103h2.87zm11.331-6.177h1.334l-3.295 10.7h-1.26l-3.281-10.7h1.327l1.988 6.784.337 1.288.256 1.156.256-1.156.364-1.332 1.974-6.74zM52 71.854h-5.114v-10.7H52v1.2h-3.861v3.308h3.605v1.186h-3.605v3.806H52v1.2z" fill="#fff"/></svg>