<svg xmlns="http://www.w3.org/2000/svg" width="758" height="495" fill="none" xmlns:v="https://vecta.io/nano"><g opacity=".2"><path d="M174.935 491.198c157.246-6.095 235.129.261 392.461 3.439 8.337.174 84.522 6.117 123.79-37.548 25.794-28.668 48.78-59.707 59.228-98.888 10.448-39.159 9.991-71.875-1.262-110.338-10.057-34.392-40.291-61.818-92.511-33.325-19.459 10.622-47.539-1.219-59.903-21.985-13.67-22.964 2.634-76.751 1.524-104.417C596.194 37.332 550.091.241 505.142.001s-82.737 34.131-91.422 84.043c-4.592 26.404-1.023 53.939-5.441 80.386s-38.332 53.068-62.124 53.591c-19.655.435-35.828-17.61-46.081-36.591s-17.5-40.617-31.758-55.941c-20.896-22.421-54.657-26.252-80.451-11.755s-56.878 35.067-60.621 67.37-5.029 60.403 11.405 87.155c5.399 8.794 11.929 19.329 8.337 29.233-2.677 7.336-10.165 11.014-17.174 11.58-25.598 2.068-20.243-10.012-41.466-26.316-25.467-19.59-66.063-20.287-82.062 9.49-12.647 23.552-4.397 54.549 8.794 77.709 38.288 67.152 93.228 123.833 159.857 121.243z" fill="url(#A)"/><path d="M173.15 48.912c2.699-.065 6.334.261 14.171-1.611 6.747-1.611 8.358-5.877 7.64-8.01-.74-2.242-3.679-5.921-6.313-6.726-6.138-1.85-9.49-1.959-16.913-.74 4.68-1.197 6.052-2.111 8.838-4.723 1.785-1.676 1.545-5.79-.24-7.096-6.138-4.549-11.928-2.373-20.417 1.045 4.571-2.177 4.658-2.568 6.486-4.223 1.393-1.263 2.351-3.135 2.046-4.811-.457-2.525-6.138-4.68-9.251-4.963-6.878-.609-12.167.74-18.502 3.004s-11.688 6.987-12.45 12.625c-.327-3.635-5.05-6.421-9.469-5.986s-8.054 3.592-8.99 7.161.501 7.379 3.2 10.296c-4.071-1.067-7.314-2.677-11.45-1.807s-8.859 4.049-7.444 9.382c.392 1.524 3.047 6.291 10.013 7.096 11.384 1.35 14.301 1.415 26.926 1.067l42.119-.979z" fill="url(#B)"/><path d="M711.672 103.721c2.46-.065 5.79.305 12.974-1.806 6.16-1.807 7.64-6.574 6.987-8.968-.697-2.503-3.352-6.617-5.79-7.51-5.616-2.068-8.685-2.177-15.498-.827 4.288-1.328 5.55-2.351 8.075-5.289 1.633-1.872 1.415-6.465-.218-7.923-5.615-5.094-10.905-2.656-18.697 1.175 4.179-2.416 4.266-2.852 5.942-4.702 1.262-1.393 2.155-3.504 1.872-5.376-.414-2.83-5.616-5.246-8.467-5.551-6.291-.675-11.145.827-16.957 3.352s-10.709 7.793-11.384 14.083c-.283-4.07-4.615-7.183-8.664-6.683-4.048.479-7.379 4.005-8.228 7.989-.87 3.983.458 8.25 2.917 11.493-3.744-1.175-6.682-2.982-10.491-2.024-3.788.958-8.098 4.506-6.814 10.47.37 1.698 2.787 7.009 9.186 7.945 10.405 1.502 13.082 1.589 24.641 1.197l38.614-1.045z" fill="url(#C)"/></g><defs><linearGradient id="A" x1="378.967" y1="-49.5" x2="378.967" y2="495" gradientUnits="userSpaceOnUse"><stop stop-color="#00b59c"/><stop offset="1" stop-color="#8ef8ab"/></linearGradient><linearGradient id="B" x1="144.477" y1="2.591" x2="144.477" y2="50.07" gradientUnits="userSpaceOnUse"><stop stop-color="#00b59c"/><stop offset="1" stop-color="#8ef8ab"/></linearGradient><linearGradient id="C" x1="685.387" y1="51.964" x2="685.387" y2="104.965" gradientUnits="userSpaceOnUse"><stop stop-color="#00b59c"/><stop offset="1" stop-color="#8ef8ab"/></linearGradient></defs></svg>