<svg xmlns="http://www.w3.org/2000/svg" xmlns:xlink="http://www.w3.org/1999/xlink" width="750" height="572" fill="none" xmlns:v="https://vecta.io/nano"><style><![CDATA[.B{opacity:.25}]]></style><path d="M49.094 192.371c-.37 75.721 39.183 149.225 109.971 189.116 70.603 39.707 154.144 35.46 218.832-3.878.37-75.72-39.182-149.224-109.97-189.116s-154.145-35.644-218.833 3.878z" fill="url(#A)" class="B"/><path d="M21.925 252.209c12.938 74.612 64.689 140.174 141.021 167.138 76.518 26.964 158.026 8.311 214.767-41.738-12.753-74.612-64.504-140.175-141.021-167.139s-158.026-8.311-214.767 41.739z" fill="url(#B)" class="B"/><path d="M5.475 315.925C30.981 387.213 93.452 442.802 173.481 456.1s157.101-19.392 204.232-78.491c-25.506-71.288-87.977-126.878-168.006-140.175-79.845-13.297-156.917 19.207-204.232 78.491z" fill="url(#C)" class="B"/><path d="M.485 381.487C38.004 447.235 109.162 491.19 190.3 490.266c81.139-.739 151.187-46.171 187.413-112.657-37.52-65.747-108.677-109.702-189.815-108.779-80.954.739-151.187 46.171-187.413 112.657z" fill="url(#D)" class="B"/><path d="M6.954 446.866c48.424 58.175 126.051 89.202 205.71 74.242s141.022-71.841 165.049-143.499c-48.424-58.175-126.051-89.202-205.71-74.243-79.845 14.775-141.022 71.658-165.049 143.5z" fill="url(#E)" class="B"/><path d="M24.513 510.212c57.85 48.941 139.728 65.932 215.507 37.491 75.963-28.441 126.235-95.112 137.509-170.094-57.85-48.941-139.727-65.932-215.506-37.491S35.787 435.23 24.513 510.212z" fill="url(#F)" class="B"/><path d="M52.975 569.495c65.428 38.045 148.969 40.631 218.833-.554s107.938-115.612 105.905-191.332c-65.428-38.045-148.969-40.63-218.833.554C89.201 419.348 51.127 493.775 52.975 569.495z" fill="url(#G)" class="B"/><path d="M138.179 668.855c74.485 13.482 153.959-12.743 205.341-75.351 51.566-62.607 61.731-145.53 34.192-216.08-74.484-13.481-153.959 12.744-205.34 75.351-51.566 62.608-61.732 145.716-34.193 216.08z" fill="url(#H)" class="B"/><path d="M706.332 562.662c.37-75.72-39.183-149.224-109.971-189.116-70.603-39.892-154.144-35.459-218.833 3.878-.369 75.721 39.183 149.225 109.971 189.116s154.329 35.644 218.833-3.878z" fill="url(#I)" class="B"/><path d="M733.686 502.825c-12.753-74.613-64.689-140.175-141.021-167.139-76.518-26.964-158.026-8.311-214.767 41.923 12.753 74.612 64.504 140.175 141.021 167.139 76.333 26.779 157.841 8.126 214.767-41.923z" fill="url(#J)" class="B"/><path d="M749.951 439.109c-25.506-71.288-87.977-126.878-168.006-140.175s-156.917 19.392-204.232 78.49c25.506 71.288 87.977 126.878 168.006 140.175s157.101-19.207 204.232-78.49z" fill="url(#K)" class="B"/><path d="M748.657 308.168c-48.424-58.175-126.051-89.202-205.71-74.243s-141.022 71.842-165.049 143.499c48.424 58.176 126.05 89.203 205.71 74.243 79.66-14.774 140.837-71.657 165.049-143.499z" fill="url(#L)" class="B"/><path d="M730.914 245.006c-57.85-48.941-139.728-65.932-215.506-37.491-75.963 28.442-126.236 95.112-137.695 170.094 57.85 48.941 139.728 65.932 215.506 37.491 75.963-28.626 126.42-95.297 137.695-170.094z" fill="url(#M)" class="B"/><path d="M702.451 185.723c-65.428-38.045-148.969-40.631-218.833.554S375.68 301.889 377.713 377.609c65.428 38.045 148.969 40.631 218.833-.554 69.864-41.369 107.938-115.797 105.905-191.332z" fill="url(#N)" class="B"/><path d="M664.192 132.164c-70.973-26.225-153.775-14.22-215.321 38.599s-86.129 132.603-71.158 206.846c70.973 26.225 153.774 14.221 215.321-38.599 61.732-52.819 86.314-132.603 71.158-206.846z" fill="url(#O)" class="B"/><path d="M617.246 86.178c-74.484-13.482-153.959 12.743-205.34 75.351-51.567 62.608-61.732 145.531-34.193 215.896 74.484 13.481 153.959-12.744 205.341-75.351 51.566-62.424 61.916-145.347 34.192-215.896z" fill="url(#P)" class="B"/><path d="M562.908 49.057c-75.778-.369-149.339 39.153-189.261 109.886-39.737 70.55-35.486 154.027 3.881 218.666 75.779.369 149.339-39.153 189.261-109.887 39.922-70.549 35.672-154.026-3.881-218.665z" fill="url(#Q)" class="B"/><path d="M503.209 21.908C428.54 34.651 362.927 86.548 335.942 162.822c-26.984 76.459-8.132 157.905 41.956 214.602 74.669-12.743 140.282-64.454 167.266-140.913 26.8-76.459 8.133-157.905-41.955-214.603z" fill="url(#R)" class="B"/><path d="M439.445 5.656c-71.343 25.486-126.975 87.91-140.283 167.878s19.222 156.796 78.551 204.075c71.342-25.486 126.975-87.909 140.282-167.877S498.589 52.75 439.445 5.656z" fill="url(#S)" class="B"/><path d="M373.832.485c-65.798 37.491-109.786 108.594-108.862 189.67s46.391 151.256 112.743 187.454c65.798-37.491 109.786-108.594 108.862-189.67-.739-81.076-46.206-151.256-112.743-187.454z" fill="url(#T)" class="B"/><path d="M308.404 6.949c-58.22 48.387-89.271 125.954-74.3 205.553s71.897 140.914 143.609 164.922c58.22-48.387 89.271-125.954 74.3-205.737C437.042 92.273 380.116 30.958 308.404 6.949z" fill="url(#U)" class="B"/><path d="M245.009 24.494C196.03 82.3 179.026 164.115 207.674 239.835c28.463 75.905 95.185 126.324 170.039 137.589 48.979-57.806 65.983-139.621 37.52-215.526-28.648-75.72-95.37-125.954-170.224-137.404z" fill="url(#V)" class="B"/><path d="M185.68 52.935c-38.074 65.378-40.662 148.855.554 218.666s115.701 107.855 191.479 105.824c38.074-65.379 40.662-148.856-.554-218.666C335.943 89.133 261.458 51.088 185.68 52.935z" fill="url(#W)" class="B"/><path d="M132.265 91.165c-26.245 70.918-14.231 153.657 38.629 215.156s132.704 86.063 207.004 71.104c26.245-70.919 14.231-153.657-38.629-215.157S206.565 76.205 132.265 91.165z" fill="url(#X)" class="B"/><path d="M86.244 138.259C72.752 212.686 98.997 292.1 161.652 343.443c62.656 51.526 145.643 61.684 216.061 34.166 13.492-74.428-12.753-153.842-75.409-205.368s-145.642-61.685-216.06-33.982z" fill="url(#Y)" class="B"/><path fill-rule="evenodd" d="M378.81 631.581c140.609 0 254.596-113.809 254.596-254.199s-113.987-254.2-254.596-254.2-254.596 113.809-254.596 254.2S238.201 631.581 378.81 631.581z" fill="url(#Z)"/><g stroke-width="4"><path opacity=".5" d="M399.776 650.231c150.73-11.7 263.43-143.295 251.723-293.926S508.11 93.048 357.38 104.748 93.949 248.043 105.657 398.674s143.389 263.257 294.119 251.557z" stroke="url(#a)"/><path opacity=".5" d="M443.564 664.486c158.608-35.868 258.09-193.437 222.199-351.94S472.199 54.626 313.591 90.493 55.501 283.929 91.392 442.433s193.564 257.92 352.172 222.053z" stroke="url(#b)"/><path opacity=".5" d="M556.14 635.394c143.054-99.08 179.303-294.909 80.963-437.397S343.076 20.321 200.022 119.401 20.72 414.311 119.059 556.798s294.028 177.677 437.081 78.596z" stroke="url(#c)"/></g><defs><linearGradient id="A" x1="49.091" y1="409.268" x2="50.846" y2="158.287" xlink:href="#d"><stop stop-color="#9befd7"/><stop offset=".474" stop-color="#8bf7ab"/><stop offset="1" stop-color="#ffd465"/></linearGradient><linearGradient id="B" x1="21.925" y1="431.696" x2="23.356" y2="195.97" xlink:href="#d"><stop stop-color="#9befd7"/><stop offset=".474" stop-color="#8bf7ab"/><stop offset="1" stop-color="#ffd465"/></linearGradient><linearGradient id="C" x1="5.475" y1="459.045" x2="6.739" y2="232.409" xlink:href="#d"><stop stop-color="#9befd7"/><stop offset=".474" stop-color="#8bf7ab"/><stop offset="1" stop-color="#ffd465"/></linearGradient><linearGradient id="D" x1=".485" y1="490.28" x2="1.698" y2="266.775" xlink:href="#d"><stop stop-color="#9befd7"/><stop offset=".474" stop-color="#8bf7ab"/><stop offset="1" stop-color="#ffd465"/></linearGradient><linearGradient id="E" x1="6.954" y1="524.844" x2="8.23" y2="297.556" xlink:href="#d"><stop stop-color="#9befd7"/><stop offset=".474" stop-color="#8bf7ab"/><stop offset="1" stop-color="#ffd465"/></linearGradient><linearGradient id="F" x1="24.513" y1="561.502" x2="25.974" y2="324.154" xlink:href="#d"><stop stop-color="#9befd7"/><stop offset=".474" stop-color="#8bf7ab"/><stop offset="1" stop-color="#ffd465"/></linearGradient><linearGradient id="G" x1="52.911" y1="598.934" x2="54.717" y2="345.865" xlink:href="#d"><stop stop-color="#9befd7"/><stop offset=".474" stop-color="#8bf7ab"/><stop offset="1" stop-color="#ffd465"/></linearGradient><linearGradient id="H" x1="123.269" y1="672.305" x2="126.352" y2="371.248" xlink:href="#d"><stop stop-color="#9befd7"/><stop offset=".474" stop-color="#8bf7ab"/><stop offset="1" stop-color="#ffd465"/></linearGradient><linearGradient id="I" x1="377.526" y1="594.459" x2="379.282" y2="343.405" xlink:href="#d"><stop stop-color="#9befd7"/><stop offset=".474" stop-color="#8bf7ab"/><stop offset="1" stop-color="#ffd465"/></linearGradient><linearGradient id="J" x1="377.898" y1="556.972" x2="379.329" y2="321.191" xlink:href="#d"><stop stop-color="#9befd7"/><stop offset=".474" stop-color="#8bf7ab"/><stop offset="1" stop-color="#ffd465"/></linearGradient><linearGradient id="K" x1="377.713" y1="520.556" x2="378.977" y2="293.919" xlink:href="#d"><stop stop-color="#9befd7"/><stop offset=".474" stop-color="#8bf7ab"/><stop offset="1" stop-color="#ffd465"/></linearGradient><linearGradient id="L" x1="377.898" y1="455.402" x2="379.174" y2="228.115" xlink:href="#d"><stop stop-color="#9befd7"/><stop offset=".474" stop-color="#8bf7ab"/><stop offset="1" stop-color="#ffd465"/></linearGradient><linearGradient id="M" x1="377.713" y1="428.899" x2="379.174" y2="191.551" xlink:href="#d"><stop stop-color="#9befd7"/><stop offset=".474" stop-color="#8bf7ab"/><stop offset="1" stop-color="#ffd465"/></linearGradient><linearGradient id="N" x1="377.635" y1="407.048" x2="379.441" y2="153.978" xlink:href="#d"><stop stop-color="#9befd7"/><stop offset=".474" stop-color="#8bf7ab"/><stop offset="1" stop-color="#ffd465"/></linearGradient><linearGradient id="O" x1="373.445" y1="390.999" x2="375.788" y2="116.278" xlink:href="#d"><stop stop-color="#9befd7"/><stop offset=".474" stop-color="#8bf7ab"/><stop offset="1" stop-color="#ffd465"/></linearGradient><linearGradient id="P" x1="362.803" y1="380.874" x2="365.881" y2="80.004" xlink:href="#d"><stop stop-color="#9befd7"/><stop offset=".474" stop-color="#8bf7ab"/><stop offset="1" stop-color="#ffd465"/></linearGradient><linearGradient id="Q" x1="345.845" y1="377.612" x2="349.892" y2="46.066" xlink:href="#d"><stop stop-color="#9befd7"/><stop offset=".474" stop-color="#8bf7ab"/><stop offset="1" stop-color="#ffd465"/></linearGradient><linearGradient id="R" x1="323.626" y1="377.424" x2="328.67" y2="18.692" xlink:href="#d"><stop stop-color="#9befd7"/><stop offset=".474" stop-color="#8bf7ab"/><stop offset="1" stop-color="#ffd465"/></linearGradient><linearGradient id="S" x1="296.204" y1="377.609" x2="301.947" y2="2.305" xlink:href="#d"><stop stop-color="#9befd7"/><stop offset=".474" stop-color="#8bf7ab"/><stop offset="1" stop-color="#ffd465"/></linearGradient><linearGradient id="T" x1="264.956" y1="377.609" x2="270.942" y2="-2.908" xlink:href="#d"><stop stop-color="#9befd7"/><stop offset=".474" stop-color="#8bf7ab"/><stop offset="1" stop-color="#ffd465"/></linearGradient><linearGradient id="U" x1="230.366" y1="377.424" x2="236.047" y2="3.61" xlink:href="#d"><stop stop-color="#9befd7"/><stop offset=".474" stop-color="#8bf7ab"/><stop offset="1" stop-color="#ffd465"/></linearGradient><linearGradient id="V" x1="193.735" y1="377.424" x2="198.674" y2="21.299" xlink:href="#d"><stop stop-color="#9befd7"/><stop offset=".474" stop-color="#8bf7ab"/><stop offset="1" stop-color="#ffd465"/></linearGradient><linearGradient id="W" x1="156.218" y1="377.502" x2="160.136" y2="49.916" xlink:href="#d"><stop stop-color="#9befd7"/><stop offset=".474" stop-color="#8bf7ab"/><stop offset="1" stop-color="#ffd465"/></linearGradient><linearGradient id="X" x1="118.865" y1="381.689" x2="121.841" y2="84.205" xlink:href="#d"><stop stop-color="#9befd7"/><stop offset=".474" stop-color="#8bf7ab"/><stop offset="1" stop-color="#ffd465"/></linearGradient><linearGradient id="Y" x1="82.792" y1="392.508" x2="85.059" y2="120.753" xlink:href="#d"><stop stop-color="#9befd7"/><stop offset=".474" stop-color="#8bf7ab"/><stop offset="1" stop-color="#ffd465"/></linearGradient><linearGradient id="Z" x1="236.175" y1="-8.129" x2="711.385" y2="456.786" xlink:href="#d"><stop stop-color="#9befd7"/><stop offset=".474" stop-color="#8bf7ab"/><stop offset="1" stop-color="#ffd465"/></linearGradient><linearGradient id="a" x1="84.459" y1="125.932" x2="635.692" y2="88.216" xlink:href="#d"><stop stop-color="#9befd7"/><stop offset=".474" stop-color="#8bf7ab"/><stop offset="1" stop-color="#ffd465"/></linearGradient><linearGradient id="b" x1="26.406" y1="155.437" x2="607.216" y2="29.557" xlink:href="#d"><stop stop-color="#9befd7"/><stop offset=".474" stop-color="#8bf7ab"/><stop offset="1" stop-color="#ffd465"/></linearGradient><linearGradient id="c" x1="-59" y1="298.801" x2="467.735" y2="-57.55" xlink:href="#d"><stop stop-color="#9befd7"/><stop offset=".474" stop-color="#8bf7ab"/><stop offset="1" stop-color="#ffd465"/></linearGradient><linearGradient id="d" gradientUnits="userSpaceOnUse"/></defs></svg>