<svg width="750" height="572" viewBox="0 0 750 572" fill="none" xmlns="http://www.w3.org/2000/svg">
<path opacity="0.25" d="M49.0936 192.371C48.724 268.092 88.2766 341.596 159.065 381.487C229.668 421.194 313.209 416.947 377.897 377.609C378.267 301.889 338.715 228.385 267.927 188.493C197.139 148.601 113.782 152.849 49.0936 192.371Z" fill="url(#paint0_linear)"/>
<path opacity="0.25" d="M21.9247 252.209C34.8624 326.821 86.6135 392.383 162.946 419.347C239.464 446.311 320.972 427.658 377.713 377.609C364.96 302.997 313.209 237.434 236.692 210.47C160.174 183.506 78.666 202.159 21.9247 252.209Z" fill="url(#paint1_linear)"/>
<path opacity="0.25" d="M5.47485 315.925C30.9807 387.213 93.4516 442.802 173.481 456.1C253.51 469.397 330.582 436.708 377.713 377.609C352.207 306.321 289.736 250.731 209.707 237.434C129.862 224.137 52.7901 256.641 5.47485 315.925Z" fill="url(#paint2_linear)"/>
<path opacity="0.25" d="M0.484863 381.487C38.0044 447.235 109.162 491.19 190.3 490.266C271.439 489.527 341.487 444.095 377.713 377.609C340.193 311.862 269.036 267.907 187.898 268.83C106.944 269.569 36.7106 315.001 0.484863 381.487Z" fill="url(#paint3_linear)"/>
<path opacity="0.25" d="M6.95386 446.866C55.378 505.041 133.005 536.068 212.664 521.108C292.324 506.149 353.686 449.267 377.713 377.609C329.289 319.434 251.662 288.407 172.003 303.366C92.1582 318.141 30.9811 375.024 6.95386 446.866Z" fill="url(#paint4_linear)"/>
<path opacity="0.25" d="M24.5125 510.212C82.3627 559.153 164.24 576.144 240.019 547.703C315.982 519.262 366.254 452.591 377.528 377.609C319.678 328.668 237.801 311.677 162.022 340.118C86.244 368.56 35.7868 435.23 24.5125 510.212Z" fill="url(#paint5_linear)"/>
<path opacity="0.25" d="M52.9749 569.495C118.403 607.54 201.944 610.126 271.808 568.941C341.672 527.757 379.746 453.329 377.713 377.609C312.285 339.564 228.744 336.979 158.88 378.163C89.2007 419.348 51.1267 493.775 52.9749 569.495Z" fill="url(#paint6_linear)"/>
<path opacity="0.25" d="M138.179 668.855C212.664 682.337 292.138 656.112 343.52 593.504C395.086 530.897 405.251 447.974 377.712 377.424C303.228 363.943 223.753 390.168 172.372 452.775C120.806 515.383 110.64 598.491 138.179 668.855Z" fill="url(#paint7_linear)"/>
<path opacity="0.25" d="M706.332 562.662C706.702 486.942 667.149 413.438 596.361 373.546C525.758 333.654 442.217 338.087 377.528 377.424C377.159 453.145 416.711 526.649 487.499 566.54C558.287 606.432 641.828 602.184 706.332 562.662Z" fill="url(#paint8_linear)"/>
<path opacity="0.25" d="M733.686 502.825C720.933 428.212 668.997 362.65 592.665 335.686C516.147 308.722 434.639 327.375 377.898 377.609C390.651 452.221 442.402 517.784 518.919 544.748C595.252 571.527 676.76 552.874 733.686 502.825Z" fill="url(#paint9_linear)"/>
<path opacity="0.25" d="M749.951 439.109C724.445 367.821 661.974 312.231 581.945 298.934C501.915 285.637 425.028 318.326 377.713 377.424C403.219 448.712 465.69 504.302 545.719 517.599C625.748 530.897 702.82 498.392 749.951 439.109Z" fill="url(#paint10_linear)"/>
<path opacity="0.25" d="M748.657 308.168C700.233 249.993 622.606 218.966 542.947 233.925C463.287 248.885 401.925 305.767 377.898 377.424C426.322 435.6 503.948 466.627 583.608 451.667C663.268 436.893 724.445 380.01 748.657 308.168Z" fill="url(#paint11_linear)"/>
<path opacity="0.25" d="M730.914 245.006C673.064 196.065 591.186 179.074 515.408 207.515C439.445 235.957 389.172 302.627 377.713 377.609C435.563 426.55 517.441 443.541 593.219 415.1C669.182 386.474 719.639 319.803 730.914 245.006Z" fill="url(#paint12_linear)"/>
<path opacity="0.25" d="M702.451 185.723C637.023 147.678 553.482 145.092 483.618 186.277C413.754 227.461 375.68 301.889 377.713 377.609C443.141 415.654 526.682 418.24 596.546 377.055C666.41 335.686 704.484 261.258 702.451 185.723Z" fill="url(#paint13_linear)"/>
<path opacity="0.25" d="M664.192 132.164C593.219 105.939 510.417 117.944 448.871 170.763C387.324 223.583 362.742 303.366 377.713 377.609C448.686 403.834 531.487 391.83 593.034 339.01C654.766 286.191 679.348 206.407 664.192 132.164Z" fill="url(#paint14_linear)"/>
<path opacity="0.25" d="M617.246 86.1782C542.762 72.6963 463.287 98.9214 411.906 161.529C360.339 224.137 350.174 307.06 377.713 377.425C452.197 390.906 531.672 364.681 583.054 302.074C634.62 239.65 644.97 156.727 617.246 86.1782Z" fill="url(#paint15_linear)"/>
<path opacity="0.25" d="M562.908 49.0566C487.13 48.6873 413.569 88.2096 373.647 158.943C333.91 229.493 338.161 312.97 377.528 377.609C453.307 377.978 526.867 338.456 566.789 267.722C606.711 197.173 602.461 113.696 562.908 49.0566Z" fill="url(#paint16_linear)"/>
<path opacity="0.25" d="M503.209 21.9081C428.54 34.6513 362.927 86.5475 335.942 162.822C308.958 239.281 327.81 320.727 377.898 377.424C452.567 364.681 518.18 312.97 545.164 236.511C571.964 160.052 553.297 78.606 503.209 21.9081Z" fill="url(#paint17_linear)"/>
<path opacity="0.25" d="M439.445 5.65598C368.102 31.1423 312.47 93.5655 299.162 173.534C285.855 253.502 318.384 330.33 377.713 377.609C449.055 352.123 504.688 289.7 517.995 209.732C531.303 129.763 498.589 52.7503 439.445 5.65598Z" fill="url(#paint18_linear)"/>
<path opacity="0.25" d="M373.832 0.484833C308.034 37.9756 264.046 109.079 264.97 190.155C265.894 271.231 311.361 341.411 377.713 377.609C443.511 340.118 487.499 269.015 486.575 187.939C485.836 106.863 440.369 36.6829 373.832 0.484833Z" fill="url(#paint19_linear)"/>
<path opacity="0.25" d="M308.404 6.94894C250.184 55.3361 219.133 132.903 234.104 212.502C249.075 292.101 306.001 353.416 377.713 377.424C435.933 329.037 466.984 251.47 452.013 171.687C437.042 92.2728 380.116 30.9578 308.404 6.94894Z" fill="url(#paint20_linear)"/>
<path opacity="0.25" d="M245.009 24.4937C196.03 82.2997 179.026 164.115 207.674 239.835C236.137 315.74 302.859 366.159 377.713 377.424C426.692 319.618 443.696 237.803 415.233 161.898C386.585 86.1781 319.863 35.9441 245.009 24.4937Z" fill="url(#paint21_linear)"/>
<path opacity="0.25" d="M185.68 52.9351C147.606 118.313 145.018 201.79 186.234 271.601C227.45 341.411 301.935 379.456 377.713 377.425C415.787 312.046 418.375 228.569 377.159 158.759C335.943 89.1331 261.458 51.0883 185.68 52.9351Z" fill="url(#paint22_linear)"/>
<path opacity="0.25" d="M132.265 91.1648C106.02 162.083 118.034 244.822 170.894 306.321C223.754 367.821 303.598 392.384 377.898 377.425C404.143 306.506 392.129 223.768 339.269 162.268C286.409 100.768 206.565 76.2054 132.265 91.1648Z" fill="url(#paint23_linear)"/>
<path opacity="0.25" d="M86.2438 138.259C72.7515 212.686 98.9967 292.1 161.652 343.443C224.308 394.969 307.295 405.127 377.713 377.609C391.205 303.181 364.96 223.767 302.304 172.241C239.649 120.714 156.662 110.556 86.2438 138.259Z" fill="url(#paint24_linear)"/>
<path fill-rule="evenodd" clip-rule="evenodd" d="M378.81 631.581C519.419 631.581 633.406 517.772 633.406 377.382C633.406 236.991 519.419 123.182 378.81 123.182C238.201 123.182 124.214 236.991 124.214 377.382C124.214 517.772 238.201 631.581 378.81 631.581Z" fill="url(#paint25_linear)"/>
<path opacity="0.5" fill-rule="evenodd" clip-rule="evenodd" d="M399.776 650.231C550.506 638.531 663.206 506.936 651.499 356.305C639.791 205.674 508.11 93.0482 357.38 104.748C206.649 116.448 93.9492 248.043 105.657 398.674C117.364 549.305 249.046 661.931 399.776 650.231Z" stroke="url(#paint26_linear)" stroke-width="4"/>
<path opacity="0.5" fill-rule="evenodd" clip-rule="evenodd" d="M443.564 664.486C602.172 628.618 701.654 471.049 665.763 312.546C629.872 154.042 472.199 54.6257 313.591 90.4931C154.983 126.36 55.5014 283.929 91.3923 442.433C127.283 600.937 284.956 700.353 443.564 664.486Z" stroke="url(#paint27_linear)" stroke-width="4"/>
<path opacity="0.5" fill-rule="evenodd" clip-rule="evenodd" d="M556.14 635.394C699.194 536.314 735.443 340.485 637.103 197.997C538.764 55.5092 343.076 20.3205 200.022 119.401C56.9681 218.481 20.7198 414.311 119.059 556.798C217.399 699.286 413.087 734.475 556.14 635.394Z" stroke="url(#paint28_linear)" stroke-width="4"/>
<defs>
<linearGradient id="paint0_linear" x1="49.0911" y1="409.268" x2="50.8461" y2="158.287" gradientUnits="userSpaceOnUse">
<stop stop-color="#9BEFD7"/>
<stop offset="0.473958" stop-color="#8BF7AB"/>
<stop offset="1" stop-color="#FFD465"/>
</linearGradient>
<linearGradient id="paint1_linear" x1="21.9247" y1="431.696" x2="23.3555" y2="195.97" gradientUnits="userSpaceOnUse">
<stop stop-color="#9BEFD7"/>
<stop offset="0.473958" stop-color="#8BF7AB"/>
<stop offset="1" stop-color="#FFD465"/>
</linearGradient>
<linearGradient id="paint2_linear" x1="5.47485" y1="459.045" x2="6.73898" y2="232.409" gradientUnits="userSpaceOnUse">
<stop stop-color="#9BEFD7"/>
<stop offset="0.473958" stop-color="#8BF7AB"/>
<stop offset="1" stop-color="#FFD465"/>
</linearGradient>
<linearGradient id="paint3_linear" x1="0.484863" y1="490.28" x2="1.69803" y2="266.775" gradientUnits="userSpaceOnUse">
<stop stop-color="#9BEFD7"/>
<stop offset="0.473958" stop-color="#8BF7AB"/>
<stop offset="1" stop-color="#FFD465"/>
</linearGradient>
<linearGradient id="paint4_linear" x1="6.95386" y1="524.844" x2="8.23032" y2="297.556" gradientUnits="userSpaceOnUse">
<stop stop-color="#9BEFD7"/>
<stop offset="0.473958" stop-color="#8BF7AB"/>
<stop offset="1" stop-color="#FFD465"/>
</linearGradient>
<linearGradient id="paint5_linear" x1="24.5125" y1="561.502" x2="25.9744" y2="324.154" gradientUnits="userSpaceOnUse">
<stop stop-color="#9BEFD7"/>
<stop offset="0.473958" stop-color="#8BF7AB"/>
<stop offset="1" stop-color="#FFD465"/>
</linearGradient>
<linearGradient id="paint6_linear" x1="52.9106" y1="598.934" x2="54.7166" y2="345.865" gradientUnits="userSpaceOnUse">
<stop stop-color="#9BEFD7"/>
<stop offset="0.473958" stop-color="#8BF7AB"/>
<stop offset="1" stop-color="#FFD465"/>
</linearGradient>
<linearGradient id="paint7_linear" x1="123.269" y1="672.305" x2="126.352" y2="371.248" gradientUnits="userSpaceOnUse">
<stop stop-color="#9BEFD7"/>
<stop offset="0.473958" stop-color="#8BF7AB"/>
<stop offset="1" stop-color="#FFD465"/>
</linearGradient>
<linearGradient id="paint8_linear" x1="377.526" y1="594.459" x2="379.282" y2="343.405" gradientUnits="userSpaceOnUse">
<stop stop-color="#9BEFD7"/>
<stop offset="0.473958" stop-color="#8BF7AB"/>
<stop offset="1" stop-color="#FFD465"/>
</linearGradient>
<linearGradient id="paint9_linear" x1="377.898" y1="556.972" x2="379.329" y2="321.191" gradientUnits="userSpaceOnUse">
<stop stop-color="#9BEFD7"/>
<stop offset="0.473958" stop-color="#8BF7AB"/>
<stop offset="1" stop-color="#FFD465"/>
</linearGradient>
<linearGradient id="paint10_linear" x1="377.713" y1="520.556" x2="378.977" y2="293.919" gradientUnits="userSpaceOnUse">
<stop stop-color="#9BEFD7"/>
<stop offset="0.473958" stop-color="#8BF7AB"/>
<stop offset="1" stop-color="#FFD465"/>
</linearGradient>
<linearGradient id="paint11_linear" x1="377.898" y1="455.402" x2="379.174" y2="228.115" gradientUnits="userSpaceOnUse">
<stop stop-color="#9BEFD7"/>
<stop offset="0.473958" stop-color="#8BF7AB"/>
<stop offset="1" stop-color="#FFD465"/>
</linearGradient>
<linearGradient id="paint12_linear" x1="377.713" y1="428.899" x2="379.174" y2="191.551" gradientUnits="userSpaceOnUse">
<stop stop-color="#9BEFD7"/>
<stop offset="0.473958" stop-color="#8BF7AB"/>
<stop offset="1" stop-color="#FFD465"/>
</linearGradient>
<linearGradient id="paint13_linear" x1="377.635" y1="407.048" x2="379.441" y2="153.978" gradientUnits="userSpaceOnUse">
<stop stop-color="#9BEFD7"/>
<stop offset="0.473958" stop-color="#8BF7AB"/>
<stop offset="1" stop-color="#FFD465"/>
</linearGradient>
<linearGradient id="paint14_linear" x1="373.445" y1="390.999" x2="375.788" y2="116.278" gradientUnits="userSpaceOnUse">
<stop stop-color="#9BEFD7"/>
<stop offset="0.473958" stop-color="#8BF7AB"/>
<stop offset="1" stop-color="#FFD465"/>
</linearGradient>
<linearGradient id="paint15_linear" x1="362.803" y1="380.874" x2="365.881" y2="80.0036" gradientUnits="userSpaceOnUse">
<stop stop-color="#9BEFD7"/>
<stop offset="0.473958" stop-color="#8BF7AB"/>
<stop offset="1" stop-color="#FFD465"/>
</linearGradient>
<linearGradient id="paint16_linear" x1="345.845" y1="377.612" x2="349.892" y2="46.0658" gradientUnits="userSpaceOnUse">
<stop stop-color="#9BEFD7"/>
<stop offset="0.473958" stop-color="#8BF7AB"/>
<stop offset="1" stop-color="#FFD465"/>
</linearGradient>
<linearGradient id="paint17_linear" x1="323.626" y1="377.424" x2="328.67" y2="18.6921" gradientUnits="userSpaceOnUse">
<stop stop-color="#9BEFD7"/>
<stop offset="0.473958" stop-color="#8BF7AB"/>
<stop offset="1" stop-color="#FFD465"/>
</linearGradient>
<linearGradient id="paint18_linear" x1="296.204" y1="377.609" x2="301.947" y2="2.30495" gradientUnits="userSpaceOnUse">
<stop stop-color="#9BEFD7"/>
<stop offset="0.473958" stop-color="#8BF7AB"/>
<stop offset="1" stop-color="#FFD465"/>
</linearGradient>
<linearGradient id="paint19_linear" x1="264.956" y1="377.609" x2="270.942" y2="-2.9077" gradientUnits="userSpaceOnUse">
<stop stop-color="#9BEFD7"/>
<stop offset="0.473958" stop-color="#8BF7AB"/>
<stop offset="1" stop-color="#FFD465"/>
</linearGradient>
<linearGradient id="paint20_linear" x1="230.366" y1="377.424" x2="236.047" y2="3.61004" gradientUnits="userSpaceOnUse">
<stop stop-color="#9BEFD7"/>
<stop offset="0.473958" stop-color="#8BF7AB"/>
<stop offset="1" stop-color="#FFD465"/>
</linearGradient>
<linearGradient id="paint21_linear" x1="193.735" y1="377.424" x2="198.674" y2="21.2992" gradientUnits="userSpaceOnUse">
<stop stop-color="#9BEFD7"/>
<stop offset="0.473958" stop-color="#8BF7AB"/>
<stop offset="1" stop-color="#FFD465"/>
</linearGradient>
<linearGradient id="paint22_linear" x1="156.218" y1="377.502" x2="160.136" y2="49.9164" gradientUnits="userSpaceOnUse">
<stop stop-color="#9BEFD7"/>
<stop offset="0.473958" stop-color="#8BF7AB"/>
<stop offset="1" stop-color="#FFD465"/>
</linearGradient>
<linearGradient id="paint23_linear" x1="118.865" y1="381.689" x2="121.841" y2="84.2048" gradientUnits="userSpaceOnUse">
<stop stop-color="#9BEFD7"/>
<stop offset="0.473958" stop-color="#8BF7AB"/>
<stop offset="1" stop-color="#FFD465"/>
</linearGradient>
<linearGradient id="paint24_linear" x1="82.7915" y1="392.508" x2="85.0591" y2="120.753" gradientUnits="userSpaceOnUse">
<stop stop-color="#9BEFD7"/>
<stop offset="0.473958" stop-color="#8BF7AB"/>
<stop offset="1" stop-color="#FFD465"/>
</linearGradient>
<linearGradient id="paint25_linear" x1="236.175" y1="-8.12923" x2="711.385" y2="456.786" gradientUnits="userSpaceOnUse">
<stop stop-color="#9BEFD7"/>
<stop offset="0.473958" stop-color="#8BF7AB"/>
<stop offset="1" stop-color="#FFD465"/>
</linearGradient>
<linearGradient id="paint26_linear" x1="84.4585" y1="125.932" x2="635.692" y2="88.2157" gradientUnits="userSpaceOnUse">
<stop stop-color="#9BEFD7"/>
<stop offset="0.473958" stop-color="#8BF7AB"/>
<stop offset="1" stop-color="#FFD465"/>
</linearGradient>
<linearGradient id="paint27_linear" x1="26.406" y1="155.437" x2="607.216" y2="29.5571" gradientUnits="userSpaceOnUse">
<stop stop-color="#9BEFD7"/>
<stop offset="0.473958" stop-color="#8BF7AB"/>
<stop offset="1" stop-color="#FFD465"/>
</linearGradient>
<linearGradient id="paint28_linear" x1="-59" y1="298.801" x2="467.735" y2="-57.5502" gradientUnits="userSpaceOnUse">
<stop stop-color="#9BEFD7"/>
<stop offset="0.473958" stop-color="#8BF7AB"/>
<stop offset="1" stop-color="#FFD465"/>
</linearGradient>
</defs>
</svg>
