<svg width="299" height="76" viewBox="0 0 299 76" fill="none" xmlns="http://www.w3.org/2000/svg">
<path d="M23.415 15L26.9697 6.79688H22.376V5.01953H29.2666V6.3457L25.623 15H23.415ZM36.9775 15H30.2715V13.5303L32.623 10.9941C32.9193 10.6751 33.1882 10.3812 33.4297 10.1123C33.6712 9.84342 33.8786 9.58138 34.0518 9.32617C34.2249 9.07096 34.3594 8.8112 34.4551 8.54688C34.5508 8.28255 34.5986 7.99772 34.5986 7.69238C34.5986 7.35514 34.4961 7.0931 34.291 6.90625C34.0905 6.7194 33.8193 6.62598 33.4775 6.62598C33.1175 6.62598 32.7712 6.71484 32.4385 6.89258C32.1058 7.07031 31.7572 7.32324 31.3926 7.65137L30.2441 6.29102C30.4492 6.10417 30.6634 5.92643 30.8867 5.75781C31.11 5.58464 31.3561 5.43197 31.625 5.2998C31.8939 5.16764 32.1901 5.06283 32.5137 4.98535C32.8372 4.90332 33.1995 4.8623 33.6006 4.8623C34.0791 4.8623 34.5075 4.92839 34.8857 5.06055C35.2686 5.19271 35.5944 5.38184 35.8633 5.62793C36.1322 5.86947 36.3372 6.16341 36.4785 6.50977C36.6243 6.85612 36.6973 7.24577 36.6973 7.67871C36.6973 8.07064 36.6289 8.44661 36.4922 8.80664C36.3555 9.16211 36.1686 9.51302 35.9316 9.85938C35.6947 10.2012 35.4189 10.543 35.1045 10.8848C34.7946 11.222 34.4619 11.5661 34.1064 11.917L32.9033 13.127V13.2227H36.9775V15ZM39.5752 8C39.5752 8.57878 39.6253 9.01172 39.7256 9.29883C39.8304 9.58138 39.9967 9.72266 40.2246 9.72266C40.4479 9.72266 40.612 9.58138 40.7168 9.29883C40.8262 9.01628 40.8809 8.58333 40.8809 8C40.8809 6.86068 40.6621 6.29102 40.2246 6.29102C39.9967 6.29102 39.8304 6.43229 39.7256 6.71484C39.6253 6.99284 39.5752 7.42122 39.5752 8ZM42.6035 7.98633C42.6035 8.47852 42.5557 8.92057 42.46 9.3125C42.3688 9.70443 42.2253 10.0348 42.0293 10.3037C41.8333 10.5726 41.585 10.7799 41.2842 10.9258C40.9834 11.0671 40.6257 11.1377 40.2109 11.1377C39.8236 11.1377 39.4818 11.0671 39.1855 10.9258C38.8939 10.7799 38.6478 10.5726 38.4473 10.3037C38.2513 10.0348 38.1032 9.70443 38.0029 9.3125C37.9027 8.92057 37.8525 8.47852 37.8525 7.98633C37.8525 7.49414 37.8981 7.05436 37.9893 6.66699C38.0804 6.27962 38.2217 5.95378 38.4131 5.68945C38.609 5.42057 38.8551 5.21549 39.1514 5.07422C39.4476 4.93294 39.8008 4.8623 40.2109 4.8623C40.6029 4.8623 40.9469 4.93294 41.2432 5.07422C41.5439 5.21549 41.7946 5.42057 41.9951 5.68945C42.1956 5.95378 42.346 6.27962 42.4463 6.66699C42.5511 7.05436 42.6035 7.49414 42.6035 7.98633ZM47.1631 5.00586L41.6191 15H39.9854L45.5293 5.00586H47.1631ZM46.2949 11.9922C46.2949 12.571 46.3451 13.0039 46.4453 13.291C46.5501 13.5736 46.7165 13.7148 46.9443 13.7148C47.1676 13.7148 47.3317 13.5736 47.4365 13.291C47.5459 13.0085 47.6006 12.5755 47.6006 11.9922C47.6006 10.8529 47.3818 10.2832 46.9443 10.2832C46.7165 10.2832 46.5501 10.4245 46.4453 10.707C46.3451 10.985 46.2949 11.4134 46.2949 11.9922ZM49.3232 11.9785C49.3232 12.4707 49.2754 12.9128 49.1797 13.3047C49.0885 13.6921 48.945 14.0202 48.749 14.2891C48.5531 14.5579 48.3047 14.7653 48.0039 14.9111C47.7031 15.0524 47.3454 15.123 46.9307 15.123C46.5433 15.123 46.2038 15.0524 45.9121 14.9111C45.6204 14.7653 45.3743 14.5579 45.1738 14.2891C44.9779 14.0202 44.8298 13.6921 44.7295 13.3047C44.6292 12.9128 44.5791 12.4707 44.5791 11.9785C44.5791 11.4863 44.6247 11.0465 44.7158 10.6592C44.807 10.2718 44.9482 9.94596 45.1396 9.68164C45.3311 9.41276 45.5749 9.20768 45.8711 9.06641C46.1673 8.92513 46.5205 8.85449 46.9307 8.85449C47.3226 8.85449 47.6667 8.92513 47.9629 9.06641C48.2637 9.20768 48.5143 9.41276 48.7148 9.68164C48.9154 9.94596 49.0658 10.2718 49.166 10.6592C49.2708 11.0465 49.3232 11.4863 49.3232 11.9785ZM57.6631 15H56.3848V6.12695H53.5273V5.00586H60.5137V6.12695H57.6631V15ZM64.54 7.35742C64.6722 7.35742 64.8203 7.36426 64.9844 7.37793C65.1484 7.38704 65.2897 7.40299 65.4082 7.42578L65.2441 8.57422C65.1165 8.55143 64.9844 8.5332 64.8477 8.51953C64.7155 8.5013 64.5902 8.49219 64.4717 8.49219C64.1846 8.49219 63.9225 8.55143 63.6855 8.66992C63.4486 8.78385 63.2435 8.9502 63.0703 9.16895C62.9017 9.38314 62.7695 9.6429 62.6738 9.94824C62.5827 10.249 62.5371 10.584 62.5371 10.9531V15H61.293V7.49414H62.3047L62.4551 8.86816H62.5098C62.6237 8.6722 62.7445 8.48307 62.8721 8.30078C63.0042 8.11849 63.1501 7.95898 63.3096 7.82227C63.4736 7.68099 63.6559 7.56934 63.8564 7.4873C64.057 7.40072 64.2848 7.35742 64.54 7.35742ZM69.8516 15.1367C69.3503 15.1367 68.8923 15.0524 68.4775 14.8838C68.0628 14.7152 67.7051 14.4691 67.4043 14.1455C67.1081 13.8219 66.8779 13.4209 66.7139 12.9424C66.5498 12.4639 66.4678 11.917 66.4678 11.3018C66.4678 10.682 66.543 10.1283 66.6934 9.64062C66.8438 9.15299 67.0557 8.74056 67.3291 8.40332C67.6025 8.06152 67.9284 7.80176 68.3066 7.62402C68.6895 7.44629 69.111 7.35742 69.5713 7.35742C70.0225 7.35742 70.4281 7.43945 70.7881 7.60352C71.1481 7.76302 71.4535 7.99089 71.7041 8.28711C71.9548 8.57878 72.1462 8.93197 72.2783 9.34668C72.415 9.75684 72.4834 10.2126 72.4834 10.7139V11.4863H67.7529C67.7757 12.3659 67.9603 13.013 68.3066 13.4277C68.6576 13.8424 69.1771 14.0498 69.8652 14.0498C70.0977 14.0498 70.3118 14.0384 70.5078 14.0156C70.7083 13.9928 70.8997 13.9609 71.082 13.9199C71.2689 13.8743 71.4489 13.8197 71.6221 13.7559C71.7952 13.6875 71.9707 13.6123 72.1484 13.5303V14.6377C71.9661 14.7243 71.7861 14.7995 71.6084 14.8633C71.4352 14.9271 71.2552 14.9795 71.0684 15.0205C70.8861 15.0615 70.6947 15.0911 70.4941 15.1094C70.2982 15.1276 70.084 15.1367 69.8516 15.1367ZM69.5439 8.38965C69.0244 8.38965 68.612 8.56738 68.3066 8.92285C68.0059 9.27832 67.8304 9.79557 67.7803 10.4746H71.1436C71.1436 10.1647 71.1117 9.88216 71.0479 9.62695C70.9886 9.36719 70.8929 9.14616 70.7607 8.96387C70.6331 8.78158 70.4691 8.6403 70.2686 8.54004C70.068 8.43978 69.8265 8.38965 69.5439 8.38965ZM78.6084 15L78.3555 13.9609H78.3008C78.1504 14.166 78 14.3438 77.8496 14.4941C77.6992 14.64 77.5352 14.7607 77.3574 14.8564C77.1797 14.9521 76.9814 15.0228 76.7627 15.0684C76.5439 15.1139 76.291 15.1367 76.0039 15.1367C75.6895 15.1367 75.4001 15.0911 75.1357 15C74.8714 14.9134 74.6413 14.779 74.4453 14.5967C74.2539 14.4098 74.1035 14.1774 73.9941 13.8994C73.8848 13.6169 73.8301 13.2842 73.8301 12.9014C73.8301 12.154 74.0921 11.5798 74.6162 11.1787C75.1449 10.7777 75.9469 10.5589 77.0225 10.5225L78.2803 10.4746V10.0029C78.2803 9.69759 78.2461 9.44238 78.1777 9.2373C78.1139 9.03223 78.0182 8.86816 77.8906 8.74512C77.7676 8.61751 77.6126 8.52637 77.4258 8.47168C77.2435 8.41699 77.0339 8.38965 76.7969 8.38965C76.4186 8.38965 76.0654 8.44434 75.7373 8.55371C75.4137 8.66309 75.1016 8.79525 74.8008 8.9502L74.3633 8.01367C74.7005 7.83138 75.0765 7.67643 75.4912 7.54883C75.9059 7.42122 76.3411 7.35742 76.7969 7.35742C77.2617 7.35742 77.6628 7.40527 78 7.50098C78.3418 7.59212 78.6221 7.74023 78.8408 7.94531C79.0641 8.14583 79.2305 8.40332 79.3398 8.71777C79.4492 9.03223 79.5039 9.41276 79.5039 9.85938V15H78.6084ZM76.3252 14.1318C76.6032 14.1318 76.8607 14.0885 77.0977 14.002C77.3346 13.9154 77.5397 13.7855 77.7129 13.6123C77.8861 13.4346 78.0205 13.2135 78.1162 12.9492C78.2165 12.6803 78.2666 12.3659 78.2666 12.0059V11.3291L77.2891 11.377C76.8789 11.3952 76.5348 11.4408 76.2568 11.5137C75.9788 11.5866 75.7555 11.6891 75.5869 11.8213C75.4229 11.9489 75.3044 12.1061 75.2314 12.293C75.1585 12.4753 75.1221 12.6826 75.1221 12.915C75.1221 13.3343 75.2314 13.6419 75.4502 13.8379C75.6735 14.0339 75.9652 14.1318 76.3252 14.1318ZM86.3057 12.9424C86.3057 13.307 86.2396 13.626 86.1074 13.8994C85.9753 14.1729 85.7839 14.403 85.5332 14.5898C85.2871 14.7721 84.9886 14.9089 84.6377 15C84.2868 15.0911 83.8926 15.1367 83.4551 15.1367C82.9583 15.1367 82.5322 15.0957 82.1768 15.0137C81.8213 14.9362 81.5091 14.82 81.2402 14.665V13.5303C81.3815 13.6032 81.5387 13.6761 81.7119 13.749C81.8851 13.8174 82.0674 13.8789 82.2588 13.9336C82.4502 13.9883 82.6462 14.0339 82.8467 14.0703C83.0518 14.1022 83.2546 14.1182 83.4551 14.1182C83.7513 14.1182 84.002 14.0931 84.207 14.043C84.4167 13.9928 84.5853 13.9222 84.7129 13.8311C84.8451 13.7354 84.9408 13.6214 85 13.4893C85.0592 13.3525 85.0889 13.2021 85.0889 13.0381C85.0889 12.8968 85.0661 12.7692 85.0205 12.6553C84.9749 12.5413 84.8906 12.4297 84.7676 12.3203C84.6491 12.2064 84.485 12.0924 84.2754 11.9785C84.0658 11.8646 83.7969 11.737 83.4688 11.5957C83.1406 11.4544 82.8444 11.3154 82.5801 11.1787C82.3203 11.042 82.0993 10.8893 81.917 10.7207C81.7347 10.5521 81.5934 10.3584 81.4932 10.1396C81.3975 9.91634 81.3496 9.65202 81.3496 9.34668C81.3496 9.02767 81.4111 8.74512 81.5342 8.49902C81.6618 8.24837 81.8395 8.03874 82.0674 7.87012C82.2952 7.7015 82.5687 7.57389 82.8877 7.4873C83.2067 7.40072 83.5622 7.35742 83.9541 7.35742C84.3962 7.35742 84.7995 7.40527 85.1641 7.50098C85.5332 7.59668 85.8818 7.72201 86.21 7.87695L85.7793 8.88184C85.4831 8.74967 85.1777 8.63574 84.8633 8.54004C84.5534 8.43978 84.2367 8.38965 83.9131 8.38965C83.4482 8.38965 83.1042 8.46712 82.8809 8.62207C82.6576 8.77246 82.5459 8.98893 82.5459 9.27148C82.5459 9.43099 82.571 9.56999 82.6211 9.68848C82.6758 9.80697 82.7669 9.91862 82.8945 10.0234C83.0221 10.1283 83.193 10.2354 83.4072 10.3447C83.6214 10.4495 83.888 10.568 84.207 10.7002C84.5352 10.8369 84.8268 10.9736 85.082 11.1104C85.3418 11.2471 85.5628 11.402 85.7451 11.5752C85.9274 11.7438 86.0664 11.9375 86.1621 12.1562C86.2578 12.375 86.3057 12.637 86.3057 12.9424ZM92.9912 15L92.8066 13.9951H92.7383C92.6243 14.1911 92.4876 14.362 92.3281 14.5078C92.1732 14.6491 92.0023 14.7676 91.8154 14.8633C91.6286 14.9544 91.4303 15.0228 91.2207 15.0684C91.0111 15.1139 90.7969 15.1367 90.5781 15.1367C90.1634 15.1367 89.7988 15.0843 89.4844 14.9795C89.1699 14.8747 88.9079 14.7106 88.6982 14.4873C88.4886 14.264 88.3291 13.9792 88.2197 13.6328C88.1149 13.2865 88.0625 12.874 88.0625 12.3955V7.49414H89.3066V12.3271C89.3066 12.9196 89.4274 13.3639 89.6689 13.6602C89.9105 13.9564 90.2842 14.1045 90.79 14.1045C91.1592 14.1045 91.4691 14.0452 91.7197 13.9268C91.9704 13.8083 92.1709 13.6351 92.3213 13.4072C92.4762 13.1748 92.5856 12.89 92.6494 12.5527C92.7178 12.2155 92.752 11.8281 92.752 11.3906V7.49414H93.9961V15H92.9912ZM99.6221 7.35742C99.7542 7.35742 99.9023 7.36426 100.066 7.37793C100.23 7.38704 100.372 7.40299 100.49 7.42578L100.326 8.57422C100.199 8.55143 100.066 8.5332 99.9297 8.51953C99.7975 8.5013 99.6722 8.49219 99.5537 8.49219C99.2666 8.49219 99.0046 8.55143 98.7676 8.66992C98.5306 8.78385 98.3255 8.9502 98.1523 9.16895C97.9837 9.38314 97.8516 9.6429 97.7559 9.94824C97.6647 10.249 97.6191 10.584 97.6191 10.9531V15H96.375V7.49414H97.3867L97.5371 8.86816H97.5918C97.7057 8.6722 97.8265 8.48307 97.9541 8.30078C98.0863 8.11849 98.2321 7.95898 98.3916 7.82227C98.5557 7.68099 98.738 7.56934 98.9385 7.4873C99.139 7.40072 99.3669 7.35742 99.6221 7.35742ZM100.846 7.49414H102.138L103.607 11.6846C103.671 11.8669 103.735 12.0583 103.799 12.2588C103.867 12.4593 103.929 12.6598 103.983 12.8604C104.043 13.0609 104.093 13.2546 104.134 13.4414C104.175 13.6283 104.204 13.8014 104.223 13.9609H104.264C104.286 13.847 104.323 13.6921 104.373 13.4961C104.423 13.3001 104.478 13.0928 104.537 12.874C104.601 12.6507 104.665 12.432 104.729 12.2178C104.797 12.0036 104.856 11.8213 104.906 11.6709L106.267 7.49414H107.552L104.585 15.9775C104.457 16.3467 104.318 16.6771 104.168 16.9688C104.022 17.265 103.851 17.5156 103.655 17.7207C103.459 17.9258 103.229 18.083 102.965 18.1924C102.701 18.3063 102.386 18.3633 102.021 18.3633C101.785 18.3633 101.579 18.3496 101.406 18.3223C101.233 18.2995 101.085 18.2744 100.962 18.2471V17.2559C101.058 17.2786 101.178 17.2969 101.324 17.3105C101.47 17.3288 101.623 17.3379 101.782 17.3379C102.001 17.3379 102.19 17.3105 102.35 17.2559C102.509 17.2057 102.648 17.1305 102.767 17.0303C102.885 16.93 102.985 16.807 103.067 16.6611C103.154 16.5153 103.231 16.349 103.3 16.1621L103.689 15.0684L100.846 7.49414Z" fill="#007C6E"/>
<circle cx="8" cy="10" r="8" fill="url(#paint0_linear)"/>
<path d="M194.088 8.61523C194.516 8.61523 194.915 8.68132 195.284 8.81348C195.653 8.94564 195.975 9.13932 196.248 9.39453C196.521 9.64974 196.736 9.96875 196.891 10.3516C197.046 10.7298 197.123 11.165 197.123 11.6572C197.123 12.1995 197.039 12.6872 196.87 13.1201C196.701 13.5485 196.453 13.9131 196.125 14.2139C195.797 14.5101 195.389 14.738 194.901 14.8975C194.418 15.057 193.862 15.1367 193.233 15.1367C192.983 15.1367 192.734 15.1253 192.488 15.1025C192.242 15.0798 192.005 15.0456 191.777 15C191.554 14.959 191.34 14.9043 191.135 14.8359C190.934 14.7676 190.752 14.6878 190.588 14.5967V12.7715C190.747 12.8626 190.932 12.9492 191.142 13.0312C191.351 13.1087 191.568 13.1771 191.791 13.2363C192.019 13.291 192.247 13.3366 192.475 13.373C192.702 13.4049 192.919 13.4209 193.124 13.4209C193.735 13.4209 194.2 13.2956 194.519 13.0449C194.838 12.7897 194.997 12.3864 194.997 11.835C194.997 11.3428 194.84 10.9691 194.525 10.7139C194.215 10.4541 193.735 10.3242 193.083 10.3242C192.965 10.3242 192.837 10.3311 192.7 10.3447C192.568 10.3584 192.436 10.3766 192.304 10.3994C192.176 10.4222 192.053 10.4473 191.935 10.4746C191.816 10.4974 191.714 10.5225 191.627 10.5498L190.786 10.0986L191.162 5.00586H196.439V6.79688H192.994L192.83 8.75879C192.976 8.72689 193.145 8.69499 193.336 8.66309C193.532 8.63118 193.783 8.61523 194.088 8.61523ZM199.864 8C199.864 8.57878 199.914 9.01172 200.015 9.29883C200.119 9.58138 200.286 9.72266 200.514 9.72266C200.737 9.72266 200.901 9.58138 201.006 9.29883C201.115 9.01628 201.17 8.58333 201.17 8C201.17 6.86068 200.951 6.29102 200.514 6.29102C200.286 6.29102 200.119 6.43229 200.015 6.71484C199.914 6.99284 199.864 7.42122 199.864 8ZM202.893 7.98633C202.893 8.47852 202.845 8.92057 202.749 9.3125C202.658 9.70443 202.514 10.0348 202.318 10.3037C202.122 10.5726 201.874 10.7799 201.573 10.9258C201.272 11.0671 200.915 11.1377 200.5 11.1377C200.113 11.1377 199.771 11.0671 199.475 10.9258C199.183 10.7799 198.937 10.5726 198.736 10.3037C198.54 10.0348 198.392 9.70443 198.292 9.3125C198.192 8.92057 198.142 8.47852 198.142 7.98633C198.142 7.49414 198.187 7.05436 198.278 6.66699C198.369 6.27962 198.511 5.95378 198.702 5.68945C198.898 5.42057 199.144 5.21549 199.44 5.07422C199.737 4.93294 200.09 4.8623 200.5 4.8623C200.892 4.8623 201.236 4.93294 201.532 5.07422C201.833 5.21549 202.084 5.42057 202.284 5.68945C202.485 5.95378 202.635 6.27962 202.735 6.66699C202.84 7.05436 202.893 7.49414 202.893 7.98633ZM207.452 5.00586L201.908 15H200.274L205.818 5.00586H207.452ZM206.584 11.9922C206.584 12.571 206.634 13.0039 206.734 13.291C206.839 13.5736 207.006 13.7148 207.233 13.7148C207.457 13.7148 207.621 13.5736 207.726 13.291C207.835 13.0085 207.89 12.5755 207.89 11.9922C207.89 10.8529 207.671 10.2832 207.233 10.2832C207.006 10.2832 206.839 10.4245 206.734 10.707C206.634 10.985 206.584 11.4134 206.584 11.9922ZM209.612 11.9785C209.612 12.4707 209.564 12.9128 209.469 13.3047C209.378 13.6921 209.234 14.0202 209.038 14.2891C208.842 14.5579 208.594 14.7653 208.293 14.9111C207.992 15.0524 207.634 15.123 207.22 15.123C206.832 15.123 206.493 15.0524 206.201 14.9111C205.91 14.7653 205.663 14.5579 205.463 14.2891C205.267 14.0202 205.119 13.6921 205.019 13.3047C204.918 12.9128 204.868 12.4707 204.868 11.9785C204.868 11.4863 204.914 11.0465 205.005 10.6592C205.096 10.2718 205.237 9.94596 205.429 9.68164C205.62 9.41276 205.864 9.20768 206.16 9.06641C206.456 8.92513 206.81 8.85449 207.22 8.85449C207.612 8.85449 207.956 8.92513 208.252 9.06641C208.553 9.20768 208.803 9.41276 209.004 9.68164C209.204 9.94596 209.355 10.2718 209.455 10.6592C209.56 11.0465 209.612 11.4863 209.612 11.9785ZM218.54 15H217.337V8.75879C217.337 8.56283 217.337 8.35319 217.337 8.12988C217.341 7.90658 217.346 7.68555 217.351 7.4668C217.36 7.24349 217.367 7.03158 217.371 6.83105C217.38 6.62598 217.387 6.44596 217.392 6.29102C217.314 6.37305 217.246 6.44368 217.187 6.50293C217.127 6.56217 217.066 6.61914 217.002 6.67383C216.943 6.72852 216.879 6.78776 216.811 6.85156C216.742 6.91081 216.66 6.98145 216.564 7.06348L215.553 7.89062L214.896 7.0498L217.515 5.00586H218.54V15ZM229.847 15H228.575V10.3379H224.022V15H222.751V5.00586H224.022V9.2168H228.575V5.00586H229.847V15ZM233.641 15H232.396V7.49414H233.641V15ZM232.301 5.46387C232.301 5.19043 232.369 4.99219 232.506 4.86914C232.647 4.74609 232.82 4.68457 233.025 4.68457C233.126 4.68457 233.219 4.70052 233.306 4.73242C233.397 4.75977 233.474 4.80534 233.538 4.86914C233.606 4.93294 233.659 5.01497 233.695 5.11523C233.736 5.21094 233.757 5.32715 233.757 5.46387C233.757 5.72819 233.684 5.92643 233.538 6.05859C233.397 6.1862 233.226 6.25 233.025 6.25C232.82 6.25 232.647 6.1862 232.506 6.05859C232.369 5.93099 232.301 5.73275 232.301 5.46387ZM237.394 15L234.83 7.49414H236.115L237.476 11.6709C237.526 11.8213 237.585 12.015 237.653 12.252C237.722 12.4889 237.79 12.7305 237.858 12.9766C237.927 13.2227 237.988 13.4551 238.043 13.6738C238.102 13.8926 238.141 14.0589 238.159 14.1729H238.207C238.23 14.0589 238.269 13.8926 238.323 13.6738C238.378 13.4551 238.439 13.2227 238.508 12.9766C238.576 12.7305 238.645 12.4889 238.713 12.252C238.781 12.015 238.84 11.8213 238.891 11.6709L240.251 7.49414H241.536L238.973 15H237.394ZM245.699 15.1367C245.198 15.1367 244.74 15.0524 244.325 14.8838C243.91 14.7152 243.553 14.4691 243.252 14.1455C242.956 13.8219 242.726 13.4209 242.562 12.9424C242.397 12.4639 242.315 11.917 242.315 11.3018C242.315 10.682 242.391 10.1283 242.541 9.64062C242.691 9.15299 242.903 8.74056 243.177 8.40332C243.45 8.06152 243.776 7.80176 244.154 7.62402C244.537 7.44629 244.959 7.35742 245.419 7.35742C245.87 7.35742 246.276 7.43945 246.636 7.60352C246.996 7.76302 247.301 7.99089 247.552 8.28711C247.802 8.57878 247.994 8.93197 248.126 9.34668C248.263 9.75684 248.331 10.2126 248.331 10.7139V11.4863H243.601C243.623 12.3659 243.808 13.013 244.154 13.4277C244.505 13.8424 245.025 14.0498 245.713 14.0498C245.945 14.0498 246.16 14.0384 246.355 14.0156C246.556 13.9928 246.747 13.9609 246.93 13.9199C247.117 13.8743 247.297 13.8197 247.47 13.7559C247.643 13.6875 247.818 13.6123 247.996 13.5303V14.6377C247.814 14.7243 247.634 14.7995 247.456 14.8633C247.283 14.9271 247.103 14.9795 246.916 15.0205C246.734 15.0615 246.542 15.0911 246.342 15.1094C246.146 15.1276 245.932 15.1367 245.699 15.1367ZM245.392 8.38965C244.872 8.38965 244.46 8.56738 244.154 8.92285C243.854 9.27832 243.678 9.79557 243.628 10.4746H246.991C246.991 10.1647 246.959 9.88216 246.896 9.62695C246.836 9.36719 246.741 9.14616 246.608 8.96387C246.481 8.78158 246.317 8.6403 246.116 8.54004C245.916 8.43978 245.674 8.38965 245.392 8.38965ZM259.296 12.3271C259.296 12.7692 259.216 13.1657 259.057 13.5166C258.902 13.863 258.678 14.1569 258.387 14.3984C258.095 14.64 257.74 14.8245 257.32 14.9521C256.901 15.0752 256.429 15.1367 255.905 15.1367C255.399 15.1367 254.925 15.0957 254.483 15.0137C254.046 14.9362 253.679 14.82 253.383 14.665V13.4482C253.538 13.5212 253.713 13.5941 253.909 13.667C254.11 13.7354 254.319 13.7969 254.538 13.8516C254.757 13.9062 254.982 13.9518 255.215 13.9883C255.447 14.0202 255.677 14.0361 255.905 14.0361C256.634 14.0361 257.172 13.8994 257.519 13.626C257.869 13.3525 258.045 12.9606 258.045 12.4502C258.045 12.2041 258.011 11.9899 257.942 11.8076C257.879 11.6253 257.762 11.459 257.594 11.3086C257.43 11.1536 257.209 11.0055 256.931 10.8643C256.653 10.7184 256.302 10.5612 255.878 10.3926C255.472 10.2331 255.119 10.0599 254.818 9.87305C254.522 9.68164 254.276 9.46745 254.08 9.23047C253.889 8.99349 253.745 8.72461 253.649 8.42383C253.558 8.12305 253.513 7.78125 253.513 7.39844C253.513 6.9974 253.586 6.63965 253.731 6.3252C253.877 6.01074 254.082 5.74642 254.347 5.53223C254.611 5.31348 254.925 5.14714 255.29 5.0332C255.659 4.91927 256.065 4.8623 256.507 4.8623C257.049 4.8623 257.537 4.91471 257.97 5.01953C258.403 5.11979 258.788 5.24967 259.125 5.40918L258.667 6.47559C258.371 6.34342 258.034 6.22949 257.655 6.13379C257.282 6.03353 256.894 5.9834 256.493 5.9834C255.937 5.9834 255.507 6.11328 255.201 6.37305C254.896 6.62826 254.743 6.97461 254.743 7.41211C254.743 7.67188 254.777 7.89746 254.846 8.08887C254.914 8.27572 255.028 8.44661 255.188 8.60156C255.347 8.75195 255.557 8.89551 255.816 9.03223C256.081 9.16439 256.404 9.30566 256.787 9.45605C257.202 9.62012 257.564 9.78874 257.874 9.96191C258.188 10.1351 258.451 10.3311 258.66 10.5498C258.87 10.7686 259.027 11.0215 259.132 11.3086C259.241 11.5957 259.296 11.9352 259.296 12.3271ZM263.404 14.1182C263.486 14.1182 263.577 14.1136 263.678 14.1045C263.783 14.0954 263.883 14.084 263.979 14.0703C264.074 14.0566 264.161 14.0407 264.238 14.0225C264.32 14.0042 264.382 13.9883 264.423 13.9746V14.918C264.364 14.9453 264.288 14.9727 264.197 15C264.106 15.0273 264.006 15.0501 263.896 15.0684C263.787 15.0911 263.673 15.1071 263.555 15.1162C263.436 15.1299 263.32 15.1367 263.206 15.1367C262.924 15.1367 262.661 15.1003 262.42 15.0273C262.178 14.9544 261.969 14.8291 261.791 14.6514C261.618 14.4736 261.481 14.2344 261.381 13.9336C261.281 13.6283 261.23 13.2454 261.23 12.7852V8.43066H260.171V7.87695L261.23 7.34375L261.764 5.77148H262.481V7.49414H264.368V8.43066H262.481V12.7852C262.481 13.2272 262.552 13.5599 262.693 13.7832C262.839 14.0065 263.076 14.1182 263.404 14.1182ZM270.11 15L269.857 13.9609H269.803C269.652 14.166 269.502 14.3438 269.352 14.4941C269.201 14.64 269.037 14.7607 268.859 14.8564C268.682 14.9521 268.483 15.0228 268.265 15.0684C268.046 15.1139 267.793 15.1367 267.506 15.1367C267.191 15.1367 266.902 15.0911 266.638 15C266.373 14.9134 266.143 14.779 265.947 14.5967C265.756 14.4098 265.605 14.1774 265.496 13.8994C265.387 13.6169 265.332 13.2842 265.332 12.9014C265.332 12.154 265.594 11.5798 266.118 11.1787C266.647 10.7777 267.449 10.5589 268.524 10.5225L269.782 10.4746V10.0029C269.782 9.69759 269.748 9.44238 269.68 9.2373C269.616 9.03223 269.52 8.86816 269.393 8.74512C269.27 8.61751 269.115 8.52637 268.928 8.47168C268.745 8.41699 268.536 8.38965 268.299 8.38965C267.921 8.38965 267.567 8.44434 267.239 8.55371C266.916 8.66309 266.604 8.79525 266.303 8.9502L265.865 8.01367C266.202 7.83138 266.578 7.67643 266.993 7.54883C267.408 7.42122 267.843 7.35742 268.299 7.35742C268.764 7.35742 269.165 7.40527 269.502 7.50098C269.844 7.59212 270.124 7.74023 270.343 7.94531C270.566 8.14583 270.732 8.40332 270.842 8.71777C270.951 9.03223 271.006 9.41276 271.006 9.85938V15H270.11ZM267.827 14.1318C268.105 14.1318 268.363 14.0885 268.6 14.002C268.837 13.9154 269.042 13.7855 269.215 13.6123C269.388 13.4346 269.522 13.2135 269.618 12.9492C269.718 12.6803 269.769 12.3659 269.769 12.0059V11.3291L268.791 11.377C268.381 11.3952 268.037 11.4408 267.759 11.5137C267.481 11.5866 267.257 11.6891 267.089 11.8213C266.925 11.9489 266.806 12.1061 266.733 12.293C266.66 12.4753 266.624 12.6826 266.624 12.915C266.624 13.3343 266.733 13.6419 266.952 13.8379C267.175 14.0339 267.467 14.1318 267.827 14.1318ZM274.465 11.124L275.388 9.96191L277.391 7.49414H278.833L276.092 10.7412L279.018 15H277.589L275.292 11.5547L274.547 12.1152V15H273.316V4.36328H274.547V9.24414L274.438 11.124H274.465ZM281.506 15H280.262V7.49414H281.506V15ZM280.166 5.46387C280.166 5.19043 280.234 4.99219 280.371 4.86914C280.512 4.74609 280.686 4.68457 280.891 4.68457C280.991 4.68457 281.084 4.70052 281.171 4.73242C281.262 4.75977 281.34 4.80534 281.403 4.86914C281.472 4.93294 281.524 5.01497 281.561 5.11523C281.602 5.21094 281.622 5.32715 281.622 5.46387C281.622 5.72819 281.549 5.92643 281.403 6.05859C281.262 6.1862 281.091 6.25 280.891 6.25C280.686 6.25 280.512 6.1862 280.371 6.05859C280.234 5.93099 280.166 5.73275 280.166 5.46387ZM288.574 15V10.167C288.574 9.57454 288.453 9.13021 288.212 8.83398C287.975 8.53776 287.601 8.38965 287.091 8.38965C286.722 8.38965 286.412 8.44889 286.161 8.56738C285.91 8.68587 285.708 8.86133 285.553 9.09375C285.402 9.32617 285.293 9.611 285.225 9.94824C285.161 10.2855 285.129 10.6729 285.129 11.1104V15H283.885V7.49414H284.896L285.074 8.50586H285.143C285.257 8.3099 285.391 8.14128 285.546 8C285.705 7.85417 285.879 7.7334 286.065 7.6377C286.252 7.54199 286.451 7.47135 286.66 7.42578C286.87 7.38021 287.084 7.35742 287.303 7.35742C288.137 7.35742 288.763 7.57617 289.183 8.01367C289.606 8.44661 289.818 9.1416 289.818 10.0986V15H288.574ZM297.912 7.49414V8.2666L296.565 8.45117C296.693 8.61068 296.8 8.81576 296.887 9.06641C296.973 9.3125 297.017 9.59277 297.017 9.90723C297.017 10.2536 296.962 10.5749 296.853 10.8711C296.748 11.1628 296.586 11.4157 296.367 11.6299C296.153 11.8441 295.886 12.0127 295.567 12.1357C295.248 12.2542 294.877 12.3135 294.453 12.3135C294.353 12.3135 294.253 12.3135 294.152 12.3135C294.052 12.3089 293.97 12.2998 293.906 12.2861C293.829 12.3317 293.751 12.3841 293.674 12.4434C293.601 12.498 293.533 12.5618 293.469 12.6348C293.41 12.7077 293.359 12.7897 293.318 12.8809C293.282 12.972 293.264 13.0723 293.264 13.1816C293.264 13.3047 293.291 13.4049 293.346 13.4824C293.4 13.5553 293.473 13.6123 293.564 13.6533C293.66 13.6943 293.772 13.7217 293.899 13.7354C294.027 13.749 294.161 13.7559 294.303 13.7559H295.506C295.93 13.7559 296.287 13.8105 296.579 13.9199C296.871 14.0247 297.108 14.1683 297.29 14.3506C297.477 14.5329 297.611 14.7493 297.693 15C297.775 15.2461 297.816 15.5081 297.816 15.7861C297.816 16.1872 297.741 16.5472 297.591 16.8662C297.445 17.1852 297.219 17.4541 296.914 17.6729C296.609 17.8962 296.221 18.0671 295.752 18.1855C295.287 18.304 294.738 18.3633 294.104 18.3633C293.617 18.3633 293.191 18.3154 292.826 18.2197C292.462 18.124 292.159 17.985 291.917 17.8027C291.675 17.6204 291.493 17.3994 291.37 17.1396C291.252 16.8844 291.192 16.5951 291.192 16.2715C291.192 15.998 291.236 15.7565 291.322 15.5469C291.413 15.3418 291.534 15.1641 291.685 15.0137C291.835 14.8633 292.008 14.7402 292.204 14.6445C292.405 14.5488 292.612 14.4759 292.826 14.4258C292.635 14.3392 292.478 14.2025 292.354 14.0156C292.231 13.8288 292.17 13.6146 292.17 13.373C292.17 13.0951 292.243 12.8558 292.389 12.6553C292.535 12.4502 292.765 12.252 293.079 12.0605C292.883 11.9785 292.703 11.8669 292.539 11.7256C292.38 11.5798 292.243 11.4157 292.129 11.2334C292.02 11.0465 291.933 10.8438 291.869 10.625C291.81 10.4062 291.78 10.1807 291.78 9.94824C291.78 9.54264 291.837 9.18034 291.951 8.86133C292.065 8.54232 292.234 8.27116 292.457 8.04785C292.68 7.82454 292.958 7.65365 293.291 7.53516C293.624 7.41667 294.011 7.35742 294.453 7.35742C294.622 7.35742 294.795 7.37109 294.973 7.39844C295.155 7.42122 295.308 7.45312 295.431 7.49414H297.912ZM292.368 16.2305C292.368 16.3991 292.398 16.5563 292.457 16.7021C292.516 16.848 292.612 16.9733 292.744 17.0781C292.881 17.1829 293.059 17.265 293.277 17.3242C293.501 17.388 293.776 17.4199 294.104 17.4199C294.952 17.4199 295.586 17.2878 296.005 17.0234C296.429 16.7637 296.641 16.3877 296.641 15.8955C296.641 15.6859 296.613 15.515 296.559 15.3828C296.504 15.2507 296.413 15.1458 296.285 15.0684C296.162 14.9954 295.998 14.9453 295.793 14.918C295.588 14.8906 295.337 14.877 295.041 14.877H293.838C293.678 14.877 293.512 14.8952 293.339 14.9316C293.166 14.9681 293.006 15.0365 292.86 15.1367C292.719 15.237 292.601 15.3737 292.505 15.5469C292.414 15.7246 292.368 15.9525 292.368 16.2305ZM292.997 9.90723C292.997 10.4313 293.12 10.821 293.366 11.0762C293.612 11.3314 293.961 11.459 294.412 11.459C294.868 11.459 295.212 11.3337 295.444 11.083C295.681 10.8278 295.8 10.429 295.8 9.88672C295.8 9.32617 295.679 8.91374 295.438 8.64941C295.201 8.38509 294.854 8.25293 294.398 8.25293C293.947 8.25293 293.601 8.38965 293.359 8.66309C293.118 8.93652 292.997 9.35124 292.997 9.90723Z" fill="#007C6E"/>
<circle cx="176" cy="10" r="8" fill="#FFDD0F"/>
<path d="M27.585 43H25.4727V37.2168C25.4727 37.0983 25.4727 36.957 25.4727 36.793C25.4772 36.6243 25.4818 36.4512 25.4863 36.2734C25.4954 36.0911 25.5023 35.9089 25.5068 35.7266C25.516 35.5443 25.5228 35.3779 25.5273 35.2275C25.5046 35.2549 25.4658 35.2959 25.4111 35.3506C25.3564 35.4053 25.2949 35.4668 25.2266 35.5352C25.1582 35.599 25.0876 35.665 25.0146 35.7334C24.9417 35.8018 24.8711 35.8633 24.8027 35.918L23.6543 36.8408L22.6289 35.5693L25.8486 33.0059H27.585V43ZM36.9912 38.0029C36.9912 38.8096 36.9274 39.5296 36.7998 40.1631C36.6768 40.7965 36.4762 41.3343 36.1982 41.7764C35.9248 42.2184 35.5693 42.5557 35.1318 42.7881C34.6989 43.0205 34.1748 43.1367 33.5596 43.1367C32.9808 43.1367 32.4772 43.0205 32.0488 42.7881C31.6204 42.5557 31.265 42.2184 30.9824 41.7764C30.6999 41.3343 30.488 40.7965 30.3467 40.1631C30.21 39.5296 30.1416 38.8096 30.1416 38.0029C30.1416 37.1963 30.2031 36.474 30.3262 35.8359C30.4538 35.1979 30.6543 34.6579 30.9277 34.2158C31.2012 33.7738 31.5544 33.4365 31.9873 33.2041C32.4202 32.9671 32.9443 32.8486 33.5596 32.8486C34.1338 32.8486 34.6351 32.9648 35.0635 33.1973C35.4919 33.4297 35.8496 33.7669 36.1367 34.209C36.4238 34.651 36.638 35.1911 36.7793 35.8291C36.9206 36.4671 36.9912 37.1917 36.9912 38.0029ZM32.2471 38.0029C32.2471 39.1423 32.3451 39.999 32.541 40.5732C32.737 41.1475 33.0765 41.4346 33.5596 41.4346C34.0335 41.4346 34.373 41.1497 34.5781 40.5801C34.7878 40.0104 34.8926 39.1514 34.8926 38.0029C34.8926 36.859 34.7878 36 34.5781 35.4258C34.373 34.847 34.0335 34.5576 33.5596 34.5576C33.318 34.5576 33.113 34.6305 32.9443 34.7764C32.7803 34.9222 32.6458 35.1387 32.541 35.4258C32.4362 35.7129 32.361 36.0729 32.3154 36.5059C32.2699 36.9342 32.2471 37.4333 32.2471 38.0029ZM39.5752 36C39.5752 36.5788 39.6253 37.0117 39.7256 37.2988C39.8304 37.5814 39.9967 37.7227 40.2246 37.7227C40.4479 37.7227 40.612 37.5814 40.7168 37.2988C40.8262 37.0163 40.8809 36.5833 40.8809 36C40.8809 34.8607 40.6621 34.291 40.2246 34.291C39.9967 34.291 39.8304 34.4323 39.7256 34.7148C39.6253 34.9928 39.5752 35.4212 39.5752 36ZM42.6035 35.9863C42.6035 36.4785 42.5557 36.9206 42.46 37.3125C42.3688 37.7044 42.2253 38.0348 42.0293 38.3037C41.8333 38.5726 41.585 38.7799 41.2842 38.9258C40.9834 39.0671 40.6257 39.1377 40.2109 39.1377C39.8236 39.1377 39.4818 39.0671 39.1855 38.9258C38.8939 38.7799 38.6478 38.5726 38.4473 38.3037C38.2513 38.0348 38.1032 37.7044 38.0029 37.3125C37.9027 36.9206 37.8525 36.4785 37.8525 35.9863C37.8525 35.4941 37.8981 35.0544 37.9893 34.667C38.0804 34.2796 38.2217 33.9538 38.4131 33.6895C38.609 33.4206 38.8551 33.2155 39.1514 33.0742C39.4476 32.9329 39.8008 32.8623 40.2109 32.8623C40.6029 32.8623 40.9469 32.9329 41.2432 33.0742C41.5439 33.2155 41.7946 33.4206 41.9951 33.6895C42.1956 33.9538 42.346 34.2796 42.4463 34.667C42.5511 35.0544 42.6035 35.4941 42.6035 35.9863ZM47.1631 33.0059L41.6191 43H39.9854L45.5293 33.0059H47.1631ZM46.2949 39.9922C46.2949 40.571 46.3451 41.0039 46.4453 41.291C46.5501 41.5736 46.7165 41.7148 46.9443 41.7148C47.1676 41.7148 47.3317 41.5736 47.4365 41.291C47.5459 41.0085 47.6006 40.5755 47.6006 39.9922C47.6006 38.8529 47.3818 38.2832 46.9443 38.2832C46.7165 38.2832 46.5501 38.4245 46.4453 38.707C46.3451 38.985 46.2949 39.4134 46.2949 39.9922ZM49.3232 39.9785C49.3232 40.4707 49.2754 40.9128 49.1797 41.3047C49.0885 41.6921 48.945 42.0202 48.749 42.2891C48.5531 42.5579 48.3047 42.7653 48.0039 42.9111C47.7031 43.0524 47.3454 43.123 46.9307 43.123C46.5433 43.123 46.2038 43.0524 45.9121 42.9111C45.6204 42.7653 45.3743 42.5579 45.1738 42.2891C44.9779 42.0202 44.8298 41.6921 44.7295 41.3047C44.6292 40.9128 44.5791 40.4707 44.5791 39.9785C44.5791 39.4863 44.6247 39.0465 44.7158 38.6592C44.807 38.2718 44.9482 37.946 45.1396 37.6816C45.3311 37.4128 45.5749 37.2077 45.8711 37.0664C46.1673 36.9251 46.5205 36.8545 46.9307 36.8545C47.3226 36.8545 47.6667 36.9251 47.9629 37.0664C48.2637 37.2077 48.5143 37.4128 48.7148 37.6816C48.9154 37.946 49.0658 38.2718 49.166 38.6592C49.2708 39.0465 49.3232 39.4863 49.3232 39.9785ZM54.751 43V33.0059H56.0225V41.8652H59.9395V43H54.751ZM62.7012 43H61.457V35.4941H62.7012V43ZM61.3613 33.4639C61.3613 33.1904 61.4297 32.9922 61.5664 32.8691C61.7077 32.7461 61.8809 32.6846 62.0859 32.6846C62.1862 32.6846 62.2796 32.7005 62.3662 32.7324C62.4574 32.7598 62.5348 32.8053 62.5986 32.8691C62.667 32.9329 62.7194 33.015 62.7559 33.1152C62.7969 33.2109 62.8174 33.3271 62.8174 33.4639C62.8174 33.7282 62.7445 33.9264 62.5986 34.0586C62.4574 34.1862 62.2865 34.25 62.0859 34.25C61.8809 34.25 61.7077 34.1862 61.5664 34.0586C61.4297 33.931 61.3613 33.7327 61.3613 33.4639ZM67.7529 42.1045C68.0993 42.1045 68.391 42.0521 68.6279 41.9473C68.8695 41.8424 69.0632 41.6829 69.209 41.4688C69.3594 41.2546 69.4688 40.988 69.5371 40.6689C69.61 40.3454 69.651 39.9694 69.6602 39.541V39.2607C69.6602 38.8005 69.6283 38.3926 69.5645 38.0371C69.5052 37.6771 69.4004 37.3763 69.25 37.1348C69.1042 36.8887 68.9082 36.7041 68.6621 36.5811C68.416 36.4535 68.1084 36.3896 67.7393 36.3896C67.124 36.3896 66.6706 36.638 66.3789 37.1348C66.0918 37.6315 65.9482 38.3447 65.9482 39.2744C65.9482 40.2269 66.0918 40.9378 66.3789 41.4072C66.6706 41.8721 67.1286 42.1045 67.7529 42.1045ZM67.5137 43.1367C67.0898 43.1367 66.7025 43.0547 66.3516 42.8906C66.0007 42.7266 65.6999 42.4827 65.4492 42.1592C65.1986 41.8311 65.0049 41.4255 64.8682 40.9424C64.7314 40.4593 64.6631 39.8988 64.6631 39.2607C64.6631 38.6182 64.7314 38.0553 64.8682 37.5723C65.0049 37.0846 65.1986 36.6768 65.4492 36.3486C65.6999 36.0205 66.0007 35.7744 66.3516 35.6104C66.7025 35.4417 67.0898 35.3574 67.5137 35.3574C67.7826 35.3574 68.0264 35.3893 68.2451 35.4531C68.4639 35.5124 68.6598 35.5944 68.833 35.6992C69.0062 35.7995 69.1611 35.9202 69.2979 36.0615C69.4346 36.1982 69.5553 36.3464 69.6602 36.5059H69.7148L69.8994 35.4941H70.9043V46.3633H69.6602V43.1572C69.6602 43.0706 69.6647 42.9613 69.6738 42.8291C69.6829 42.6969 69.6921 42.5693 69.7012 42.4463C69.7148 42.3005 69.7285 42.1501 69.7422 41.9951H69.6602C69.5599 42.1501 69.4414 42.2982 69.3047 42.4395C69.1725 42.5762 69.0176 42.6969 68.8398 42.8018C68.6667 42.9066 68.4707 42.9886 68.252 43.0479C68.0332 43.1071 67.7871 43.1367 67.5137 43.1367ZM78.1436 43L77.959 41.9951H77.8906C77.7767 42.1911 77.64 42.362 77.4805 42.5078C77.3255 42.6491 77.1546 42.7676 76.9678 42.8633C76.7809 42.9544 76.5827 43.0228 76.373 43.0684C76.1634 43.1139 75.9492 43.1367 75.7305 43.1367C75.3158 43.1367 74.9512 43.0843 74.6367 42.9795C74.3223 42.8747 74.0602 42.7106 73.8506 42.4873C73.641 42.264 73.4814 41.9792 73.3721 41.6328C73.2673 41.2865 73.2148 40.874 73.2148 40.3955V35.4941H74.459V40.3271C74.459 40.9196 74.5798 41.3639 74.8213 41.6602C75.0628 41.9564 75.4365 42.1045 75.9424 42.1045C76.3115 42.1045 76.6214 42.0452 76.8721 41.9268C77.1227 41.8083 77.3232 41.6351 77.4736 41.4072C77.6286 41.1748 77.738 40.89 77.8018 40.5527C77.8701 40.2155 77.9043 39.8281 77.9043 39.3906V35.4941H79.1484V43H78.1436ZM82.7715 43H81.5273V35.4941H82.7715V43ZM81.4316 33.4639C81.4316 33.1904 81.5 32.9922 81.6367 32.8691C81.778 32.7461 81.9512 32.6846 82.1562 32.6846C82.2565 32.6846 82.3499 32.7005 82.4365 32.7324C82.5277 32.7598 82.6051 32.8053 82.6689 32.8691C82.7373 32.9329 82.7897 33.015 82.8262 33.1152C82.8672 33.2109 82.8877 33.3271 82.8877 33.4639C82.8877 33.7282 82.8148 33.9264 82.6689 34.0586C82.5277 34.1862 82.3568 34.25 82.1562 34.25C81.9512 34.25 81.778 34.1862 81.6367 34.0586C81.5 33.931 81.4316 33.7327 81.4316 33.4639ZM89.7852 41.9951H89.7305C89.6302 42.1501 89.5117 42.2982 89.375 42.4395C89.2428 42.5762 89.0879 42.6969 88.9102 42.8018C88.737 42.9066 88.541 42.9886 88.3223 43.0479C88.1035 43.1071 87.8574 43.1367 87.584 43.1367C87.1602 43.1367 86.7728 43.0547 86.4219 42.8906C86.071 42.7266 85.7702 42.4827 85.5195 42.1592C85.2689 41.8311 85.0752 41.4255 84.9385 40.9424C84.8018 40.4593 84.7334 39.8988 84.7334 39.2607C84.7334 38.6182 84.8018 38.0553 84.9385 37.5723C85.0752 37.0846 85.2689 36.6768 85.5195 36.3486C85.7702 36.0205 86.071 35.7744 86.4219 35.6104C86.7728 35.4417 87.1602 35.3574 87.584 35.3574C87.8529 35.3574 88.0967 35.387 88.3154 35.4463C88.5342 35.5055 88.7301 35.5853 88.9033 35.6855C89.0811 35.7858 89.2383 35.902 89.375 36.0342C89.5117 36.1663 89.6302 36.3053 89.7305 36.4512H89.8125C89.7988 36.2962 89.7852 36.1481 89.7715 36.0068C89.7624 35.8883 89.7533 35.7676 89.7441 35.6445C89.735 35.5169 89.7305 35.4167 89.7305 35.3438V32.3633H90.9746V43H89.9697L89.7852 41.9951ZM87.8232 42.1045C88.1696 42.1045 88.4613 42.0521 88.6982 41.9473C88.9398 41.8424 89.1335 41.6829 89.2793 41.4688C89.4297 41.2546 89.5391 40.988 89.6074 40.6689C89.6803 40.3454 89.7214 39.9694 89.7305 39.541V39.2607C89.7305 38.8005 89.6986 38.3926 89.6348 38.0371C89.5755 37.6771 89.4707 37.3763 89.3203 37.1348C89.1745 36.8887 88.9785 36.7041 88.7324 36.5811C88.4863 36.4535 88.1787 36.3896 87.8096 36.3896C87.1943 36.3896 86.7409 36.638 86.4492 37.1348C86.1621 37.6315 86.0186 38.3447 86.0186 39.2744C86.0186 40.2269 86.1621 40.9378 86.4492 41.4072C86.7409 41.8721 87.1989 42.1045 87.8232 42.1045ZM94.5977 43H93.3535V35.4941H94.5977V43ZM93.2578 33.4639C93.2578 33.1904 93.3262 32.9922 93.4629 32.8691C93.6042 32.7461 93.7773 32.6846 93.9824 32.6846C94.0827 32.6846 94.1761 32.7005 94.2627 32.7324C94.3538 32.7598 94.4313 32.8053 94.4951 32.8691C94.5635 32.9329 94.6159 33.015 94.6523 33.1152C94.6934 33.2109 94.7139 33.3271 94.7139 33.4639C94.7139 33.7282 94.641 33.9264 94.4951 34.0586C94.3538 34.1862 94.1829 34.25 93.9824 34.25C93.7773 34.25 93.6042 34.1862 93.4629 34.0586C93.3262 33.931 93.2578 33.7327 93.2578 33.4639ZM99.2461 42.1182C99.3281 42.1182 99.4193 42.1136 99.5195 42.1045C99.6243 42.0954 99.7246 42.084 99.8203 42.0703C99.916 42.0566 100.003 42.0407 100.08 42.0225C100.162 42.0042 100.224 41.9883 100.265 41.9746V42.918C100.205 42.9453 100.13 42.9727 100.039 43C99.9479 43.0273 99.8477 43.0501 99.7383 43.0684C99.6289 43.0911 99.515 43.1071 99.3965 43.1162C99.278 43.1299 99.1618 43.1367 99.0479 43.1367C98.7653 43.1367 98.5033 43.1003 98.2617 43.0273C98.0202 42.9544 97.8105 42.8291 97.6328 42.6514C97.4596 42.4736 97.3229 42.2344 97.2227 41.9336C97.1224 41.6283 97.0723 41.2454 97.0723 40.7852V36.4307H96.0127V35.877L97.0723 35.3438L97.6055 33.7715H98.3232V35.4941H100.21V36.4307H98.3232V40.7852C98.3232 41.2272 98.3939 41.5599 98.5352 41.7832C98.681 42.0065 98.918 42.1182 99.2461 42.1182ZM100.6 35.4941H101.892L103.361 39.6846C103.425 39.8669 103.489 40.0583 103.553 40.2588C103.621 40.4593 103.683 40.6598 103.737 40.8604C103.797 41.0609 103.847 41.2546 103.888 41.4414C103.929 41.6283 103.958 41.8014 103.977 41.9609H104.018C104.04 41.847 104.077 41.6921 104.127 41.4961C104.177 41.3001 104.232 41.0928 104.291 40.874C104.355 40.6507 104.419 40.432 104.482 40.2178C104.551 40.0036 104.61 39.8213 104.66 39.6709L106.021 35.4941H107.306L104.339 43.9775C104.211 44.3467 104.072 44.6771 103.922 44.9688C103.776 45.265 103.605 45.5156 103.409 45.7207C103.213 45.9258 102.983 46.083 102.719 46.1924C102.454 46.3063 102.14 46.3633 101.775 46.3633C101.538 46.3633 101.333 46.3496 101.16 46.3223C100.987 46.2995 100.839 46.2744 100.716 46.2471V45.2559C100.812 45.2786 100.932 45.2969 101.078 45.3105C101.224 45.3288 101.377 45.3379 101.536 45.3379C101.755 45.3379 101.944 45.3105 102.104 45.2559C102.263 45.2057 102.402 45.1305 102.521 45.0303C102.639 44.93 102.739 44.807 102.821 44.6611C102.908 44.5153 102.985 44.349 103.054 44.1621L103.443 43.0684L100.6 35.4941ZM118.366 35.9316C118.366 36.3464 118.302 36.7451 118.175 37.1279C118.052 37.5107 117.847 37.8503 117.56 38.1465C117.272 38.4382 116.892 38.6729 116.418 38.8506C115.949 39.0238 115.368 39.1104 114.675 39.1104H113.649V43H112.378V33.0059H114.853C115.463 33.0059 115.99 33.0719 116.432 33.2041C116.874 33.3317 117.238 33.5208 117.525 33.7715C117.812 34.0176 118.024 34.3229 118.161 34.6875C118.298 35.0521 118.366 35.4668 118.366 35.9316ZM113.649 38.0303H114.531C114.955 38.0303 115.324 37.9938 115.639 37.9209C115.958 37.848 116.22 37.7318 116.425 37.5723C116.634 37.4082 116.792 37.1986 116.896 36.9434C117.001 36.6836 117.054 36.3691 117.054 36C117.054 35.3529 116.867 34.8743 116.493 34.5645C116.119 34.25 115.536 34.0928 114.743 34.0928H113.649V38.0303ZM126.392 39.2334C126.392 39.8577 126.314 40.4137 126.159 40.9014C126.009 41.3844 125.79 41.7923 125.503 42.125C125.22 42.4531 124.876 42.7038 124.471 42.877C124.065 43.0501 123.609 43.1367 123.104 43.1367C122.634 43.1367 122.201 43.0501 121.805 42.877C121.408 42.7038 121.064 42.4531 120.772 42.125C120.485 41.7923 120.26 41.3844 120.096 40.9014C119.936 40.4137 119.856 39.8577 119.856 39.2334C119.856 38.6136 119.932 38.0645 120.082 37.5859C120.237 37.1029 120.456 36.6973 120.738 36.3691C121.021 36.0365 121.365 35.7858 121.771 35.6172C122.181 35.444 122.639 35.3574 123.145 35.3574C123.614 35.3574 124.047 35.444 124.443 35.6172C124.84 35.7858 125.182 36.0365 125.469 36.3691C125.76 36.6973 125.986 37.1029 126.146 37.5859C126.31 38.0645 126.392 38.6136 126.392 39.2334ZM121.142 39.2334C121.142 40.1859 121.297 40.9036 121.606 41.3867C121.921 41.8652 122.429 42.1045 123.131 42.1045C123.833 42.1045 124.336 41.8652 124.642 41.3867C124.951 40.9036 125.106 40.1859 125.106 39.2334C125.106 38.2809 124.949 37.57 124.635 37.1006C124.325 36.6266 123.819 36.3896 123.117 36.3896C122.415 36.3896 121.91 36.6266 121.6 37.1006C121.294 37.57 121.142 38.2809 121.142 39.2334ZM134.472 39.2334C134.472 39.8577 134.394 40.4137 134.239 40.9014C134.089 41.3844 133.87 41.7923 133.583 42.125C133.3 42.4531 132.956 42.7038 132.551 42.877C132.145 43.0501 131.689 43.1367 131.184 43.1367C130.714 43.1367 130.281 43.0501 129.885 42.877C129.488 42.7038 129.144 42.4531 128.853 42.125C128.565 41.7923 128.34 41.3844 128.176 40.9014C128.016 40.4137 127.937 39.8577 127.937 39.2334C127.937 38.6136 128.012 38.0645 128.162 37.5859C128.317 37.1029 128.536 36.6973 128.818 36.3691C129.101 36.0365 129.445 35.7858 129.851 35.6172C130.261 35.444 130.719 35.3574 131.225 35.3574C131.694 35.3574 132.127 35.444 132.523 35.6172C132.92 35.7858 133.262 36.0365 133.549 36.3691C133.84 36.6973 134.066 37.1029 134.226 37.5859C134.39 38.0645 134.472 38.6136 134.472 39.2334ZM129.222 39.2334C129.222 40.1859 129.377 40.9036 129.687 41.3867C130.001 41.8652 130.509 42.1045 131.211 42.1045C131.913 42.1045 132.416 41.8652 132.722 41.3867C133.032 40.9036 133.187 40.1859 133.187 39.2334C133.187 38.2809 133.029 37.57 132.715 37.1006C132.405 36.6266 131.899 36.3896 131.197 36.3896C130.495 36.3896 129.99 36.6266 129.68 37.1006C129.374 37.57 129.222 38.2809 129.222 39.2334ZM137.678 43H136.434V32.3633H137.678V43Z" fill="#007C6E"/>
<circle cx="8" cy="38" r="8" fill="#F1A549"/>
<path d="M26.8623 60.876C27.277 60.876 27.6689 60.9261 28.0381 61.0264C28.4072 61.1266 28.7308 61.277 29.0088 61.4775C29.2868 61.6781 29.5078 61.9287 29.6719 62.2295C29.8359 62.5303 29.918 62.8835 29.918 63.2891C29.918 63.5898 29.8724 63.8633 29.7812 64.1094C29.6901 64.3509 29.5648 64.5719 29.4053 64.7725C29.2458 64.9684 29.0566 65.1439 28.8379 65.2988C28.6191 65.4538 28.3822 65.5951 28.127 65.7227C28.3913 65.8639 28.6488 66.0212 28.8994 66.1943C29.1546 66.3675 29.3802 66.5635 29.5762 66.7822C29.7721 66.9964 29.9294 67.238 30.0479 67.5068C30.1663 67.7757 30.2256 68.0765 30.2256 68.4092C30.2256 68.8239 30.1436 69.1999 29.9795 69.5371C29.8154 69.8743 29.5853 70.1615 29.2891 70.3984C28.9928 70.6354 28.6374 70.8177 28.2227 70.9453C27.8125 71.0729 27.359 71.1367 26.8623 71.1367C26.3245 71.1367 25.846 71.0752 25.4268 70.9521C25.0075 70.8291 24.6543 70.6536 24.3672 70.4258C24.0801 70.1979 23.8613 69.9176 23.7109 69.585C23.5651 69.2523 23.4922 68.8786 23.4922 68.4639C23.4922 68.1221 23.5423 67.8145 23.6426 67.541C23.7428 67.2676 23.8796 67.0215 24.0527 66.8027C24.2259 66.584 24.4287 66.3903 24.6611 66.2217C24.8936 66.0531 25.1419 65.9049 25.4062 65.7773C25.1829 65.6361 24.9733 65.4834 24.7773 65.3193C24.5814 65.1507 24.4105 64.9661 24.2646 64.7656C24.1234 64.5605 24.0094 64.335 23.9229 64.0889C23.8408 63.8428 23.7998 63.5716 23.7998 63.2754C23.7998 62.8789 23.8818 62.5326 24.0459 62.2363C24.2145 61.9355 24.4401 61.6849 24.7227 61.4844C25.0052 61.2793 25.3311 61.1266 25.7002 61.0264C26.0693 60.9261 26.4567 60.876 26.8623 60.876ZM25.4473 68.3408C25.4473 68.5231 25.4769 68.6917 25.5361 68.8467C25.5954 68.9971 25.682 69.127 25.7959 69.2363C25.9144 69.3457 26.0602 69.4323 26.2334 69.4961C26.4066 69.5553 26.6071 69.585 26.835 69.585C27.3135 69.585 27.6712 69.4733 27.9082 69.25C28.1452 69.0221 28.2637 68.7236 28.2637 68.3545C28.2637 68.1631 28.2227 67.9922 28.1406 67.8418C28.0632 67.6868 27.9606 67.5456 27.833 67.418C27.71 67.2858 27.5687 67.165 27.4092 67.0557C27.2497 66.9463 27.0902 66.8415 26.9307 66.7412L26.7803 66.6455C26.5798 66.7458 26.3975 66.8551 26.2334 66.9736C26.0693 67.0876 25.9281 67.2152 25.8096 67.3564C25.6956 67.4932 25.6068 67.6436 25.543 67.8076C25.4792 67.9717 25.4473 68.1494 25.4473 68.3408ZM26.8486 62.4209C26.6982 62.4209 26.557 62.4437 26.4248 62.4893C26.2972 62.5348 26.1855 62.6009 26.0898 62.6875C25.9987 62.7741 25.9258 62.8812 25.8711 63.0088C25.8164 63.1364 25.7891 63.2799 25.7891 63.4395C25.7891 63.6309 25.8164 63.7972 25.8711 63.9385C25.9303 64.0752 26.0078 64.1982 26.1035 64.3076C26.2038 64.4124 26.3177 64.5081 26.4453 64.5947C26.5775 64.6768 26.7165 64.7588 26.8623 64.8408C27.0036 64.7679 27.138 64.6882 27.2656 64.6016C27.3932 64.515 27.5049 64.417 27.6006 64.3076C27.7008 64.1937 27.7806 64.0661 27.8398 63.9248C27.8991 63.7835 27.9287 63.6217 27.9287 63.4395C27.9287 63.2799 27.9014 63.1364 27.8467 63.0088C27.792 62.8812 27.7168 62.7741 27.6211 62.6875C27.5254 62.6009 27.4115 62.5348 27.2793 62.4893C27.1471 62.4437 27.0036 62.4209 26.8486 62.4209ZM31.5107 70.0225C31.5107 69.8083 31.5404 69.6283 31.5996 69.4824C31.6634 69.332 31.75 69.2113 31.8594 69.1201C31.9688 69.029 32.0964 68.9629 32.2422 68.9219C32.388 68.8809 32.5452 68.8604 32.7139 68.8604C32.8734 68.8604 33.0238 68.8809 33.165 68.9219C33.3109 68.9629 33.4385 69.029 33.5479 69.1201C33.6572 69.2113 33.7438 69.332 33.8076 69.4824C33.8714 69.6283 33.9033 69.8083 33.9033 70.0225C33.9033 70.2275 33.8714 70.403 33.8076 70.5488C33.7438 70.6947 33.6572 70.8154 33.5479 70.9111C33.4385 71.0068 33.3109 71.0752 33.165 71.1162C33.0238 71.1618 32.8734 71.1846 32.7139 71.1846C32.5452 71.1846 32.388 71.1618 32.2422 71.1162C32.0964 71.0752 31.9688 71.0068 31.8594 70.9111C31.75 70.8154 31.6634 70.6947 31.5996 70.5488C31.5404 70.403 31.5107 70.2275 31.5107 70.0225ZM42.1201 68.9287H40.917V71H38.8594V68.9287H34.7305V67.459L38.9756 61.0059H40.917V67.2881H42.1201V68.9287ZM38.8594 67.2881V65.5928C38.8594 65.5335 38.8594 65.4492 38.8594 65.3398C38.8639 65.2259 38.8685 65.0983 38.873 64.957C38.8776 64.8158 38.8822 64.6699 38.8867 64.5195C38.8958 64.3691 38.9027 64.2256 38.9072 64.0889C38.9163 63.9521 38.9232 63.8337 38.9277 63.7334C38.9368 63.6286 38.9437 63.5534 38.9482 63.5078H38.8867C38.8047 63.6992 38.7113 63.902 38.6064 64.1162C38.5062 64.3304 38.39 64.5446 38.2578 64.7588L36.5898 67.2881H38.8594ZM44.5674 64C44.5674 64.5788 44.6175 65.0117 44.7178 65.2988C44.8226 65.5814 44.9889 65.7227 45.2168 65.7227C45.4401 65.7227 45.6042 65.5814 45.709 65.2988C45.8184 65.0163 45.873 64.5833 45.873 64C45.873 62.8607 45.6543 62.291 45.2168 62.291C44.9889 62.291 44.8226 62.4323 44.7178 62.7148C44.6175 62.9928 44.5674 63.4212 44.5674 64ZM47.5957 63.9863C47.5957 64.4785 47.5479 64.9206 47.4521 65.3125C47.361 65.7044 47.2174 66.0348 47.0215 66.3037C46.8255 66.5726 46.5771 66.7799 46.2764 66.9258C45.9756 67.0671 45.6178 67.1377 45.2031 67.1377C44.8158 67.1377 44.474 67.0671 44.1777 66.9258C43.8861 66.7799 43.64 66.5726 43.4395 66.3037C43.2435 66.0348 43.0954 65.7044 42.9951 65.3125C42.8949 64.9206 42.8447 64.4785 42.8447 63.9863C42.8447 63.4941 42.8903 63.0544 42.9814 62.667C43.0726 62.2796 43.2139 61.9538 43.4053 61.6895C43.6012 61.4206 43.8473 61.2155 44.1436 61.0742C44.4398 60.9329 44.793 60.8623 45.2031 60.8623C45.5951 60.8623 45.9391 60.9329 46.2354 61.0742C46.5361 61.2155 46.7868 61.4206 46.9873 61.6895C47.1878 61.9538 47.3382 62.2796 47.4385 62.667C47.5433 63.0544 47.5957 63.4941 47.5957 63.9863ZM52.1553 61.0059L46.6113 71H44.9775L50.5215 61.0059H52.1553ZM51.2871 67.9922C51.2871 68.571 51.3372 69.0039 51.4375 69.291C51.5423 69.5736 51.7087 69.7148 51.9365 69.7148C52.1598 69.7148 52.3239 69.5736 52.4287 69.291C52.5381 69.0085 52.5928 68.5755 52.5928 67.9922C52.5928 66.8529 52.374 66.2832 51.9365 66.2832C51.7087 66.2832 51.5423 66.4245 51.4375 66.707C51.3372 66.985 51.2871 67.4134 51.2871 67.9922ZM54.3154 67.9785C54.3154 68.4707 54.2676 68.9128 54.1719 69.3047C54.0807 69.6921 53.9372 70.0202 53.7412 70.2891C53.5452 70.5579 53.2969 70.7653 52.9961 70.9111C52.6953 71.0524 52.3376 71.123 51.9229 71.123C51.5355 71.123 51.196 71.0524 50.9043 70.9111C50.6126 70.7653 50.3665 70.5579 50.166 70.2891C49.9701 70.0202 49.8219 69.6921 49.7217 69.3047C49.6214 68.9128 49.5713 68.4707 49.5713 67.9785C49.5713 67.4863 49.6169 67.0465 49.708 66.6592C49.7992 66.2718 49.9404 65.946 50.1318 65.6816C50.3232 65.4128 50.5671 65.2077 50.8633 65.0664C51.1595 64.9251 51.5127 64.8545 51.9229 64.8545C52.3148 64.8545 52.6589 64.9251 52.9551 65.0664C53.2559 65.2077 53.5065 65.4128 53.707 65.6816C53.9076 65.946 54.0579 66.2718 54.1582 66.6592C54.263 67.0465 54.3154 67.4863 54.3154 67.9785ZM63.8037 61.9834C63.3161 61.9834 62.874 62.0768 62.4775 62.2637C62.0811 62.446 61.7415 62.7103 61.459 63.0566C61.181 63.403 60.9645 63.8245 60.8096 64.3213C60.6592 64.818 60.584 65.3786 60.584 66.0029C60.584 66.6455 60.6501 67.2174 60.7822 67.7188C60.9189 68.2155 61.1217 68.6348 61.3906 68.9766C61.6595 69.3184 61.9945 69.5781 62.3955 69.7559C62.7965 69.9336 63.266 70.0225 63.8037 70.0225C64.2093 70.0225 64.5944 69.9837 64.959 69.9062C65.3236 69.8242 65.6836 69.7308 66.0391 69.626V70.7334C65.8613 70.8018 65.6836 70.8633 65.5059 70.918C65.3281 70.9681 65.1413 71.0091 64.9453 71.041C64.7539 71.0729 64.5465 71.0957 64.3232 71.1094C64.1045 71.1276 63.8607 71.1367 63.5918 71.1367C62.8444 71.1367 62.1973 71.0137 61.6504 70.7676C61.1035 70.5215 60.6501 70.1729 60.29 69.7217C59.9346 69.2705 59.6702 68.7282 59.4971 68.0947C59.3239 67.4613 59.2373 66.7594 59.2373 65.9893C59.2373 65.2327 59.3353 64.54 59.5312 63.9111C59.7318 63.2822 60.0234 62.7422 60.4062 62.291C60.7936 61.8398 61.2721 61.4889 61.8418 61.2383C62.4115 60.9876 63.0654 60.8623 63.8037 60.8623C64.2959 60.8623 64.7653 60.9124 65.2119 61.0127C65.6585 61.113 66.0618 61.2588 66.4219 61.4502L65.8887 62.5166C65.6016 62.3708 65.2894 62.2454 64.9521 62.1406C64.6149 62.0358 64.2321 61.9834 63.8037 61.9834ZM74.1396 67.2334C74.1396 67.8577 74.0622 68.4137 73.9072 68.9014C73.7568 69.3844 73.5381 69.7923 73.251 70.125C72.9684 70.4531 72.6243 70.7038 72.2188 70.877C71.8132 71.0501 71.3574 71.1367 70.8516 71.1367C70.3822 71.1367 69.9492 71.0501 69.5527 70.877C69.1562 70.7038 68.8122 70.4531 68.5205 70.125C68.2334 69.7923 68.0078 69.3844 67.8438 68.9014C67.6842 68.4137 67.6045 67.8577 67.6045 67.2334C67.6045 66.6136 67.6797 66.0645 67.8301 65.5859C67.985 65.1029 68.2038 64.6973 68.4863 64.3691C68.7689 64.0365 69.113 63.7858 69.5186 63.6172C69.9287 63.444 70.3867 63.3574 70.8926 63.3574C71.362 63.3574 71.7949 63.444 72.1914 63.6172C72.5879 63.7858 72.9297 64.0365 73.2168 64.3691C73.5085 64.6973 73.734 65.1029 73.8936 65.5859C74.0576 66.0645 74.1396 66.6136 74.1396 67.2334ZM68.8896 67.2334C68.8896 68.1859 69.0446 68.9036 69.3545 69.3867C69.6689 69.8652 70.1771 70.1045 70.8789 70.1045C71.5807 70.1045 72.0843 69.8652 72.3896 69.3867C72.6995 68.9036 72.8545 68.1859 72.8545 67.2334C72.8545 66.2809 72.6973 65.57 72.3828 65.1006C72.0729 64.6266 71.5671 64.3896 70.8652 64.3896C70.1634 64.3896 69.6576 64.6266 69.3477 65.1006C69.0423 65.57 68.8896 66.2809 68.8896 67.2334ZM85.0908 71V66.167C85.0908 65.5745 84.9769 65.1302 84.749 64.834C84.5212 64.5378 84.168 64.3896 83.6895 64.3896C83.3568 64.3896 83.0742 64.4443 82.8418 64.5537C82.6094 64.6585 82.418 64.8158 82.2676 65.0254C82.1217 65.2305 82.0146 65.488 81.9463 65.7979C81.8779 66.1032 81.8438 66.4564 81.8438 66.8574V71H80.5928V66.167C80.5928 65.5745 80.4788 65.1302 80.251 64.834C80.0277 64.5378 79.6768 64.3896 79.1982 64.3896C78.8473 64.3896 78.5534 64.4489 78.3164 64.5674C78.0794 64.6859 77.888 64.8613 77.7422 65.0938C77.6009 65.3262 77.4984 65.611 77.4346 65.9482C77.3753 66.2855 77.3457 66.6729 77.3457 67.1104V71H76.1016V63.4941H77.1133L77.291 64.5059H77.3594C77.4688 64.3099 77.5986 64.1413 77.749 64C77.8994 63.8542 78.0635 63.7334 78.2412 63.6377C78.4235 63.542 78.6149 63.4714 78.8154 63.4258C79.0205 63.3802 79.2279 63.3574 79.4375 63.3574C79.9844 63.3574 80.4378 63.4577 80.7979 63.6582C81.1624 63.8587 81.4313 64.1732 81.6045 64.6016H81.6592C81.7777 64.3874 81.9189 64.2028 82.083 64.0479C82.2516 63.8929 82.4339 63.7653 82.6299 63.665C82.8304 63.5602 83.04 63.4827 83.2588 63.4326C83.4775 63.3825 83.7008 63.3574 83.9287 63.3574C84.7262 63.3574 85.3255 63.5762 85.7266 64.0137C86.1322 64.4466 86.335 65.1416 86.335 66.0986V71H85.0908ZM97.6416 71V66.167C97.6416 65.5745 97.5277 65.1302 97.2998 64.834C97.0719 64.5378 96.7188 64.3896 96.2402 64.3896C95.9076 64.3896 95.625 64.4443 95.3926 64.5537C95.1602 64.6585 94.9688 64.8158 94.8184 65.0254C94.6725 65.2305 94.5654 65.488 94.4971 65.7979C94.4287 66.1032 94.3945 66.4564 94.3945 66.8574V71H93.1436V66.167C93.1436 65.5745 93.0296 65.1302 92.8018 64.834C92.5785 64.5378 92.2275 64.3896 91.749 64.3896C91.3981 64.3896 91.1042 64.4489 90.8672 64.5674C90.6302 64.6859 90.4388 64.8613 90.293 65.0938C90.1517 65.3262 90.0492 65.611 89.9854 65.9482C89.9261 66.2855 89.8965 66.6729 89.8965 67.1104V71H88.6523V63.4941H89.6641L89.8418 64.5059H89.9102C90.0195 64.3099 90.1494 64.1413 90.2998 64C90.4502 63.8542 90.6143 63.7334 90.792 63.6377C90.9743 63.542 91.1657 63.4714 91.3662 63.4258C91.5713 63.3802 91.7786 63.3574 91.9883 63.3574C92.5352 63.3574 92.9886 63.4577 93.3486 63.6582C93.7132 63.8587 93.9821 64.1732 94.1553 64.6016H94.21C94.3285 64.3874 94.4697 64.2028 94.6338 64.0479C94.8024 63.8929 94.9847 63.7653 95.1807 63.665C95.3812 63.5602 95.5908 63.4827 95.8096 63.4326C96.0283 63.3825 96.2516 63.3574 96.4795 63.3574C97.277 63.3574 97.8763 63.5762 98.2773 64.0137C98.6829 64.4466 98.8857 65.1416 98.8857 66.0986V71H97.6416ZM106.063 71L105.879 69.9951H105.811C105.697 70.1911 105.56 70.362 105.4 70.5078C105.245 70.6491 105.075 70.7676 104.888 70.8633C104.701 70.9544 104.503 71.0228 104.293 71.0684C104.083 71.1139 103.869 71.1367 103.65 71.1367C103.236 71.1367 102.871 71.0843 102.557 70.9795C102.242 70.8747 101.98 70.7106 101.771 70.4873C101.561 70.264 101.401 69.9792 101.292 69.6328C101.187 69.2865 101.135 68.874 101.135 68.3955V63.4941H102.379V68.3271C102.379 68.9196 102.5 69.3639 102.741 69.6602C102.983 69.9564 103.356 70.1045 103.862 70.1045C104.231 70.1045 104.541 70.0452 104.792 69.9268C105.043 69.8083 105.243 69.6351 105.394 69.4072C105.549 69.1748 105.658 68.89 105.722 68.5527C105.79 68.2155 105.824 67.8281 105.824 67.3906V63.4941H107.068V71H106.063ZM114.137 71V66.167C114.137 65.5745 114.016 65.1302 113.774 64.834C113.537 64.5378 113.164 64.3896 112.653 64.3896C112.284 64.3896 111.974 64.4489 111.724 64.5674C111.473 64.6859 111.27 64.8613 111.115 65.0938C110.965 65.3262 110.855 65.611 110.787 65.9482C110.723 66.2855 110.691 66.6729 110.691 67.1104V71H109.447V63.4941H110.459L110.637 64.5059H110.705C110.819 64.3099 110.953 64.1413 111.108 64C111.268 63.8542 111.441 63.7334 111.628 63.6377C111.815 63.542 112.013 63.4714 112.223 63.4258C112.432 63.3802 112.646 63.3574 112.865 63.3574C113.699 63.3574 114.326 63.5762 114.745 64.0137C115.169 64.4466 115.381 65.1416 115.381 66.0986V71H114.137ZM118.936 71H117.691V63.4941H118.936V71ZM117.596 61.4639C117.596 61.1904 117.664 60.9922 117.801 60.8691C117.942 60.7461 118.115 60.6846 118.32 60.6846C118.421 60.6846 118.514 60.7005 118.601 60.7324C118.692 60.7598 118.769 60.8053 118.833 60.8691C118.901 60.9329 118.954 61.015 118.99 61.1152C119.031 61.2109 119.052 61.3271 119.052 61.4639C119.052 61.7282 118.979 61.9264 118.833 62.0586C118.692 62.1862 118.521 62.25 118.32 62.25C118.115 62.25 117.942 62.1862 117.801 62.0586C117.664 61.931 117.596 61.7327 117.596 61.4639ZM123.584 70.1182C123.666 70.1182 123.757 70.1136 123.857 70.1045C123.962 70.0954 124.062 70.084 124.158 70.0703C124.254 70.0566 124.34 70.0407 124.418 70.0225C124.5 70.0042 124.562 69.9883 124.603 69.9746V70.918C124.543 70.9453 124.468 70.9727 124.377 71C124.286 71.0273 124.186 71.0501 124.076 71.0684C123.967 71.0911 123.853 71.1071 123.734 71.1162C123.616 71.1299 123.5 71.1367 123.386 71.1367C123.103 71.1367 122.841 71.1003 122.6 71.0273C122.358 70.9544 122.148 70.8291 121.971 70.6514C121.798 70.4736 121.661 70.2344 121.561 69.9336C121.46 69.6283 121.41 69.2454 121.41 68.7852V64.4307H120.351V63.877L121.41 63.3438L121.943 61.7715H122.661V63.4941H124.548V64.4307H122.661V68.7852C122.661 69.2272 122.732 69.5599 122.873 69.7832C123.019 70.0065 123.256 70.1182 123.584 70.1182ZM124.938 63.4941H126.229L127.699 67.6846C127.763 67.8669 127.827 68.0583 127.891 68.2588C127.959 68.4593 128.021 68.6598 128.075 68.8604C128.134 69.0609 128.185 69.2546 128.226 69.4414C128.267 69.6283 128.296 69.8014 128.314 69.9609H128.355C128.378 69.847 128.415 69.6921 128.465 69.4961C128.515 69.3001 128.57 69.0928 128.629 68.874C128.693 68.6507 128.757 68.432 128.82 68.2178C128.889 68.0036 128.948 67.8213 128.998 67.6709L130.358 63.4941H131.644L128.677 71.9775C128.549 72.3467 128.41 72.6771 128.26 72.9688C128.114 73.265 127.943 73.5156 127.747 73.7207C127.551 73.9258 127.321 74.083 127.057 74.1924C126.792 74.3063 126.478 74.3633 126.113 74.3633C125.876 74.3633 125.671 74.3496 125.498 74.3223C125.325 74.2995 125.177 74.2744 125.054 74.2471V73.2559C125.149 73.2786 125.27 73.2969 125.416 73.3105C125.562 73.3288 125.715 73.3379 125.874 73.3379C126.093 73.3379 126.282 73.3105 126.441 73.2559C126.601 73.2057 126.74 73.1305 126.858 73.0303C126.977 72.93 127.077 72.807 127.159 72.6611C127.246 72.5153 127.323 72.349 127.392 72.1621L127.781 71.0684L124.938 63.4941Z" fill="#007C6E"/>
<circle cx="9" cy="66" r="8" fill="#FFC01B"/>
<path d="M198.417 40.9287H197.214V43H195.156V40.9287H191.027V39.459L195.272 33.0059H197.214V39.2881H198.417V40.9287ZM195.156 39.2881V37.5928C195.156 37.5335 195.156 37.4492 195.156 37.3398C195.161 37.2259 195.165 37.0983 195.17 36.957C195.174 36.8158 195.179 36.6699 195.184 36.5195C195.193 36.3691 195.2 36.2256 195.204 36.0889C195.213 35.9521 195.22 35.8337 195.225 35.7334C195.234 35.6286 195.241 35.5534 195.245 35.5078H195.184C195.102 35.6992 195.008 35.902 194.903 36.1162C194.803 36.3304 194.687 36.5446 194.555 36.7588L192.887 39.2881H195.156ZM199.511 42.0225C199.511 41.8083 199.54 41.6283 199.6 41.4824C199.663 41.332 199.75 41.2113 199.859 41.1201C199.969 41.029 200.096 40.9629 200.242 40.9219C200.388 40.8809 200.545 40.8604 200.714 40.8604C200.873 40.8604 201.024 40.8809 201.165 40.9219C201.311 40.9629 201.438 41.029 201.548 41.1201C201.657 41.2113 201.744 41.332 201.808 41.4824C201.871 41.6283 201.903 41.8083 201.903 42.0225C201.903 42.2275 201.871 42.403 201.808 42.5488C201.744 42.6947 201.657 42.8154 201.548 42.9111C201.438 43.0068 201.311 43.0752 201.165 43.1162C201.024 43.1618 200.873 43.1846 200.714 43.1846C200.545 43.1846 200.388 43.1618 200.242 43.1162C200.096 43.0752 199.969 43.0068 199.859 42.9111C199.75 42.8154 199.663 42.6947 199.6 42.5488C199.54 42.403 199.511 42.2275 199.511 42.0225ZM203.223 38.7549C203.223 38.2764 203.248 37.8001 203.298 37.3262C203.353 36.8522 203.446 36.3988 203.578 35.9658C203.715 35.5283 203.897 35.1227 204.125 34.749C204.357 34.3753 204.649 34.0518 205 33.7783C205.355 33.5003 205.779 33.2839 206.271 33.1289C206.768 32.9694 207.347 32.8896 208.008 32.8896C208.104 32.8896 208.208 32.8919 208.322 32.8965C208.436 32.901 208.55 32.9079 208.664 32.917C208.783 32.9215 208.896 32.9307 209.006 32.9443C209.115 32.958 209.213 32.974 209.3 32.9922V34.6807C209.127 34.6396 208.942 34.6077 208.746 34.585C208.555 34.5576 208.361 34.5439 208.165 34.5439C207.55 34.5439 207.044 34.6214 206.647 34.7764C206.251 34.9268 205.937 35.1387 205.704 35.4121C205.472 35.6855 205.305 36.0137 205.205 36.3965C205.109 36.7793 205.05 37.2031 205.027 37.668H205.109C205.201 37.5039 205.31 37.3512 205.438 37.21C205.57 37.0641 205.722 36.9411 205.896 36.8408C206.069 36.736 206.262 36.654 206.477 36.5947C206.695 36.5355 206.939 36.5059 207.208 36.5059C207.641 36.5059 208.031 36.5765 208.377 36.7178C208.723 36.859 209.015 37.0641 209.252 37.333C209.493 37.6019 209.678 37.9323 209.806 38.3242C209.933 38.7161 209.997 39.165 209.997 39.6709C209.997 40.2132 209.92 40.6986 209.765 41.127C209.614 41.5553 209.398 41.9199 209.115 42.2207C208.833 42.5169 208.491 42.7448 208.09 42.9043C207.689 43.0592 207.238 43.1367 206.736 43.1367C206.244 43.1367 205.784 43.0501 205.355 42.877C204.927 42.6992 204.553 42.4303 204.234 42.0703C203.92 41.7103 203.672 41.2568 203.489 40.71C203.312 40.1585 203.223 39.5068 203.223 38.7549ZM206.695 41.4482C206.882 41.4482 207.051 41.4141 207.201 41.3457C207.356 41.2728 207.488 41.1657 207.598 41.0244C207.712 40.8786 207.798 40.6963 207.857 40.4775C207.921 40.2588 207.953 39.999 207.953 39.6982C207.953 39.2106 207.851 38.8278 207.646 38.5498C207.445 38.2673 207.137 38.126 206.723 38.126C206.513 38.126 206.322 38.167 206.148 38.249C205.975 38.3311 205.827 38.4382 205.704 38.5703C205.581 38.7025 205.485 38.8506 205.417 39.0146C205.353 39.1787 205.321 39.3451 205.321 39.5137C205.321 39.7461 205.349 39.9785 205.403 40.2109C205.463 40.4388 205.549 40.6462 205.663 40.833C205.782 41.0153 205.925 41.1634 206.094 41.2773C206.267 41.3913 206.467 41.4482 206.695 41.4482ZM212.567 36C212.567 36.5788 212.618 37.0117 212.718 37.2988C212.823 37.5814 212.989 37.7227 213.217 37.7227C213.44 37.7227 213.604 37.5814 213.709 37.2988C213.818 37.0163 213.873 36.5833 213.873 36C213.873 34.8607 213.654 34.291 213.217 34.291C212.989 34.291 212.823 34.4323 212.718 34.7148C212.618 34.9928 212.567 35.4212 212.567 36ZM215.596 35.9863C215.596 36.4785 215.548 36.9206 215.452 37.3125C215.361 37.7044 215.217 38.0348 215.021 38.3037C214.826 38.5726 214.577 38.7799 214.276 38.9258C213.976 39.0671 213.618 39.1377 213.203 39.1377C212.816 39.1377 212.474 39.0671 212.178 38.9258C211.886 38.7799 211.64 38.5726 211.439 38.3037C211.243 38.0348 211.095 37.7044 210.995 37.3125C210.895 36.9206 210.845 36.4785 210.845 35.9863C210.845 35.4941 210.89 35.0544 210.981 34.667C211.073 34.2796 211.214 33.9538 211.405 33.6895C211.601 33.4206 211.847 33.2155 212.144 33.0742C212.44 32.9329 212.793 32.8623 213.203 32.8623C213.595 32.8623 213.939 32.9329 214.235 33.0742C214.536 33.2155 214.787 33.4206 214.987 33.6895C215.188 33.9538 215.338 34.2796 215.438 34.667C215.543 35.0544 215.596 35.4941 215.596 35.9863ZM220.155 33.0059L214.611 43H212.978L218.521 33.0059H220.155ZM219.287 39.9922C219.287 40.571 219.337 41.0039 219.438 41.291C219.542 41.5736 219.709 41.7148 219.937 41.7148C220.16 41.7148 220.324 41.5736 220.429 41.291C220.538 41.0085 220.593 40.5755 220.593 39.9922C220.593 38.8529 220.374 38.2832 219.937 38.2832C219.709 38.2832 219.542 38.4245 219.438 38.707C219.337 38.985 219.287 39.4134 219.287 39.9922ZM222.315 39.9785C222.315 40.4707 222.268 40.9128 222.172 41.3047C222.081 41.6921 221.937 42.0202 221.741 42.2891C221.545 42.5579 221.297 42.7653 220.996 42.9111C220.695 43.0524 220.338 43.123 219.923 43.123C219.535 43.123 219.196 43.0524 218.904 42.9111C218.613 42.7653 218.367 42.5579 218.166 42.2891C217.97 42.0202 217.822 41.6921 217.722 41.3047C217.621 40.9128 217.571 40.4707 217.571 39.9785C217.571 39.4863 217.617 39.0465 217.708 38.6592C217.799 38.2718 217.94 37.946 218.132 37.6816C218.323 37.4128 218.567 37.2077 218.863 37.0664C219.16 36.9251 219.513 36.8545 219.923 36.8545C220.315 36.8545 220.659 36.9251 220.955 37.0664C221.256 37.2077 221.507 37.4128 221.707 37.6816C221.908 37.946 222.058 38.2718 222.158 38.6592C222.263 39.0465 222.315 39.4863 222.315 39.9785ZM233.007 40.3271C233.007 40.7692 232.927 41.1657 232.768 41.5166C232.613 41.863 232.389 42.1569 232.098 42.3984C231.806 42.64 231.451 42.8245 231.031 42.9521C230.612 43.0752 230.14 43.1367 229.616 43.1367C229.11 43.1367 228.636 43.0957 228.194 43.0137C227.757 42.9362 227.39 42.82 227.094 42.665V41.4482C227.249 41.5212 227.424 41.5941 227.62 41.667C227.821 41.7354 228.03 41.7969 228.249 41.8516C228.468 41.9062 228.693 41.9518 228.926 41.9883C229.158 42.0202 229.388 42.0361 229.616 42.0361C230.345 42.0361 230.883 41.8994 231.229 41.626C231.58 41.3525 231.756 40.9606 231.756 40.4502C231.756 40.2041 231.722 39.9899 231.653 39.8076C231.59 39.6253 231.473 39.459 231.305 39.3086C231.141 39.1536 230.92 39.0055 230.642 38.8643C230.364 38.7184 230.013 38.5612 229.589 38.3926C229.183 38.2331 228.83 38.0599 228.529 37.873C228.233 37.6816 227.987 37.4674 227.791 37.2305C227.6 36.9935 227.456 36.7246 227.36 36.4238C227.269 36.123 227.224 35.7812 227.224 35.3984C227.224 34.9974 227.297 34.6396 227.442 34.3252C227.588 34.0107 227.793 33.7464 228.058 33.5322C228.322 33.3135 228.636 33.1471 229.001 33.0332C229.37 32.9193 229.776 32.8623 230.218 32.8623C230.76 32.8623 231.248 32.9147 231.681 33.0195C232.114 33.1198 232.499 33.2497 232.836 33.4092L232.378 34.4756C232.082 34.3434 231.744 34.2295 231.366 34.1338C230.993 34.0335 230.605 33.9834 230.204 33.9834C229.648 33.9834 229.217 34.1133 228.912 34.373C228.607 34.6283 228.454 34.9746 228.454 35.4121C228.454 35.6719 228.488 35.8975 228.557 36.0889C228.625 36.2757 228.739 36.4466 228.898 36.6016C229.058 36.752 229.268 36.8955 229.527 37.0322C229.792 37.1644 230.115 37.3057 230.498 37.4561C230.913 37.6201 231.275 37.7887 231.585 37.9619C231.899 38.1351 232.161 38.3311 232.371 38.5498C232.581 38.7686 232.738 39.0215 232.843 39.3086C232.952 39.5957 233.007 39.9352 233.007 40.3271ZM237.812 43.1367C237.311 43.1367 236.853 43.0524 236.438 42.8838C236.024 42.7152 235.666 42.4691 235.365 42.1455C235.069 41.8219 234.839 41.4209 234.675 40.9424C234.511 40.4639 234.429 39.917 234.429 39.3018C234.429 38.682 234.504 38.1283 234.654 37.6406C234.805 37.153 235.017 36.7406 235.29 36.4033C235.563 36.0615 235.889 35.8018 236.268 35.624C236.65 35.4463 237.072 35.3574 237.532 35.3574C237.983 35.3574 238.389 35.4395 238.749 35.6035C239.109 35.763 239.414 35.9909 239.665 36.2871C239.916 36.5788 240.107 36.932 240.239 37.3467C240.376 37.7568 240.444 38.2126 240.444 38.7139V39.4863H235.714C235.737 40.3659 235.921 41.013 236.268 41.4277C236.618 41.8424 237.138 42.0498 237.826 42.0498C238.059 42.0498 238.273 42.0384 238.469 42.0156C238.669 41.9928 238.861 41.9609 239.043 41.9199C239.23 41.8743 239.41 41.8197 239.583 41.7559C239.756 41.6875 239.932 41.6123 240.109 41.5303V42.6377C239.927 42.7243 239.747 42.7995 239.569 42.8633C239.396 42.9271 239.216 42.9795 239.029 43.0205C238.847 43.0615 238.656 43.0911 238.455 43.1094C238.259 43.1276 238.045 43.1367 237.812 43.1367ZM237.505 36.3896C236.985 36.3896 236.573 36.5674 236.268 36.9229C235.967 37.2783 235.791 37.7956 235.741 38.4746H239.104C239.104 38.1647 239.073 37.8822 239.009 37.627C238.95 37.3672 238.854 37.1462 238.722 36.9639C238.594 36.7816 238.43 36.6403 238.229 36.54C238.029 36.4398 237.787 36.3896 237.505 36.3896ZM245.305 43.1367C244.803 43.1367 244.345 43.0524 243.931 42.8838C243.516 42.7152 243.158 42.4691 242.857 42.1455C242.561 41.8219 242.331 41.4209 242.167 40.9424C242.003 40.4639 241.921 39.917 241.921 39.3018C241.921 38.682 241.996 38.1283 242.146 37.6406C242.297 37.153 242.509 36.7406 242.782 36.4033C243.056 36.0615 243.382 35.8018 243.76 35.624C244.143 35.4463 244.564 35.3574 245.024 35.3574C245.476 35.3574 245.881 35.4395 246.241 35.6035C246.601 35.763 246.907 35.9909 247.157 36.2871C247.408 36.5788 247.599 36.932 247.731 37.3467C247.868 37.7568 247.937 38.2126 247.937 38.7139V39.4863H243.206C243.229 40.3659 243.413 41.013 243.76 41.4277C244.111 41.8424 244.63 42.0498 245.318 42.0498C245.551 42.0498 245.765 42.0384 245.961 42.0156C246.161 41.9928 246.353 41.9609 246.535 41.9199C246.722 41.8743 246.902 41.8197 247.075 41.7559C247.248 41.6875 247.424 41.6123 247.602 41.5303V42.6377C247.419 42.7243 247.239 42.7995 247.062 42.8633C246.888 42.9271 246.708 42.9795 246.521 43.0205C246.339 43.0615 246.148 43.0911 245.947 43.1094C245.751 43.1276 245.537 43.1367 245.305 43.1367ZM244.997 36.3896C244.478 36.3896 244.065 36.5674 243.76 36.9229C243.459 37.2783 243.284 37.7956 243.233 38.4746H246.597C246.597 38.1647 246.565 37.8822 246.501 37.627C246.442 37.3672 246.346 37.1462 246.214 36.9639C246.086 36.7816 245.922 36.6403 245.722 36.54C245.521 36.4398 245.28 36.3896 244.997 36.3896ZM254.465 41.9951H254.41C254.31 42.1501 254.191 42.2982 254.055 42.4395C253.923 42.5762 253.768 42.6969 253.59 42.8018C253.417 42.9066 253.221 42.9886 253.002 43.0479C252.783 43.1071 252.537 43.1367 252.264 43.1367C251.84 43.1367 251.452 43.0547 251.102 42.8906C250.751 42.7266 250.45 42.4827 250.199 42.1592C249.949 41.8311 249.755 41.4255 249.618 40.9424C249.481 40.4593 249.413 39.8988 249.413 39.2607C249.413 38.6182 249.481 38.0553 249.618 37.5723C249.755 37.0846 249.949 36.6768 250.199 36.3486C250.45 36.0205 250.751 35.7744 251.102 35.6104C251.452 35.4417 251.84 35.3574 252.264 35.3574C252.533 35.3574 252.776 35.387 252.995 35.4463C253.214 35.5055 253.41 35.5853 253.583 35.6855C253.761 35.7858 253.918 35.902 254.055 36.0342C254.191 36.1663 254.31 36.3053 254.41 36.4512H254.492C254.479 36.2962 254.465 36.1481 254.451 36.0068C254.442 35.8883 254.433 35.7676 254.424 35.6445C254.415 35.5169 254.41 35.4167 254.41 35.3438V32.3633H255.654V43H254.649L254.465 41.9951ZM252.503 42.1045C252.849 42.1045 253.141 42.0521 253.378 41.9473C253.619 41.8424 253.813 41.6829 253.959 41.4688C254.109 41.2546 254.219 40.988 254.287 40.6689C254.36 40.3454 254.401 39.9694 254.41 39.541V39.2607C254.41 38.8005 254.378 38.3926 254.314 38.0371C254.255 37.6771 254.15 37.3763 254 37.1348C253.854 36.8887 253.658 36.7041 253.412 36.5811C253.166 36.4535 252.858 36.3896 252.489 36.3896C251.874 36.3896 251.421 36.638 251.129 37.1348C250.842 37.6315 250.698 38.3447 250.698 39.2744C250.698 40.2269 250.842 40.9378 251.129 41.4072C251.421 41.8721 251.879 42.1045 252.503 42.1045ZM262.524 40.9424C262.524 41.307 262.458 41.626 262.326 41.8994C262.194 42.1729 262.003 42.403 261.752 42.5898C261.506 42.7721 261.207 42.9089 260.856 43C260.506 43.0911 260.111 43.1367 259.674 43.1367C259.177 43.1367 258.751 43.0957 258.396 43.0137C258.04 42.9362 257.728 42.82 257.459 42.665V41.5303C257.6 41.6032 257.757 41.6761 257.931 41.749C258.104 41.8174 258.286 41.8789 258.478 41.9336C258.669 41.9883 258.865 42.0339 259.065 42.0703C259.271 42.1022 259.473 42.1182 259.674 42.1182C259.97 42.1182 260.221 42.0931 260.426 42.043C260.635 41.9928 260.804 41.9222 260.932 41.8311C261.064 41.7354 261.16 41.6214 261.219 41.4893C261.278 41.3525 261.308 41.2021 261.308 41.0381C261.308 40.8968 261.285 40.7692 261.239 40.6553C261.194 40.5413 261.109 40.4297 260.986 40.3203C260.868 40.2064 260.704 40.0924 260.494 39.9785C260.285 39.8646 260.016 39.737 259.688 39.5957C259.359 39.4544 259.063 39.3154 258.799 39.1787C258.539 39.042 258.318 38.8893 258.136 38.7207C257.953 38.5521 257.812 38.3584 257.712 38.1396C257.616 37.9163 257.568 37.652 257.568 37.3467C257.568 37.0277 257.63 36.7451 257.753 36.499C257.881 36.2484 258.058 36.0387 258.286 35.8701C258.514 35.7015 258.787 35.5739 259.106 35.4873C259.425 35.4007 259.781 35.3574 260.173 35.3574C260.615 35.3574 261.018 35.4053 261.383 35.501C261.752 35.5967 262.101 35.722 262.429 35.877L261.998 36.8818C261.702 36.7497 261.396 36.6357 261.082 36.54C260.772 36.4398 260.455 36.3896 260.132 36.3896C259.667 36.3896 259.323 36.4671 259.1 36.6221C258.876 36.7725 258.765 36.9889 258.765 37.2715C258.765 37.431 258.79 37.57 258.84 37.6885C258.895 37.807 258.986 37.9186 259.113 38.0234C259.241 38.1283 259.412 38.2354 259.626 38.3447C259.84 38.4495 260.107 38.568 260.426 38.7002C260.754 38.8369 261.046 38.9736 261.301 39.1104C261.561 39.2471 261.782 39.402 261.964 39.5752C262.146 39.7438 262.285 39.9375 262.381 40.1562C262.477 40.375 262.524 40.637 262.524 40.9424Z" fill="#007C6E"/>
<circle cx="177" cy="37" r="8" fill="#00B59C"/>
<defs>
<linearGradient id="paint0_linear" x1="8" y1="0.4" x2="8" y2="18" gradientUnits="userSpaceOnUse">
<stop stop-color="#00B59C"/>
<stop offset="1" stop-color="#8EF8AB"/>
</linearGradient>
</defs>
</svg>
