<svg width="265" height="188" viewBox="0 0 265 188" fill="none" xmlns="http://www.w3.org/2000/svg">
<path fill-rule="evenodd" clip-rule="evenodd" d="M194.59 44.4926H86.0278V59.8097C73.8835 64.6766 63.3821 71.4365 55.3408 79.621C51.2862 83.7479 47.924 88.169 45.2974 92.7935H38.6471V113.879C38.6246 114.158 38.6046 114.436 38.587 114.715C37.7923 127.308 42.0467 139.802 50.8532 150.738C59.6597 161.674 72.6548 170.6 88.3205 176.474C103.986 182.348 121.676 184.927 139.324 183.91C156.966 182.894 173.837 178.326 187.969 170.739L196.272 178.677C212.075 170.298 223.746 158.572 229.613 145.18V121.774L224.934 121.965C225.708 112.919 225.669 103.705 225.181 97.8537L212.41 101.431C210.354 97.5813 207.797 93.8707 204.767 90.3483L198.633 93.0227C194.005 87.6163 188.315 82.7086 181.736 78.4485L194.436 68.4667C192.4 67.1531 190.288 65.9077 188.108 64.733H194.59V44.4926Z" fill="url(#paint0_linear)"/>
<path d="M199.605 69.3554C194.93 63.8626 188.982 58.2321 182.302 53.9158L119.667 103.841L199.605 69.3554Z" fill="#00B59C"/>
<path d="M216.529 85.84C214.242 79.0493 210.468 72.5573 205.346 66.6021L125.621 101.842L216.529 85.84Z" fill="#FFDD0F"/>
<path d="M221.306 119.516C226.042 108.233 226.487 96.2576 222.597 84.812L131.751 100.461L221.306 119.516Z" fill="#FFC01B"/>
<path d="M196.343 154.786C212.174 146.392 223.866 134.646 229.744 121.23L139.906 101.381L196.343 154.786Z" fill="#F1A549"/>
<path d="M194.777 44.6818C181.631 36.2036 165.37 30.5634 147.89 28.4197C130.411 26.276 112.436 27.7175 96.0646 32.5757C79.6933 37.4339 65.6015 45.5083 55.4352 55.8558C45.2689 66.2033 39.4477 78.3968 38.6517 91.0119C37.8557 103.627 42.1176 116.143 50.9396 127.098C59.7617 138.054 72.7797 146.995 88.4732 152.88C104.167 158.764 121.888 161.348 139.567 160.329C157.245 159.311 174.152 154.732 188.312 147.128L132.026 94L194.777 44.6818Z" fill="url(#paint1_linear)"/>
<ellipse rx="32.3348" ry="27.3555" transform="matrix(0.926046 -0.377412 -0.62661 -0.779333 134.032 93.1956)" fill="url(#paint2_linear)"/>
<path fill-rule="evenodd" clip-rule="evenodd" d="M116.891 90.2769C133.429 83.537 154.509 87.6182 163.976 99.3924C164.764 100.373 165.447 101.375 166.027 102.394C163.231 107.333 158.169 111.664 151.174 114.515C134.636 121.254 113.556 117.173 104.089 105.399C103.301 104.419 102.618 103.416 102.038 102.398C104.834 97.4583 109.896 93.1278 116.891 90.2769Z" fill="#FAFAFA"/>
<defs>
<linearGradient id="paint0_linear" x1="38.4929" y1="44.4926" x2="231.349" y2="46.9331" gradientUnits="userSpaceOnUse">
<stop stop-color="#9BEFD7"/>
<stop offset="0.473958" stop-color="#8BF7AB"/>
<stop offset="1" stop-color="#FFD465"/>
</linearGradient>
<linearGradient id="paint1_linear" x1="164.818" y1="136.6" x2="119.677" y2="18.2199" gradientUnits="userSpaceOnUse">
<stop stop-color="#00B59C"/>
<stop offset="1" stop-color="#8EF8AB"/>
</linearGradient>
<linearGradient id="paint2_linear" x1="32.3348" y1="-27.3555" x2="-21.6201" y2="36.4203" gradientUnits="userSpaceOnUse">
<stop stop-color="#20E2D7"/>
<stop offset="1" stop-color="#F9FEA5"/>
</linearGradient>
</defs>
</svg>
