<svg xmlns="http://www.w3.org/2000/svg" width="33" height="33" fill="none" xmlns:v="https://vecta.io/nano"><path d="M33 16.5C33 25.613 25.613 33 16.5 33S0 25.613 0 16.5 7.387 0 16.5 0 33 7.387 33 16.5z" fill="#00aa96"/><path d="M22.186 9.075H10.815c-.959 0-1.74.759-1.74 1.699v11.154c0 .941.781 1.7 1.74 1.7h9.623l-.45-1.526 1.086.982 1.027.924 1.824 1.567v-14.8c0-.941-.781-1.699-1.74-1.699zM18.91 19.85l-.56-.668c1.112-.305 1.536-.982 1.536-.982a4.91 4.91 0 0 1-.976.487c-.424.173-.832.289-1.23.355a6.11 6.11 0 0 1-2.198-.008c-.484-.091-.899-.223-1.247-.355a5.05 5.05 0 0 1-.619-.28c-.026-.017-.051-.025-.076-.041-.017-.008-.025-.017-.034-.025l-.238-.14s.407.66 1.485.973l-.569.685c-1.875-.058-2.588-1.254-2.588-1.254 0-2.657 1.222-4.81 1.222-4.81 1.222-.891 2.385-.866 2.385-.866l.085.099c-1.527.429-2.232 1.081-2.232 1.081l.501-.239c.908-.388 1.629-.495 1.926-.52.051-.008.093-.017.144-.017.518-.066 1.103-.082 1.714-.017a7.06 7.06 0 0 1 2.554.792s-.67-.619-2.113-1.048l.119-.132s1.162-.025 2.384.866a10.82 10.82 0 0 0 1.222 4.81s-.721 1.196-2.597 1.254zm-3.946-3.853c-.484 0-.866.413-.866.916s.39.916.866.916c.484 0 .866-.412.866-.916.008-.503-.382-.916-.866-.916zm3.097 0c-.484 0-.866.413-.866.916s.39.916.866.916c.484 0 .866-.412.866-.916s-.382-.916-.866-.916z" fill="#ebfff3"/></svg>