<svg xmlns="http://www.w3.org/2000/svg" width="265" height="188" fill="none" xmlns:v="https://vecta.io/nano"><path fill-rule="evenodd" d="M194.59 44.493H86.028V59.81c-12.144 4.867-22.646 11.627-30.687 19.811-4.055 4.127-7.417 8.548-10.043 13.173h-6.65v21.086l-.06.836c-.795 12.593 3.46 25.087 12.266 36.023s21.802 19.862 37.467 25.736 33.356 8.453 51.004 7.436c17.642-1.016 34.513-5.584 48.645-13.171l8.303 7.938c15.803-8.379 27.474-20.105 33.341-33.497v-23.406l-4.679.191c.774-9.046.735-18.26.247-24.111l-12.771 3.577c-2.056-3.85-4.613-7.56-7.643-11.083l-6.134 2.674c-4.628-5.406-10.318-10.314-16.897-14.574l12.7-9.982c-2.036-1.314-4.148-2.559-6.328-3.734h6.482v-20.24z" fill="url(#A)"/><path d="M199.605 69.355c-4.675-5.493-10.623-11.123-17.303-15.44l-62.635 49.925 79.938-34.486z" fill="#00b59c"/><path d="M216.529 85.84c-2.287-6.791-6.061-13.283-11.183-19.238l-79.725 35.24 90.908-16.002z" fill="#ffdd0f"/><path d="M221.306 119.516c4.736-11.283 5.181-23.258 1.291-34.704l-90.846 15.649 89.555 19.055z" fill="#ffc01b"/><path d="M196.343 154.786c15.831-8.394 27.523-20.14 33.401-33.556l-89.838-19.849 56.437 53.405z" fill="#f1a549"/><path d="M194.777 44.682c-13.146-8.478-29.407-14.118-46.887-16.262s-35.454-.702-51.825 4.156-30.463 12.933-40.629 23.28-15.988 22.541-16.784 35.156 3.466 25.131 12.288 36.086 21.84 19.897 37.534 25.782 33.415 8.468 51.094 7.449 34.585-5.597 48.745-13.201L132.026 94l62.751-49.318z" fill="url(#B)"/><ellipse rx="32.335" ry="27.356" transform="matrix(.926046 -.377412 -.62661 -.779333 134.032 93.1956)" fill="url(#C)"/><path fill-rule="evenodd" d="M116.891 90.277c16.538-6.74 37.618-2.659 47.085 9.115.788.981 1.471 1.983 2.051 3.002-2.796 4.939-7.858 9.27-14.853 12.121-16.538 6.739-37.618 2.658-47.085-9.116a22.83 22.83 0 0 1-2.051-3.001c2.796-4.94 7.858-9.27 14.853-12.121z" fill="#fafafa"/><defs><linearGradient id="A" x1="38.493" y1="44.493" x2="231.349" y2="46.933" gradientUnits="userSpaceOnUse"><stop stop-color="#9befd7"/><stop offset=".474" stop-color="#8bf7ab"/><stop offset="1" stop-color="#ffd465"/></linearGradient><linearGradient id="B" x1="164.818" y1="136.6" x2="119.677" y2="18.22" gradientUnits="userSpaceOnUse"><stop stop-color="#00b59c"/><stop offset="1" stop-color="#8ef8ab"/></linearGradient><linearGradient id="C" x1="32.335" y1="-27.355" x2="-21.62" y2="36.42" gradientUnits="userSpaceOnUse"><stop stop-color="#20e2d7"/><stop offset="1" stop-color="#f9fea5"/></linearGradient></defs></svg>