<svg xmlns="http://www.w3.org/2000/svg" width="299" height="76" fill="none" xmlns:v="https://vecta.io/nano"><path d="M23.415 15l3.555-8.203h-4.594V5.02h6.891v1.326L25.623 15h-2.208zm13.563 0h-6.706v-1.47l2.351-2.536.807-.882a7.43 7.43 0 0 0 .622-.786 3.53 3.53 0 0 0 .403-.779 2.49 2.49 0 0 0 .143-.854c0-.337-.102-.599-.308-.786s-.472-.28-.813-.28c-.36 0-.706.089-1.039.267s-.681.431-1.046.759l-1.149-1.36.643-.533c.223-.173.469-.326.738-.458s.565-.237.889-.314.686-.123 1.087-.123c.478 0 .907.066 1.285.198a2.76 2.76 0 0 1 .978.567 2.37 2.37 0 0 1 .615.882c.146.346.219.736.219 1.169a3.15 3.15 0 0 1-.205 1.128c-.137.355-.324.706-.561 1.053s-.513.684-.827 1.025l-.998 1.032-1.203 1.21v.096h4.074V15zm2.598-7c0 .579.05 1.012.15 1.299s.271.424.499.424.387-.141.492-.424.164-.716.164-1.299c0-1.139-.219-1.709-.656-1.709-.228 0-.394.141-.499.424s-.15.706-.15 1.285zm3.028-.014c0 .492-.048.934-.143 1.326s-.235.722-.431.991-.444.476-.745.622-.658.212-1.073.212c-.387 0-.729-.071-1.025-.212a2.06 2.06 0 0 1-.738-.622c-.196-.269-.344-.599-.444-.991s-.15-.834-.15-1.326.046-.932.137-1.319.232-.713.424-.978.442-.474.738-.615.649-.212 1.06-.212c.392 0 .736.071 1.032.212a1.97 1.97 0 0 1 .752.615c.2.264.351.59.451.978s.157.827.157 1.319zm4.56-2.98L41.619 15h-1.634l5.544-9.994h1.634zm-.868 6.986c0 .579.05 1.012.15 1.299s.271.424.499.424.387-.141.492-.424.164-.716.164-1.299c0-1.139-.219-1.709-.656-1.709-.228 0-.394.141-.499.424s-.15.706-.15 1.285zm3.028-.014c0 .492-.048.934-.144 1.326s-.235.716-.431.984-.444.476-.745.622-.659.212-1.073.212c-.387 0-.727-.071-1.019-.212a2.06 2.06 0 0 1-.738-.622 2.88 2.88 0 0 1-.444-.984 5.36 5.36 0 0 1-.15-1.326c0-.492.046-.932.137-1.319s.232-.713.424-.978.435-.474.731-.615.649-.212 1.06-.212c.392 0 .736.071 1.032.212a1.97 1.97 0 0 1 .752.615c.201.264.351.59.451.978a5.06 5.06 0 0 1 .157 1.319zM57.663 15h-1.278V6.127h-2.858V5.006h6.986v1.121h-2.851V15zm6.877-7.643l.444.021c.164.009.305.025.424.048l-.164 1.148-.396-.055c-.132-.018-.258-.027-.376-.027-.287 0-.549.059-.786.178s-.442.28-.615.499-.301.474-.397.779a3.46 3.46 0 0 0-.137 1.005V15h-1.244V7.494h1.012l.15 1.374h.055l.362-.567c.132-.182.278-.342.438-.479s.346-.253.547-.335a1.71 1.71 0 0 1 .684-.13zm5.312 7.779c-.501 0-.959-.084-1.374-.253a2.98 2.98 0 0 1-1.073-.738c-.296-.324-.526-.725-.69-1.203s-.246-1.025-.246-1.641.075-1.174.226-1.661.362-.9.636-1.237.599-.602.978-.779.804-.267 1.265-.267c.451 0 .857.082 1.217.246a2.52 2.52 0 0 1 .916.684 3 3 0 0 1 .574 1.06c.137.41.205.866.205 1.367v.772h-4.731c.023.88.207 1.527.554 1.941s.87.622 1.559.622a5.58 5.58 0 0 0 .643-.034c.2-.023.392-.055.574-.096s.367-.1.54-.164l.526-.226v1.107l-.54.226a4.11 4.11 0 0 1-.54.157c-.182.041-.374.071-.574.089s-.41.027-.642.027zm-.308-6.747c-.519 0-.932.178-1.237.533s-.476.873-.526 1.552h3.363c0-.31-.032-.592-.096-.848s-.155-.481-.287-.663a1.3 1.3 0 0 0-.492-.424c-.201-.1-.442-.15-.725-.15zM78.608 15l-.253-1.039h-.055a4.59 4.59 0 0 1-.451.533c-.15.146-.314.267-.492.362a2.19 2.19 0 0 1-.595.212c-.219.045-.472.068-.759.068a2.65 2.65 0 0 1-.868-.137 1.84 1.84 0 0 1-.69-.403c-.191-.187-.342-.419-.451-.697s-.164-.615-.164-.998c0-.747.262-1.322.786-1.723s1.331-.62 2.406-.656l1.258-.048v-.472c0-.305-.034-.561-.103-.766s-.16-.369-.287-.492-.278-.219-.465-.273-.392-.082-.629-.082a3.33 3.33 0 0 0-1.06.164 6.79 6.79 0 0 0-.937.396l-.437-.937c.337-.182.713-.337 1.128-.465s.85-.191 1.306-.191c.465 0 .866.048 1.203.144s.622.239.841.444.39.458.499.772.164.695.164 1.142V15h-.895zm-2.283-.868c.278 0 .535-.043.773-.13a1.67 1.67 0 0 0 .615-.39c.173-.178.308-.399.403-.663s.15-.583.15-.943v-.677l-.977.048c-.41.018-.754.064-1.032.137s-.501.175-.67.308-.282.285-.356.472-.109.39-.109.622c0 .419.109.727.328.923s.515.294.875.294zm9.981-1.189c0 .365-.066.684-.198.957a1.86 1.86 0 0 1-.574.69c-.246.182-.545.319-.895.41s-.745.137-1.183.137a5.76 5.76 0 0 1-1.278-.123 3.25 3.25 0 0 1-.937-.349V13.53l.472.219.547.185a6.11 6.11 0 0 0 .588.137c.205.032.408.048.608.048.296 0 .547-.025.752-.075s.378-.121.506-.212a.85.85 0 0 0 .287-.342c.059-.137.089-.287.089-.451a1.02 1.02 0 0 0-.068-.383c-.046-.114-.13-.226-.253-.335s-.283-.228-.492-.342-.479-.242-.807-.383l-.889-.417c-.26-.137-.481-.289-.663-.458s-.324-.362-.424-.581-.144-.488-.144-.793a1.87 1.87 0 0 1 .185-.848c.128-.251.305-.46.533-.629s.501-.296.82-.383a4.07 4.07 0 0 1 1.066-.13c.442 0 .845.048 1.21.144a5.93 5.93 0 0 1 1.046.376l-.431 1.005a7.87 7.87 0 0 0-.916-.342 3.07 3.07 0 0 0-.95-.15c-.465 0-.809.077-1.032.232s-.335.367-.335.649c0 .16.025.299.075.417s.146.23.273.335a2.87 2.87 0 0 0 .513.321l.8.356.875.41a2.95 2.95 0 0 1 .663.465 1.73 1.73 0 0 1 .417.581c.096.219.144.481.144.786zM92.991 15l-.185-1.005h-.068a2.16 2.16 0 0 1-.41.513 2.34 2.34 0 0 1-.513.356c-.187.091-.385.159-.595.205a3.02 3.02 0 0 1-.643.068 3.46 3.46 0 0 1-1.094-.157c-.314-.105-.576-.269-.786-.492a2.19 2.19 0 0 1-.478-.854c-.105-.346-.157-.759-.157-1.237V7.494h1.244v4.833c0 .593.121 1.037.362 1.333s.615.444 1.121.444c.369 0 .679-.059.93-.178s.451-.292.602-.52.264-.517.328-.854.103-.725.103-1.162V7.494h1.244V15h-1.005zm6.631-7.643l.444.021a3.22 3.22 0 0 1 .424.048l-.164 1.148-.396-.055c-.132-.018-.257-.027-.376-.027-.287 0-.549.059-.786.178s-.442.28-.615.499-.301.474-.396.779-.137.636-.137 1.005V15h-1.244V7.494h1.012l.15 1.374h.055l.362-.567a2.76 2.76 0 0 1 .438-.479c.164-.141.346-.253.547-.335a1.71 1.71 0 0 1 .684-.13zm1.224.137h1.292l1.469 4.19.192.574.184.602.151.581.089.52h.041l.109-.465.164-.622.192-.656.177-.547 1.361-4.177h1.285l-2.967 8.483c-.128.369-.267.7-.417.991s-.317.547-.513.752-.426.362-.69.472-.579.171-.944.171c-.236 0-.442-.014-.615-.041l-.444-.075v-.991a2.69 2.69 0 0 0 .362.055c.146.018.299.027.458.027.219 0 .408-.027.568-.082a1.2 1.2 0 0 0 .417-.226 1.34 1.34 0 0 0 .3-.369 3 3 0 0 0 .233-.499l.389-1.094-2.843-7.574z" fill="#007c6e"/><circle cx="8" cy="10" r="8" fill="url(#A)"/><path d="M194.088 8.615c.428 0 .827.066 1.196.198s.691.326.964.581a2.65 2.65 0 0 1 .643.957c.155.378.232.813.232 1.306 0 .542-.084 1.03-.253 1.463a2.91 2.91 0 0 1-.745 1.094c-.328.296-.736.524-1.224.684s-1.039.239-1.668.239a8.08 8.08 0 0 1-.745-.034 6.82 6.82 0 0 1-.711-.102c-.223-.041-.437-.096-.642-.164a3.33 3.33 0 0 1-.547-.239v-1.825a4.17 4.17 0 0 0 .554.26l.649.205.684.137c.227.032.444.048.649.048.611 0 1.076-.125 1.395-.376s.478-.659.478-1.21c0-.492-.157-.866-.472-1.121s-.79-.39-1.442-.39a3.9 3.9 0 0 0-.383.021l-.396.055-.369.075-.308.075-.841-.451.376-5.093h5.277v1.791h-3.445l-.164 1.962.506-.096c.196-.032.447-.048.752-.048zM199.864 8c0 .579.05 1.012.151 1.299s.271.424.499.424c.223 0 .387-.141.492-.424s.164-.716.164-1.299c0-1.139-.219-1.709-.656-1.709-.228 0-.395.141-.499.424s-.151.706-.151 1.285zm3.029-.014c0 .492-.048.934-.144 1.326a2.7 2.7 0 0 1-.431.991 1.97 1.97 0 0 1-.745.622c-.301.141-.658.212-1.073.212-.387 0-.729-.071-1.025-.212s-.538-.353-.739-.622a2.87 2.87 0 0 1-.444-.991c-.1-.392-.15-.834-.15-1.326s.045-.932.136-1.319.233-.713.424-.978a1.93 1.93 0 0 1 .738-.615c.297-.141.65-.212 1.06-.212.392 0 .736.071 1.032.212s.552.346.752.615.351.59.451.978a5.05 5.05 0 0 1 .158 1.319zm4.559-2.98L201.908 15h-1.634l5.544-9.994h1.634zm-.868 6.986c0 .579.05 1.012.15 1.299s.272.424.499.424.388-.141.493-.424.164-.716.164-1.299c0-1.139-.219-1.709-.657-1.709-.227 0-.394.141-.499.424s-.15.706-.15 1.285zm3.028-.014c0 .492-.048.934-.143 1.326a2.7 2.7 0 0 1-.431.984 1.97 1.97 0 0 1-.745.622c-.301.141-.659.212-1.073.212-.388 0-.727-.071-1.019-.212a2.06 2.06 0 0 1-.738-.622c-.196-.269-.344-.597-.444-.984s-.151-.834-.151-1.326.046-.932.137-1.319.232-.713.424-.978a1.87 1.87 0 0 1 .731-.615c.296-.141.65-.212 1.06-.212.392 0 .736.071 1.032.212a1.97 1.97 0 0 1 .752.615c.2.264.351.59.451.978s.157.827.157 1.319zM218.54 15h-1.203V8.759 8.13l.014-.663.02-.636.021-.54-.205.212-.185.171-.191.178-.247.212-1.011.827-.657-.841 2.619-2.044h1.025V15zm11.307 0h-1.272v-4.662h-4.553V15h-1.271V5.006h1.271v4.211h4.553V5.006h1.272V15zm3.794 0h-1.245V7.494h1.245V15zm-1.34-9.536c0-.273.068-.472.205-.595a.76.76 0 0 1 .519-.185c.101 0 .194.016.281.048s.168.073.232.137.121.146.157.246.062.212.062.349c0 .264-.073.463-.219.595s-.312.191-.513.191-.378-.064-.519-.191-.205-.326-.205-.595zM237.394 15l-2.564-7.506h1.285l1.361 4.177.177.581.205.725.185.697.116.499h.048l.116-.499.185-.697.205-.725.178-.581 1.36-4.177h1.285L238.973 15h-1.579zm8.305.137c-.501 0-.959-.084-1.374-.253s-.772-.415-1.073-.738-.526-.725-.69-1.203-.247-1.025-.247-1.641.076-1.174.226-1.661.362-.9.636-1.237.599-.602.977-.779a2.97 2.97 0 0 1 1.265-.267c.451 0 .857.082 1.217.246s.665.387.916.684.442.645.574 1.06.205.866.205 1.367v.772h-4.73c.022.88.207 1.527.553 1.941s.871.622 1.559.622c.232 0 .447-.011.642-.034a5.42 5.42 0 0 0 .575-.096c.187-.046.367-.1.54-.164l.526-.226v1.107l-.54.226a4.09 4.09 0 0 1-.54.157 4.47 4.47 0 0 1-.574.089 6.98 6.98 0 0 1-.643.027zm-.307-6.747c-.52 0-.932.178-1.238.533-.3.355-.476.873-.526 1.552h3.363c0-.31-.032-.592-.095-.848s-.155-.481-.288-.663c-.127-.182-.291-.324-.492-.424s-.442-.15-.724-.15zm13.904 3.937c0 .442-.08.839-.239 1.19a2.41 2.41 0 0 1-.67.882c-.292.242-.647.426-1.067.554s-.891.185-1.415.185c-.506 0-.98-.041-1.422-.123s-.804-.194-1.1-.349v-1.217l.526.219.629.185.677.137a5.06 5.06 0 0 0 .69.048c.729 0 1.267-.137 1.614-.41s.526-.665.526-1.176c0-.246-.034-.46-.103-.643a1.2 1.2 0 0 0-.348-.499c-.164-.155-.385-.303-.663-.444s-.629-.303-1.053-.472a6.56 6.56 0 0 1-1.06-.52c-.296-.191-.542-.406-.738-.643a2.47 2.47 0 0 1-.431-.807c-.091-.301-.136-.643-.136-1.025 0-.401.073-.759.218-1.073a2.19 2.19 0 0 1 .616-.793c.264-.219.578-.385.943-.499s.775-.171 1.217-.171c.542 0 1.03.052 1.463.157a5.71 5.71 0 0 1 1.155.39l-.458 1.066a6.22 6.22 0 0 0-1.012-.342 4.46 4.46 0 0 0-1.162-.15c-.556 0-.986.13-1.292.39s-.458.602-.458 1.039c0 .26.034.485.103.677a1.36 1.36 0 0 0 .342.513c.159.15.369.294.628.431.265.132.588.273.971.424.415.164.777.333 1.087.506s.577.369.786.588a2.15 2.15 0 0 1 .472.759c.109.287.164.627.164 1.018zm4.108 1.791c.082 0 .173-.005.274-.014l.301-.034.259-.048.185-.048v.943a1.75 1.75 0 0 1-.226.082c-.091.027-.191.05-.301.068s-.223.039-.341.048-.235.021-.349.021c-.282 0-.545-.036-.786-.109a1.48 1.48 0 0 1-.629-.376c-.173-.178-.31-.417-.41-.718s-.151-.688-.151-1.148V8.431h-1.059v-.554l1.059-.533.534-1.572h.717v1.723h1.887v.937h-1.887v4.355c0 .442.071.775.212.998.146.223.383.335.711.335zm6.706.882l-.253-1.039h-.054a4.69 4.69 0 0 1-.451.533 2.22 2.22 0 0 1-.493.362c-.177.096-.376.166-.594.212a3.76 3.76 0 0 1-.759.068c-.315 0-.604-.046-.868-.137a1.84 1.84 0 0 1-.691-.403c-.191-.187-.342-.419-.451-.697s-.164-.615-.164-.998c0-.747.262-1.322.786-1.723s1.331-.62 2.406-.656l1.258-.048v-.472c0-.305-.034-.561-.102-.766s-.16-.369-.287-.492-.278-.219-.465-.273-.392-.082-.629-.082c-.378 0-.732.055-1.06.164-.323.109-.635.242-.936.396l-.438-.937a6.19 6.19 0 0 1 1.128-.465c.415-.128.85-.191 1.306-.191.465 0 .866.048 1.203.144s.622.239.841.444.389.458.499.772.164.695.164 1.142V15h-.896zm-2.283-.868a2.24 2.24 0 0 0 .773-.13c.237-.087.442-.216.615-.39a1.83 1.83 0 0 0 .403-.663c.1-.269.151-.583.151-.943v-.677l-.978.048c-.41.018-.754.064-1.032.137s-.502.175-.67.308-.283.285-.356.472-.109.39-.109.622c0 .419.109.727.328.923s.515.294.875.294zm6.638-3.008l.923-1.162 2.003-2.468h1.442l-2.741 3.247L279.018 15h-1.429l-2.297-3.445-.745.56V15h-1.231V4.363h1.231v4.881l-.109 1.88h.027zM281.506 15h-1.244V7.494h1.244V15zm-1.34-9.536c0-.273.068-.472.205-.595s.315-.185.52-.185c.1 0 .193.016.28.048a.54.54 0 0 1 .232.137.62.62 0 0 1 .158.246c.041.096.061.212.061.349 0 .264-.073.463-.219.595s-.312.191-.512.191c-.205 0-.379-.064-.52-.191s-.205-.326-.205-.595zM288.574 15v-4.833c0-.592-.121-1.037-.362-1.333s-.611-.444-1.121-.444c-.369 0-.679.059-.93.178s-.453.294-.608.526-.26.517-.328.854-.096.725-.096 1.162V15h-1.244V7.494h1.011l.178 1.012h.069a2.12 2.12 0 0 1 .403-.506 2.37 2.37 0 0 1 .519-.362c.187-.096.386-.166.595-.212a3.02 3.02 0 0 1 .643-.068c.834 0 1.46.219 1.88.656s.635 1.128.635 2.085V15h-1.244zm9.338-7.506v.772l-1.347.185c.128.16.235.365.322.615a2.54 2.54 0 0 1 .13.841 2.77 2.77 0 0 1-.164.964 1.99 1.99 0 0 1-.486.759c-.214.214-.481.383-.8.506s-.69.178-1.114.178h-.301c-.1-.005-.182-.014-.246-.027a2.31 2.31 0 0 0-.232.157 1.34 1.34 0 0 0-.205.191 1.12 1.12 0 0 0-.151.246.81.81 0 0 0-.054.301c0 .123.027.223.082.301s.127.13.218.171.208.068.335.082.262.021.404.021h1.203c.424 0 .781.055 1.073.164s.529.248.711.431.321.399.403.649a2.47 2.47 0 0 1 .123.786c0 .401-.075.761-.225 1.08a2.02 2.02 0 0 1-.677.807c-.305.223-.693.394-1.162.513s-1.014.178-1.648.178a5.07 5.07 0 0 1-1.278-.144c-.364-.096-.667-.235-.909-.417a1.77 1.77 0 0 1-.547-.663c-.118-.255-.178-.545-.178-.868 0-.274.044-.515.13-.725a1.74 1.74 0 0 1 .363-.533 1.91 1.91 0 0 1 .519-.369 3.07 3.07 0 0 1 .622-.219 1.11 1.11 0 0 1-.472-.41 1.14 1.14 0 0 1-.184-.643c0-.278.073-.517.219-.718s.376-.403.69-.595c-.196-.082-.376-.194-.54-.335a2.37 2.37 0 0 1-.41-.492c-.109-.187-.196-.39-.26-.608a2.59 2.59 0 0 1-.089-.677c0-.406.057-.768.171-1.087s.283-.59.506-.813a2.2 2.2 0 0 1 .834-.513c.333-.118.72-.178 1.162-.178a3.42 3.42 0 0 1 .52.041c.182.023.335.055.458.096h2.481zm-5.544 8.736c0 .169.03.326.089.472s.155.271.287.376.315.187.533.246c.224.064.499.096.827.096.848 0 1.482-.132 1.901-.396s.636-.636.636-1.128a1.37 1.37 0 0 0-.082-.513c-.055-.132-.146-.237-.274-.314s-.287-.123-.492-.15a5.81 5.81 0 0 0-.752-.041h-1.203a2.42 2.42 0 0 0-.499.055 1.32 1.32 0 0 0-.479.205c-.141.1-.259.237-.355.41s-.137.406-.137.684zm.629-6.323c0 .524.123.914.369 1.169s.595.383 1.046.383c.456 0 .8-.125 1.032-.376s.356-.654.356-1.196c0-.561-.121-.973-.362-1.237s-.584-.396-1.04-.396-.797.137-1.039.41-.362.688-.362 1.244z" fill="#007c6e"/><circle cx="176" cy="10" r="8" fill="#ffdd0f"/><path d="M27.585 43h-2.112v-5.783-.424l.014-.52.02-.547.021-.499c-.023.027-.061.068-.116.123l-.184.185-.212.198-.212.185-1.148.923-1.025-1.272 3.22-2.563h1.736V43zm9.406-4.997c0 .807-.064 1.527-.191 2.16s-.324 1.171-.602 1.613-.629.779-1.066 1.012-.957.349-1.572.349c-.579 0-1.082-.116-1.511-.349a2.9 2.9 0 0 1-1.066-1.012c-.282-.442-.494-.98-.636-1.613s-.205-1.353-.205-2.16.061-1.529.185-2.167.328-1.178.602-1.62.627-.779 1.06-1.012.957-.355 1.572-.355c.574 0 1.075.116 1.504.349s.786.57 1.073 1.012.501.982.643 1.62.212 1.363.212 2.174zm-4.744 0c0 1.139.098 1.996.294 2.57s.536.861 1.019.861c.474 0 .813-.285 1.018-.855s.315-1.429.315-2.577-.105-2.003-.315-2.577-.545-.868-1.018-.868c-.242 0-.447.073-.615.219s-.298.362-.403.649-.18.647-.226 1.08-.068.927-.068 1.497zM39.575 36c0 .579.05 1.012.15 1.299s.271.424.499.424.387-.141.492-.424.164-.715.164-1.299c0-1.139-.219-1.709-.656-1.709-.228 0-.394.141-.499.424s-.15.706-.15 1.285zm3.028-.014c0 .492-.048.934-.143 1.326s-.235.722-.431.991-.444.476-.745.622-.658.212-1.073.212c-.387 0-.729-.071-1.025-.212a2.06 2.06 0 0 1-.738-.622c-.196-.269-.344-.599-.444-.991s-.15-.834-.15-1.326.046-.932.137-1.319.232-.713.424-.977.442-.474.738-.615.649-.212 1.06-.212c.392 0 .736.071 1.032.212a1.97 1.97 0 0 1 .752.615 2.73 2.73 0 0 1 .451.977 5.06 5.06 0 0 1 .157 1.319zm4.56-2.98L41.619 43h-1.634l5.544-9.994h1.634zm-.868 6.986c0 .579.05 1.012.15 1.299s.271.424.499.424.387-.141.492-.424.164-.715.164-1.299c0-1.139-.219-1.709-.656-1.709-.228 0-.394.141-.499.424s-.15.706-.15 1.285zm3.028-.014c0 .492-.048.934-.144 1.326s-.235.716-.431.984-.444.476-.745.622-.659.212-1.073.212c-.387 0-.727-.071-1.019-.212a2.06 2.06 0 0 1-.738-.622 2.88 2.88 0 0 1-.444-.984 5.36 5.36 0 0 1-.15-1.326c0-.492.046-.932.137-1.319s.232-.713.424-.978.435-.474.731-.615.649-.212 1.06-.212c.392 0 .736.071 1.032.212a1.97 1.97 0 0 1 .752.615c.201.264.351.59.451.978a5.06 5.06 0 0 1 .157 1.319zM54.751 43v-9.994h1.272v8.859h3.917V43h-5.189zm7.95 0h-1.244v-7.506h1.244V43zm-1.34-9.536c0-.274.068-.472.205-.595s.314-.184.52-.184c.1 0 .194.016.28.048s.169.073.232.137a.62.62 0 0 1 .157.246c.041.096.062.212.062.349 0 .264-.073.462-.219.595s-.312.191-.513.191-.378-.064-.52-.191-.205-.326-.205-.595zm6.392 8.641c.346 0 .638-.052.875-.157a1.33 1.33 0 0 0 .581-.478c.15-.214.26-.481.328-.8s.114-.7.123-1.128v-.28c0-.46-.032-.868-.096-1.224s-.164-.661-.314-.902a1.4 1.4 0 0 0-.588-.554c-.246-.128-.554-.191-.923-.191-.615 0-1.069.248-1.36.745s-.431 1.21-.431 2.14c0 .953.144 1.663.431 2.133s.75.697 1.374.697zm-.239 1.032a2.71 2.71 0 0 1-1.162-.246 2.44 2.44 0 0 1-.902-.731c-.251-.328-.444-.734-.581-1.217s-.205-1.044-.205-1.682.068-1.205.205-1.688.33-.895.581-1.224.551-.574.902-.738.738-.253 1.162-.253c.269 0 .513.032.731.096a2.28 2.28 0 0 1 .588.246c.173.1.328.221.465.362s.257.285.362.444h.055l.185-1.012h1.005v10.869H69.66v-3.206l.014-.328.027-.383.041-.451h-.082c-.1.155-.219.303-.356.444a2.19 2.19 0 0 1-.465.362 2.28 2.28 0 0 1-.588.246 2.83 2.83 0 0 1-.738.089zM78.144 43l-.185-1.005h-.068a2.16 2.16 0 0 1-.41.513c-.155.141-.326.26-.513.355s-.385.159-.595.205a3.02 3.02 0 0 1-.642.068c-.415 0-.779-.052-1.094-.157s-.577-.269-.786-.492-.369-.508-.478-.854-.157-.759-.157-1.237v-4.901h1.244v4.833c0 .593.121 1.037.362 1.333s.615.444 1.121.444c.369 0 .679-.059.93-.178a1.45 1.45 0 0 0 .602-.52c.155-.232.264-.517.328-.855s.103-.725.103-1.162v-3.896h1.244V43h-1.005zm4.628 0h-1.244v-7.506h1.244V43zm-1.34-9.536c0-.274.068-.472.205-.595s.314-.184.519-.184c.1 0 .194.016.28.048s.169.073.232.137a.62.62 0 0 1 .157.246c.041.096.061.212.061.349 0 .264-.073.462-.219.595s-.312.191-.513.191-.378-.064-.519-.191-.205-.326-.205-.595zm8.354 8.531h-.055c-.1.155-.219.303-.356.444a2.19 2.19 0 0 1-.465.362c-.173.105-.369.187-.588.246a2.83 2.83 0 0 1-.738.089 2.71 2.71 0 0 1-1.162-.246 2.44 2.44 0 0 1-.902-.731c-.251-.328-.444-.734-.581-1.217s-.205-1.044-.205-1.682.068-1.205.205-1.688.33-.895.581-1.224.552-.574.902-.738.738-.253 1.162-.253c.269 0 .513.03.731.089s.415.139.588.239a2.3 2.3 0 0 1 .472.349c.137.132.255.271.356.417h.082l-.041-.444-.027-.362-.014-.301v-2.98h1.244V43H89.97l-.184-1.005zm-1.962.109c.346 0 .638-.052.875-.157a1.33 1.33 0 0 0 .581-.478c.15-.214.26-.481.328-.8s.114-.7.123-1.128v-.28c0-.46-.032-.868-.096-1.224s-.164-.661-.314-.902a1.4 1.4 0 0 0-.588-.554c-.246-.128-.554-.191-.923-.191-.615 0-1.069.248-1.36.745s-.431 1.21-.431 2.14c0 .953.143 1.663.431 2.133s.75.697 1.374.697zm6.775.895h-1.244v-7.506h1.244V43zm-1.34-9.536c0-.274.068-.472.205-.595s.314-.184.519-.184c.1 0 .194.016.28.048s.169.073.232.137a.62.62 0 0 1 .157.246c.041.096.062.212.062.349 0 .264-.073.462-.219.595s-.312.191-.513.191-.378-.064-.519-.191-.205-.326-.205-.595zm5.988 8.654a3.05 3.05 0 0 0 .273-.014l.301-.034.26-.048.185-.048v.943a1.81 1.81 0 0 1-.226.082 2.47 2.47 0 0 1-.301.068 2.7 2.7 0 0 1-.342.048c-.118.014-.235.02-.349.02-.283 0-.545-.036-.786-.109a1.48 1.48 0 0 1-.629-.376c-.173-.178-.31-.417-.41-.718s-.15-.688-.15-1.148v-4.355h-1.06v-.554l1.06-.533.533-1.572h.718v1.723h1.887v.937h-1.887v4.355c0 .442.071.775.212.998s.383.335.711.335zm1.354-6.624h1.292l1.469 4.191.192.574.184.602.151.581.089.52h.041l.109-.465.164-.622.191-.656.178-.547 1.361-4.177h1.285l-2.967 8.483c-.128.369-.267.7-.417.991s-.317.547-.513.752-.426.362-.69.472-.579.171-.944.171c-.237 0-.442-.014-.615-.041l-.444-.075v-.991a2.69 2.69 0 0 0 .362.055c.146.018.299.027.458.027.219 0 .408-.027.568-.082a1.2 1.2 0 0 0 .417-.226 1.34 1.34 0 0 0 .3-.369 3 3 0 0 0 .233-.499l.389-1.094-2.843-7.574zm17.766.438c0 .415-.064.813-.191 1.196s-.328.722-.615 1.019-.668.526-1.142.704-1.05.26-1.743.26h-1.026V43h-1.271v-9.994h2.475c.61 0 1.137.066 1.579.198s.806.317 1.093.567a2.21 2.21 0 0 1 .636.916 3.52 3.52 0 0 1 .205 1.244zm-4.717 2.099h.882c.424 0 .793-.036 1.108-.109s.581-.189.786-.349a1.51 1.51 0 0 0 .471-.629c.105-.26.158-.574.158-.943 0-.647-.187-1.126-.561-1.435s-.957-.472-1.75-.472h-1.094v3.938zm12.743 1.203c0 .624-.078 1.18-.233 1.668s-.369.891-.656 1.224-.627.579-1.032.752-.862.26-1.367.26c-.47 0-.903-.087-1.299-.26s-.741-.424-1.033-.752a3.64 3.64 0 0 1-.676-1.224c-.16-.488-.24-1.044-.24-1.668s.076-1.169.226-1.648c.155-.483.374-.889.656-1.217s.627-.583 1.033-.752.868-.26 1.374-.26c.469 0 .902.087 1.298.26a2.77 2.77 0 0 1 1.026.752c.291.328.517.734.677 1.217s.246 1.028.246 1.648zm-5.25 0c0 .952.155 1.67.464 2.153.315.479.823.718 1.525.718s1.205-.239 1.511-.718.464-1.201.464-2.153-.157-1.663-.471-2.133-.816-.711-1.518-.711-1.207.237-1.517.711-.458 1.18-.458 2.133zm13.33 0c0 .624-.078 1.18-.233 1.668s-.369.891-.656 1.224-.627.579-1.032.752-.862.26-1.367.26c-.47 0-.903-.087-1.299-.26a2.93 2.93 0 0 1-1.032-.752c-.288-.333-.513-.741-.677-1.224s-.239-1.044-.239-1.668.075-1.169.225-1.648.374-.889.656-1.217.627-.583 1.033-.752.868-.26 1.374-.26c.469 0 .902.087 1.298.26a2.77 2.77 0 0 1 1.026.752c.291.328.517.734.677 1.217s.246 1.028.246 1.648zm-5.25 0c0 .952.155 1.67.465 2.153s.822.718 1.524.718 1.205-.239 1.511-.718.465-1.201.465-2.153-.158-1.663-.472-2.133-.816-.711-1.518-.711-1.207.237-1.517.711-.458 1.18-.458 2.133zM137.678 43h-1.244V32.363h1.244V43z" fill="#007c6e"/><circle cx="8" cy="38" r="8" fill="#f1a549"/><path d="M26.862 60.876c.415 0 .807.05 1.176.15s.693.251.971.451.499.451.663.752a2.18 2.18 0 0 1 .246 1.06c0 .301-.046.574-.137.82s-.216.463-.376.663a2.85 2.85 0 0 1-.567.526 5.42 5.42 0 0 1-.711.424 7.95 7.95 0 0 1 .772.472c.255.173.481.369.677.588a2.65 2.65 0 0 1 .472.725c.118.269.178.57.178.902 0 .415-.082.791-.246 1.128a2.48 2.48 0 0 1-.69.861c-.296.237-.652.419-1.066.547s-.864.191-1.36.191a5.1 5.1 0 0 1-1.436-.185c-.419-.123-.773-.299-1.06-.526s-.506-.508-.656-.841-.219-.706-.219-1.121c0-.342.05-.649.15-.923a2.65 2.65 0 0 1 .41-.738c.173-.219.376-.412.608-.581a4.88 4.88 0 0 1 .745-.444 5.84 5.84 0 0 1-.629-.458c-.196-.169-.367-.353-.513-.554a2.86 2.86 0 0 1-.342-.677 2.56 2.56 0 0 1-.123-.813 2.11 2.11 0 0 1 .246-1.039c.169-.301.394-.551.677-.752a2.97 2.97 0 0 1 .977-.458c.369-.1.757-.15 1.162-.15zm-1.415 7.465c0 .182.03.351.089.506s.146.28.26.39.264.196.438.26a1.86 1.86 0 0 0 .602.089c.479 0 .836-.112 1.073-.335s.355-.526.355-.895c0-.191-.041-.362-.123-.513a1.62 1.62 0 0 0-.308-.424c-.123-.132-.264-.253-.424-.362l-.478-.314-.15-.096c-.201.1-.383.21-.547.328a2.15 2.15 0 0 0-.424.383c-.114.137-.203.287-.267.451a1.46 1.46 0 0 0-.096.533zm1.401-5.92a1.29 1.29 0 0 0-.424.068.99.99 0 0 0-.335.198c-.091.087-.164.194-.219.321s-.082.271-.082.431a1.38 1.38 0 0 0 .082.499c.059.137.137.26.232.369s.214.201.342.287l.417.246c.141-.073.276-.153.403-.239a1.74 1.74 0 0 0 .335-.294c.1-.114.18-.241.239-.383s.089-.303.089-.485c0-.16-.027-.303-.082-.431a.91.91 0 0 0-.226-.321c-.096-.087-.21-.153-.342-.198s-.276-.068-.431-.068zm4.662 7.602a1.44 1.44 0 0 1 .089-.54c.064-.15.15-.271.26-.362s.237-.157.383-.198.303-.061.472-.061a1.61 1.61 0 0 1 .451.061c.146.041.273.107.383.198a.94.94 0 0 1 .26.362c.064.146.096.326.096.54 0 .205-.032.381-.096.526a1.01 1.01 0 0 1-.26.362c-.109.096-.237.164-.383.205a1.46 1.46 0 0 1-.451.068c-.169 0-.326-.023-.472-.068s-.273-.109-.383-.205a1.01 1.01 0 0 1-.26-.362c-.059-.146-.089-.321-.089-.526zm10.609-1.094h-1.203V71h-2.058v-2.071h-4.129v-1.47l4.245-6.453h1.941v6.282h1.203v1.641zm-3.261-1.641v-1.695-.253l.014-.383.014-.437.021-.431.02-.355.02-.226h-.062l-.28.608c-.1.214-.216.428-.349.643l-1.668 2.529h2.27zM44.567 64c0 .579.05 1.012.15 1.299s.271.424.499.424.387-.141.492-.424.164-.716.164-1.299c0-1.139-.219-1.709-.656-1.709-.228 0-.394.141-.499.424s-.15.706-.15 1.285zm3.028-.014a5.6 5.6 0 0 1-.144 1.326c-.091.392-.235.722-.431.991s-.444.476-.745.622-.659.212-1.073.212c-.387 0-.729-.071-1.025-.212a2.06 2.06 0 0 1-.738-.622c-.196-.269-.344-.599-.444-.991s-.15-.834-.15-1.326.046-.932.137-1.319.233-.713.424-.977.442-.474.738-.615.649-.212 1.06-.212c.392 0 .736.071 1.032.212a1.97 1.97 0 0 1 .752.615 2.73 2.73 0 0 1 .451.977 5.06 5.06 0 0 1 .157 1.319zm4.56-2.98L46.611 71h-1.634l5.544-9.994h1.634zm-.868 6.986c0 .579.05 1.012.15 1.299s.271.424.499.424.387-.141.492-.424.164-.715.164-1.299c0-1.139-.219-1.709-.656-1.709-.228 0-.394.141-.499.424s-.15.706-.15 1.285zm3.028-.014c0 .492-.048.934-.143 1.326s-.235.716-.431.984-.444.476-.745.622-.658.212-1.073.212c-.387 0-.727-.071-1.019-.212a2.06 2.06 0 0 1-.738-.622c-.196-.269-.344-.597-.444-.984a5.36 5.36 0 0 1-.15-1.326c0-.492.046-.932.137-1.319s.232-.713.424-.978.435-.474.732-.615.649-.212 1.06-.212c.392 0 .736.071 1.032.212a1.97 1.97 0 0 1 .752.615 2.73 2.73 0 0 1 .451.978 5.06 5.06 0 0 1 .157 1.319zm9.488-5.995c-.488 0-.93.093-1.326.28s-.736.447-1.018.793-.495.768-.649 1.265-.226 1.057-.226 1.682c0 .643.066 1.215.198 1.716s.339.916.608 1.258a2.6 2.6 0 0 0 1.005.779c.401.178.87.267 1.408.267.406 0 .791-.039 1.155-.116l1.08-.28v1.107l-.533.185c-.178.05-.365.091-.561.123s-.399.055-.622.068l-.731.027c-.747 0-1.395-.123-1.941-.369a3.6 3.6 0 0 1-1.36-1.046c-.355-.451-.62-.993-.793-1.627s-.26-1.335-.26-2.105c0-.757.098-1.449.294-2.078s.492-1.169.875-1.62a3.97 3.97 0 0 1 1.436-1.053c.57-.251 1.224-.376 1.962-.376a6.41 6.41 0 0 1 1.408.15c.447.1.85.246 1.21.438l-.533 1.066a5.99 5.99 0 0 0-.937-.376c-.337-.105-.72-.157-1.148-.157zm10.336 5.25c0 .624-.077 1.18-.232 1.668s-.369.891-.656 1.224a2.79 2.79 0 0 1-1.032.752c-.406.173-.861.26-1.367.26a3.21 3.21 0 0 1-1.299-.26c-.397-.173-.74-.424-1.032-.752a3.64 3.64 0 0 1-.677-1.224c-.16-.488-.239-1.044-.239-1.668s.075-1.169.226-1.648.374-.889.656-1.217a2.69 2.69 0 0 1 1.032-.752c.41-.173.868-.26 1.374-.26a3.21 3.21 0 0 1 1.299.26c.397.169.738.419 1.025.752a3.42 3.42 0 0 1 .677 1.217c.164.479.246 1.028.246 1.648zm-5.25 0c0 .953.155 1.67.465 2.153s.823.718 1.524.718 1.205-.239 1.511-.718.465-1.201.465-2.153-.157-1.663-.472-2.133-.816-.711-1.518-.711-1.208.237-1.517.711-.458 1.18-.458 2.133zM85.091 71v-4.833c0-.593-.114-1.037-.342-1.333s-.581-.444-1.059-.444c-.333 0-.615.055-.848.164a1.41 1.41 0 0 0-.574.472c-.146.205-.253.463-.321.772s-.102.659-.102 1.06V71h-1.251v-4.833c0-.593-.114-1.037-.342-1.333s-.574-.444-1.053-.444c-.351 0-.645.059-.882.178s-.428.294-.574.526-.244.517-.308.854a6.77 6.77 0 0 0-.089 1.162V71h-1.244v-7.506h1.012l.178 1.012h.068c.109-.196.239-.365.39-.506s.315-.267.492-.362.374-.166.574-.212a2.86 2.86 0 0 1 .622-.068c.547 0 1 .1 1.36.301s.633.515.807.943h.055c.118-.214.26-.399.424-.554s.351-.283.547-.383a2.61 2.61 0 0 1 .629-.232 2.99 2.99 0 0 1 .67-.075c.797 0 1.397.219 1.798.656s.608 1.128.608 2.085V71h-1.244zm12.551 0v-4.833c0-.593-.114-1.037-.342-1.333s-.581-.444-1.06-.444c-.333 0-.615.055-.848.164a1.41 1.41 0 0 0-.574.472c-.146.205-.253.463-.321.772s-.103.659-.103 1.06V71h-1.251v-4.833c0-.593-.114-1.037-.342-1.333s-.574-.444-1.053-.444c-.351 0-.645.059-.882.178s-.428.294-.574.526-.244.517-.308.854a6.77 6.77 0 0 0-.089 1.162V71h-1.244v-7.506h1.012l.178 1.012h.068c.109-.196.239-.365.39-.506s.314-.267.492-.362.374-.166.574-.212.412-.068.622-.068c.547 0 1 .1 1.36.301s.633.515.807.943h.055c.119-.214.26-.399.424-.554s.351-.283.547-.383a2.61 2.61 0 0 1 .629-.232 2.99 2.99 0 0 1 .67-.075c.797 0 1.397.219 1.798.656s.608 1.128.608 2.085V71h-1.244zm8.421 0l-.184-1.005h-.068a2.15 2.15 0 0 1-.411.513c-.155.141-.325.26-.512.355s-.385.16-.595.205-.424.068-.643.068c-.414 0-.779-.052-1.093-.157s-.577-.269-.786-.492a2.18 2.18 0 0 1-.479-.855c-.105-.346-.157-.759-.157-1.237v-4.901h1.244v4.833c0 .593.121 1.037.362 1.333s.615.444 1.121.444c.369 0 .679-.059.93-.178a1.45 1.45 0 0 0 .602-.52c.155-.232.264-.517.328-.855s.102-.725.102-1.162v-3.897h1.244V71h-1.005zm8.074 0v-4.833c0-.593-.121-1.037-.363-1.333-.237-.296-.61-.444-1.121-.444-.369 0-.679.059-.929.178s-.454.294-.609.526a2.46 2.46 0 0 0-.328.854c-.064.337-.096.725-.096 1.162V71h-1.244v-7.506h1.012l.178 1.012h.068a2.12 2.12 0 0 1 .403-.506 2.38 2.38 0 0 1 .52-.362 2.43 2.43 0 0 1 .595-.212c.209-.046.423-.068.642-.068.834 0 1.461.219 1.88.656s.636 1.128.636 2.085V71h-1.244zm4.799 0h-1.245v-7.506h1.245V71zm-1.34-9.536c0-.274.068-.472.205-.595a.76.76 0 0 1 .519-.184c.101 0 .194.016.281.048s.168.073.232.137a.62.62 0 0 1 .157.246c.041.096.062.212.062.349 0 .264-.073.462-.219.595s-.312.191-.513.191-.378-.064-.519-.191-.205-.326-.205-.595zm5.988 8.654c.082 0 .173-.005.273-.014l.301-.034.26-.048.185-.048v.943a1.81 1.81 0 0 1-.226.082c-.091.027-.191.05-.301.068a2.68 2.68 0 0 1-.342.048c-.118.014-.234.02-.348.02a2.7 2.7 0 0 1-.786-.109c-.242-.073-.452-.198-.629-.376s-.31-.417-.41-.718-.151-.688-.151-1.148v-4.355h-1.059v-.554l1.059-.533.533-1.572h.718v1.723h1.887v.937h-1.887v4.355c0 .442.071.775.212.998s.383.335.711.335zm1.354-6.624h1.291l1.47 4.191.192.574.184.602.151.581.088.519h.041l.11-.465.164-.622.191-.656.178-.547 1.36-4.177h1.286l-2.967 8.483c-.128.369-.267.7-.417.991s-.317.547-.513.752-.426.362-.69.472-.579.171-.944.171c-.237 0-.442-.014-.615-.041l-.444-.075v-.991c.095.023.216.041.362.055s.299.027.458.027a1.75 1.75 0 0 0 .567-.082c.16-.05.299-.125.417-.226s.219-.223.301-.369a3 3 0 0 0 .233-.499l.389-1.094-2.843-7.574z" fill="#007c6e"/><circle cx="9" cy="66" r="8" fill="#ffc01b"/><path d="M198.417 40.929h-1.203V43h-2.058v-2.071h-4.129v-1.47l4.245-6.453h1.942v6.282h1.203v1.641zm-3.261-1.641v-1.695-.253l.014-.383.014-.437.02-.431.021-.355.02-.226h-.061l-.281.608a6.33 6.33 0 0 1-.348.643l-1.668 2.529h2.269zm4.355 2.734c0-.214.029-.394.089-.54s.15-.271.259-.362.237-.157.383-.198a1.74 1.74 0 0 1 .472-.062 1.61 1.61 0 0 1 .451.062c.146.041.273.107.383.198s.196.212.26.362.095.326.095.54c0 .205-.032.38-.095.526a1.02 1.02 0 0 1-.26.362c-.11.096-.237.164-.383.205a1.46 1.46 0 0 1-.451.068c-.169 0-.326-.023-.472-.068s-.273-.109-.383-.205-.196-.216-.259-.362-.089-.321-.089-.526zm3.712-3.268a13.61 13.61 0 0 1 .075-1.429 7.7 7.7 0 0 1 .28-1.36c.137-.437.319-.843.547-1.217a3.69 3.69 0 0 1 .875-.971c.355-.278.779-.494 1.271-.649.497-.16 1.076-.239 1.737-.239l.314.007.342.02.342.027.294.048v1.689a4.78 4.78 0 0 0-.554-.096 4.09 4.09 0 0 0-.581-.041c-.615 0-1.121.078-1.518.233s-.71.362-.943.636-.399.602-.499.984a6.57 6.57 0 0 0-.178 1.271h.082c.092-.164.201-.317.329-.458s.284-.269.458-.369.366-.187.581-.246a2.79 2.79 0 0 1 .731-.089c.433 0 .823.071 1.169.212s.638.346.875.615.426.599.554.991.191.841.191 1.347c0 .542-.077 1.028-.232 1.456s-.367.793-.65 1.094-.624.524-1.025.684-.852.232-1.354.232c-.492 0-.952-.087-1.381-.26s-.802-.447-1.121-.807-.562-.814-.745-1.36c-.177-.552-.266-1.203-.266-1.955zm3.472 2.693c.187 0 .356-.034.506-.102a1.08 1.08 0 0 0 .397-.321 1.52 1.52 0 0 0 .259-.547c.064-.219.096-.478.096-.779 0-.488-.102-.87-.307-1.148s-.509-.424-.923-.424a1.33 1.33 0 0 0-.575.123c-.173.082-.321.189-.444.321a1.48 1.48 0 0 0-.287.444c-.064.164-.096.331-.096.499 0 .232.028.465.082.697a2.32 2.32 0 0 0 .26.622c.119.182.262.33.431.444s.373.171.601.171zM212.567 36c0 .579.051 1.012.151 1.299.105.283.271.424.499.424.223 0 .387-.141.492-.424s.164-.715.164-1.299c0-1.139-.219-1.709-.656-1.709-.228 0-.394.141-.499.424-.1.278-.151.706-.151 1.285zm3.029-.014c0 .492-.048.934-.144 1.326a2.7 2.7 0 0 1-.431.991c-.195.269-.444.476-.745.622s-.658.212-1.073.212c-.387 0-.729-.071-1.025-.212s-.538-.353-.739-.622a2.87 2.87 0 0 1-.444-.991c-.1-.392-.15-.834-.15-1.326s.045-.932.136-1.319.233-.713.424-.977.442-.474.739-.615.649-.212 1.059-.212a2.37 2.37 0 0 1 1.032.212c.301.141.552.346.752.615s.351.59.451.977a5.05 5.05 0 0 1 .158 1.319zm4.559-2.98L214.611 43h-1.633l5.543-9.994h1.634zm-.868 6.986c0 .579.05 1.012.151 1.299s.271.424.499.424c.223 0 .387-.141.492-.424s.164-.715.164-1.299c0-1.139-.219-1.709-.656-1.709-.228 0-.395.141-.499.424s-.151.706-.151 1.285zm3.028-.014a5.59 5.59 0 0 1-.143 1.326 2.7 2.7 0 0 1-.431.984 1.97 1.97 0 0 1-.745.622c-.301.141-.658.212-1.073.212-.388 0-.727-.071-1.019-.212a2.07 2.07 0 0 1-.738-.622c-.196-.269-.344-.597-.444-.984s-.151-.834-.151-1.326.046-.932.137-1.319.232-.713.424-.978.435-.474.731-.615.65-.212 1.06-.212a2.37 2.37 0 0 1 1.032.212c.301.141.552.346.752.615s.351.59.451.978c.105.387.157.827.157 1.319zm10.692.349c0 .442-.08.839-.239 1.189a2.41 2.41 0 0 1-.67.882c-.292.242-.647.426-1.067.554s-.891.185-1.415.185c-.506 0-.98-.041-1.422-.123-.437-.078-.804-.194-1.1-.349v-1.217l.526.219.629.185.677.137a5.06 5.06 0 0 0 .69.048c.729 0 1.267-.137 1.613-.41s.527-.665.527-1.176c0-.246-.034-.46-.103-.643a1.2 1.2 0 0 0-.348-.499c-.164-.155-.385-.303-.663-.444s-.629-.303-1.053-.472c-.406-.16-.759-.333-1.06-.52-.296-.191-.542-.406-.738-.642a2.47 2.47 0 0 1-.431-.807c-.091-.301-.136-.643-.136-1.025 0-.401.073-.759.218-1.073a2.19 2.19 0 0 1 .616-.793c.264-.219.578-.385.943-.499s.775-.171 1.217-.171c.542 0 1.03.052 1.463.157s.818.23 1.155.39l-.458 1.066a6.25 6.25 0 0 0-1.012-.342 4.46 4.46 0 0 0-1.162-.15c-.556 0-.987.13-1.292.39s-.458.602-.458 1.039c0 .26.034.485.103.677a1.37 1.37 0 0 0 .341.513c.16.15.37.294.629.431a12.18 12.18 0 0 0 .971.424c.415.164.777.333 1.087.506s.576.369.786.588a2.15 2.15 0 0 1 .472.759c.109.287.164.627.164 1.019zm4.805 2.81c-.501 0-.959-.084-1.374-.253s-.772-.415-1.073-.738-.526-.725-.69-1.203-.246-1.025-.246-1.641.075-1.173.225-1.661.363-.9.636-1.237a2.72 2.72 0 0 1 .978-.779c.382-.178.804-.267 1.264-.267.451 0 .857.082 1.217.246s.665.387.916.684.442.645.574 1.06.205.866.205 1.367v.772h-4.73c.023.88.207 1.527.554 1.941s.87.622 1.558.622c.233 0 .447-.011.643-.034a5.4 5.4 0 0 0 .574-.096c.187-.046.367-.1.54-.164l.526-.226v1.107l-.54.226a4.09 4.09 0 0 1-.54.157 4.44 4.44 0 0 1-.574.089 6.98 6.98 0 0 1-.643.027zm-.307-6.747c-.52 0-.932.178-1.237.533s-.477.873-.527 1.552h3.363c0-.31-.031-.592-.095-.848-.059-.26-.155-.481-.287-.663s-.292-.324-.493-.424-.442-.15-.724-.15zm7.8 6.747a3.61 3.61 0 0 1-1.374-.253 2.98 2.98 0 0 1-1.074-.738c-.296-.324-.526-.725-.69-1.203s-.246-1.025-.246-1.641.075-1.173.225-1.661.363-.9.636-1.237.6-.602.978-.779c.383-.178.804-.267 1.264-.267.452 0 .857.082 1.217.246s.666.387.916.684.442.645.574 1.06.206.866.206 1.367v.772h-4.731c.023.88.207 1.527.554 1.941s.87.622 1.558.622c.233 0 .447-.011.643-.034a5.4 5.4 0 0 0 .574-.096c.187-.046.367-.1.54-.164l.527-.226v1.107l-.54.226a4.15 4.15 0 0 1-.541.157 4.44 4.44 0 0 1-.574.089c-.196.018-.41.027-.642.027zm-.308-6.747c-.519 0-.932.178-1.237.533s-.476.873-.527 1.552h3.364c0-.31-.032-.592-.096-.848s-.155-.481-.287-.663a1.31 1.31 0 0 0-.492-.424c-.201-.1-.442-.15-.725-.15zm9.468 5.605h-.055c-.1.155-.219.303-.355.444a2.18 2.18 0 0 1-.465.362c-.173.105-.369.187-.588.246a2.83 2.83 0 0 1-.738.089c-.424 0-.812-.082-1.162-.246s-.652-.408-.903-.731-.444-.734-.581-1.217-.205-1.044-.205-1.682.068-1.205.205-1.688.331-.895.581-1.224.552-.574.903-.738.738-.253 1.162-.253c.269 0 .512.03.731.089s.415.139.588.239.335.217.472.349.255.271.355.417h.082l-.041-.444-.027-.362-.014-.301v-2.98h1.244V43h-1.005l-.184-1.005zm-1.962.109c.346 0 .638-.052.875-.157a1.33 1.33 0 0 0 .581-.478c.15-.214.26-.481.328-.8s.114-.7.123-1.128v-.28c0-.46-.032-.868-.096-1.224s-.164-.661-.314-.902-.342-.431-.588-.554-.554-.191-.923-.191c-.615 0-1.068.248-1.36.745-.287.497-.431 1.21-.431 2.14 0 .953.144 1.663.431 2.133.292.465.75.697 1.374.697zm10.021-1.162c0 .365-.066.684-.198.957s-.323.504-.574.69-.545.319-.896.41-.745.137-1.182.137c-.497 0-.923-.041-1.278-.123a3.25 3.25 0 0 1-.937-.349V41.53l.472.219a5.83 5.83 0 0 0 .547.185 6.1 6.1 0 0 0 .587.137c.206.032.408.048.609.048a3.22 3.22 0 0 0 .752-.075c.209-.05.378-.121.506-.212a.85.85 0 0 0 .287-.342c.059-.137.089-.287.089-.451 0-.141-.023-.269-.069-.383a.91.91 0 0 0-.253-.335c-.118-.114-.282-.228-.492-.342s-.478-.241-.806-.383l-.889-.417c-.26-.137-.481-.289-.663-.458s-.324-.362-.424-.581-.144-.488-.144-.793c0-.319.062-.602.185-.848s.305-.46.533-.629.501-.296.82-.383.675-.13 1.067-.13c.442 0 .845.048 1.21.144s.718.221 1.046.376l-.431 1.005c-.296-.132-.602-.246-.916-.342a3.07 3.07 0 0 0-.95-.15c-.465 0-.809.078-1.032.233s-.335.367-.335.649c0 .159.025.298.075.417.055.119.146.23.273.335s.299.212.513.321l.8.355.875.41c.26.137.481.292.663.465a1.74 1.74 0 0 1 .417.581c.096.219.143.481.143.786z" fill="#007c6e"/><circle cx="177" cy="37" r="8" fill="#00b59c"/><defs><linearGradient id="A" x1="8" y1=".4" x2="8" y2="18" gradientUnits="userSpaceOnUse"><stop stop-color="#00b59c"/><stop offset="1" stop-color="#8ef8ab"/></linearGradient></defs></svg>