<svg xmlns="http://www.w3.org/2000/svg" width="32" height="32" fill="none" xmlns:v="https://vecta.io/nano"><g clip-path="url(#B)"><g fill-rule="evenodd"><path d="M16 30.898l-.286-.225-2.264-1.841c-1.782-1.891-4.258-4.625-5.849-8.517S5.616 12.509 5.565 9.911c-.045-2.282.155-4.083.528-6.268l1.216.878c.065.047 1.617 1.175 3.548 3.225C12.4 9.383 14.447 11.9 16 15.07c1.553-3.17 3.6-5.688 5.142-7.323 1.932-2.05 3.483-3.178 3.548-3.225l1.216-.878c.373 2.184.574 3.985.528 6.268-.051 2.599-.447 6.513-2.037 10.406s-4.066 6.626-5.849 8.517c-.44.468-1.578 1.31-2.263 1.841l-.286.224z" fill="#00aa96"/><path d="M.104 11.407L0 9.911l1.39.566c.244.098 5.562 2.307 9.713 7.219l-.011-.692c0-5.776 1.89-11.16 4.909-16.005 3.019 4.844 4.909 10.229 4.909 16.005 0 .233-.005.462-.011.692 4.151-4.912 9.469-7.12 9.713-7.219L32 9.911l-.104 1.497c-1.812 26.799-29.98 26.799-31.792 0z" fill="url(#A)"/><g fill="#00aa96"><path d="M14.354 25.046c-.381 0-.535.148-.535.512 0 .887.98 1.608 2.183 1.608s2.18-.721 2.18-1.608c0-.364-.155-.512-.535-.512a4.75 4.75 0 0 0-.606.061l-.019.003a7.04 7.04 0 0 1-1.021.093 7.05 7.05 0 0 1-1.022-.093 4.65 4.65 0 0 0-.626-.064z"/></g></g><path d="M10.431 25.144c.97 0 1.756-.787 1.756-1.758s-.786-1.758-1.756-1.758-1.755.787-1.755 1.758.786 1.758 1.755 1.758zm11.136 0c.97 0 1.755-.787 1.755-1.758s-.786-1.758-1.755-1.758a1.76 1.76 0 0 0-1.756 1.758c0 .971.786 1.758 1.756 1.758z" fill="#00aa96"/></g><defs><linearGradient id="A" x1="16" y1="-2.051" x2="16" y2="31.506" gradientUnits="userSpaceOnUse"><stop stop-color="#00b59c"/><stop offset="1" stop-color="#8ef8ab"/></linearGradient><clipPath id="B"><path fill="#fff" transform="translate(0 1)" d="M0 0h32v30.507H0z"/></clipPath></defs></svg>