<svg xmlns="http://www.w3.org/2000/svg" width="90" height="90" fill="none" xmlns:v="https://vecta.io/nano"><path d="M44.936 20.836c-4.543 4.033-7.544 12.24-8.009 21.935h16.017c-.465-9.694-3.466-17.902-8.008-21.935z" fill="url(#A)"/><path d="M36.928 48.072c.465 9.694 3.465 17.902 8.009 21.935 4.543-4.033 7.544-12.24 8.008-21.935H36.928z" fill="url(#A)"/><path d="M58.249 48.072c-.342 7.396-2.14 15.629-6.12 21.632 9.654-2.865 16.917-11.34 17.993-21.632H58.249z" fill="url(#A)"/><path d="M19.75 42.771h11.873c.342-7.396 2.14-15.629 6.12-21.632-9.654 2.865-16.918 11.34-17.993 21.632z" fill="url(#A)"/><path d="M52.107 21.133c1.309 1.967 2.441 4.249 3.365 6.806 1.595 4.412 2.542 9.495 2.779 14.832h11.871c-1.076-10.299-8.35-18.78-18.014-21.638z" fill="url(#A)"/><path d="M34.4 62.904c-1.595-4.412-2.542-9.495-2.778-14.832H19.75c1.076 10.299 8.35 18.78 18.015 21.638-1.309-1.968-2.441-4.25-3.365-6.806z" fill="url(#A)"/><path d="M54.99 83.413c-9.424 2.465-19.411 1.362-28.12-3.106-8.77-4.499-15.518-12.061-19.002-21.291-3.226-8.548-3.435-17.647-.604-26.313a39.96 39.96 0 0 1 10.723-16.78l-.903 7.495 5.262.634 1.991-16.522L8.023 5.602l-.622 5.264 7.313.865C8.997 16.949 4.652 23.631 2.226 31.057a44.82 44.82 0 0 0-2.22 14.702C.093 50.924 1.07 56.014 2.91 60.888c3.949 10.463 11.599 19.034 21.542 24.135C30.877 88.32 37.917 90 44.998 90c3.796 0 7.604-.483 11.334-1.459l-1.341-5.128z" fill="url(#A)"/><path d="M87.261 60.374a44.91 44.91 0 0 0-.176-31.255c-4.114-10.9-12.166-19.67-22.672-24.695a44.76 44.76 0 0 0-33.32-2.203l1.642 5.04c9.713-3.165 20.151-2.474 29.391 1.945 9.268 4.433 16.371 12.169 20 21.785 3.351 8.878 3.406 18.667.156 27.565-2.57 7.036-7.068 13.174-12.904 17.721l.982-8.152-5.262-.634-1.991 16.522 16.314 1.929.623-5.264-6.69-.791c6.267-5.093 11.101-11.831 13.907-19.512z" fill="url(#A)"/><defs><linearGradient id="A" x1="-3.739" y1="0" x2="91.433" y2="-15.123" gradientUnits="userSpaceOnUse"><stop stop-color="#9befd7"/><stop offset=".251" stop-color="#8bf7ab"/><stop offset="1" stop-color="#ffdf8a"/></linearGradient></defs></svg>