<svg xmlns="http://www.w3.org/2000/svg" width="90" height="90" fill="none" xmlns:v="https://vecta.io/nano"><path d="M76.461 63.011a13.42 13.42 0 0 0-8.413 2.957l-9.331-9.337c2.558-3.026 4.041-6.816 4.215-10.776l18.348-.687c.386.993 1.111 1.818 2.047 2.328a4.51 4.51 0 0 0 3.064.459c1.044-.214 1.978-.79 2.638-1.626a4.52 4.52 0 0 0-.189-5.821c-.713-.792-1.683-1.306-2.738-1.451a4.51 4.51 0 0 0-3.028.657c-.9.57-1.57 1.44-1.891 2.456l-18.351.679a17.98 17.98 0 0 0-2.54-7.278 17.97 17.97 0 0 0-5.353-5.544l4.328-7.875a7.52 7.52 0 0 0 5.396-.354c1.692-.783 3.034-2.167 3.764-3.884a7.53 7.53 0 0 0 .188-5.407c-.609-1.763-1.852-3.237-3.486-4.136a7.52 7.52 0 0 0-5.358-.728c-1.814.43-3.405 1.52-4.462 3.057a7.53 7.53 0 0 0 1.333 10.01l-4.331 7.879a17.91 17.91 0 0 0-18.925 2.699l-9.331-9.338a13.52 13.52 0 0 0 2.908-9.561c-.287-3.442-1.881-6.643-4.454-8.945A13.5 13.5 0 0 0 13.129.005a13.5 13.5 0 0 0-9.174 3.952C1.515 6.4.101 9.684.005 13.137s1.133 6.81 3.434 9.385a13.5 13.5 0 0 0 18.496 1.547l9.331 9.338c-2.752 3.242-4.262 7.359-4.257 11.613.004 1.077.105 2.151.3 3.21l-16.09 4.335c-.726-1.251-1.882-2.195-3.252-2.656a5.95 5.95 0 0 0-4.195.151c-1.334.558-2.419 1.583-3.053 2.882a5.96 5.96 0 0 0-.393 4.181c.381 1.395 1.255 2.604 2.461 3.402a5.95 5.95 0 0 0 4.093.932c1.432-.197 2.744-.908 3.69-2.002a5.96 5.96 0 0 0 1.453-3.94v-.06l16.076-4.33c1.394 3.851 4.057 7.112 7.551 9.245L31.138 69.4a9.04 9.04 0 0 0-6.555.47c-2.049.974-3.657 2.682-4.505 4.786a9.05 9.05 0 0 0-.076 6.575c.8 2.124 2.367 3.869 4.393 4.89a9.04 9.04 0 0 0 11.778-3.35 9.05 9.05 0 0 0-2.358-12.022l4.514-9.031a17.91 17.91 0 0 0 9.554 1.063c3.222-.523 6.24-1.916 8.728-4.03l9.331 9.337a13.5 13.5 0 0 0-.002 16.832c1.906 2.391 4.567 4.063 7.547 4.742a13.48 13.48 0 0 0 8.855-1.003 13.49 13.49 0 0 0 6.297-6.31 13.5 13.5 0 0 0 .989-8.862c-.683-2.981-2.359-5.641-4.751-7.544a13.48 13.48 0 0 0-8.416-2.933zM21.016 21.029H6.03a7.5 7.5 0 0 1 2.195-5.301 7.49 7.49 0 0 1 5.298-2.196c-.889 0-1.758-.264-2.498-.758s-1.315-1.197-1.656-2.019a4.5 4.5 0 0 1 .975-4.902c.629-.629 1.43-1.057 2.302-1.231s1.776-.084 2.597.256 1.524.917 2.018 1.657a4.5 4.5 0 0 1-.559 5.68c-.843.844-1.987 1.318-3.179 1.318a7.49 7.49 0 0 1 5.298 2.196 7.5 7.5 0 0 1 2.195 5.301zm23.976 11.995a5.99 5.99 0 0 1 3.33 1.011c.986.659 1.754 1.596 2.208 2.692a6 6 0 0 1-1.299 6.536c-.838.839-1.906 1.41-3.069 1.641a5.99 5.99 0 0 1-3.463-.341c-1.095-.454-2.031-1.223-2.69-2.209a6 6 0 0 1 .745-7.573 5.99 5.99 0 0 1 4.239-1.757zm-8.991 22.491a9 9 0 0 1 2.633-6.361 8.99 8.99 0 0 1 12.715 0 9 9 0 0 1 2.633 6.361H36.001zm32.968 28.488a7.5 7.5 0 0 1 2.195-5.301 7.49 7.49 0 0 1 5.298-2.196c-.889 0-1.758-.264-2.498-.758a4.5 4.5 0 0 1-1.912-4.618 4.5 4.5 0 0 1 1.23-2.303c.629-.629 1.43-1.057 2.302-1.231s1.776-.084 2.597.256 1.524.917 2.018 1.657a4.5 4.5 0 0 1-.559 5.68c-.843.844-1.987 1.317-3.179 1.317a7.49 7.49 0 0 1 5.298 2.196 7.5 7.5 0 0 1 2.195 5.301H68.968z" fill="url(#A)"/><defs><linearGradient id="A" x1="-3.74" y1="0" x2="91.452" y2="-15.13" gradientUnits="userSpaceOnUse"><stop stop-color="#9befd7"/><stop offset=".251" stop-color="#8bf7ab"/><stop offset="1" stop-color="#ffdf8a"/></linearGradient></defs></svg>