<svg xmlns="http://www.w3.org/2000/svg" width="36" height="36" fill="none" xmlns:v="https://vecta.io/nano"><circle cx="18" cy="18" r="18" fill="#03b098"/><path fill-rule="evenodd" d="M11.028 14.454c.021-.209-.059-.415-.216-.556l-1.596-1.913V11.7h4.958l3.832 8.357 3.369-8.357H26.1v.285l-1.365 1.302c-.118.089-.176.236-.152.381v9.564c-.024.144.034.291.152.38l1.333 1.302v.286h-6.706v-.286l1.382-1.333c.135-.135.135-.174.135-.38v-7.73l-3.84 9.699h-.519L12.05 15.47v6.5c-.037.273.054.548.247.745l1.796 2.167v.286H9v-.286l1.796-2.167a.86.86 0 0 0 .232-.745v-7.516z" fill="#fff"/></svg>