<svg xmlns="http://www.w3.org/2000/svg" xmlns:xlink="http://www.w3.org/1999/xlink" width="37" height="35" fill="none" xmlns:v="https://vecta.io/nano"><g fill-rule="evenodd"><path d="M18.357 34.303l-.328-.258-2.597-2.112c-2.045-2.17-4.885-5.306-6.71-9.772s-2.278-8.957-2.337-11.938c-.052-2.619.177-4.685.606-7.191L8.386 4.04c.075.054 1.855 1.348 4.071 3.7 1.769 1.877 4.118 4.765 5.9 8.402 1.782-3.637 4.13-6.525 5.9-8.402 2.216-2.352 3.996-3.646 4.071-3.7l1.395-1.008c.427 2.506.658 4.572.606 7.191-.058 2.982-.513 7.472-2.337 11.939s-4.665 7.602-6.71 9.772c-.505.537-1.811 1.503-2.597 2.111l-.328.257z" fill="#019d8b"/><path d="M.119 11.94L0 10.223l1.594.65c.28.113 6.381 2.647 11.144 8.283l-.013-.794c0-6.626 2.168-12.804 5.631-18.362 3.463 5.558 5.631 11.736 5.631 18.362 0 .267-.005.531-.013.794 4.762-5.636 10.864-8.169 11.144-8.283l1.594-.65-.119 1.717c-2.079 30.746-34.397 30.746-36.475 0z" fill="url(#A)"/><path d="M16.468 27.588c-.438 0-.614.17-.614.588 0 1.018 1.124 1.844 2.505 1.844s2.501-.828 2.501-1.844c0-.418-.177-.588-.614-.588-.232.008-.466.032-.696.07l-.022.004c-.386.064-.781.1-1.171.106-.39-.006-.786-.043-1.172-.106-.237-.04-.478-.066-.718-.074z" fill="#019d8b"/></g><use xlink:href="#B" fill="#019d8b"/><use xlink:href="#B" x="12.776" fill="#019d8b"/><defs><linearGradient id="A" x1="18.357" y1="-3.5" x2="18.357" y2="35" gradientUnits="userSpaceOnUse"><stop stop-color="#00b59c"/><stop offset="1" stop-color="#8ef8ab"/></linearGradient><path id="B" d="M11.968 27.701c1.112 0 2.014-.903 2.014-2.017s-.902-2.017-2.014-2.017-2.014.903-2.014 2.017.902 2.017 2.014 2.017z"/></defs></svg>