<svg xmlns="http://www.w3.org/2000/svg" width="94" height="18" fill="none" xmlns:v="https://vecta.io/nano"><rect width="94" height="18" rx="9" fill="#00a490"/><path d="M17.299 7.104c-.272 0-.524.048-.756.144-.232.088-.432.224-.6.408-.168.176-.3.4-.396.672-.096.264-.144.568-.144.912 0 .688.172 1.216.516 1.584.344.36.804.54 1.38.54.336 0 .616-.044.84-.132.224-.096.424-.204.6-.324.088.048.16.108.216.18s.084.16.084.264c0 .112-.044.216-.132.312s-.212.18-.372.252c-.152.072-.336.128-.552.168-.208.048-.436.072-.684.072a3.55 3.55 0 0 1-1.152-.18 2.49 2.49 0 0 1-.912-.54 2.47 2.47 0 0 1-.6-.9c-.144-.368-.216-.8-.216-1.296 0-.488.076-.912.228-1.272.152-.368.356-.676.612-.924s.556-.432.9-.552a3.24 3.24 0 0 1 1.116-.192c.248 0 .476.024.684.072.216.04.4.1.552.18s.268.172.348.276c.088.096.132.196.132.3a.4.4 0 0 1-.084.252c-.056.072-.128.128-.216.168-.176-.12-.368-.224-.576-.312s-.48-.132-.816-.132zm8.17 2.124a3.6 3.6 0 0 1-.192 1.212 2.61 2.61 0 0 1-.552.924c-.232.256-.516.452-.852.588s-.712.204-1.128.204-.792-.068-1.128-.204-.624-.332-.864-.588a2.61 2.61 0 0 1-.552-.924 3.6 3.6 0 0 1-.192-1.212 3.6 3.6 0 0 1 .192-1.212c.136-.36.324-.668.564-.924s.528-.452.864-.588.708-.204 1.116-.204.78.068 1.116.204.62.332.852.588a2.61 2.61 0 0 1 .552.924c.136.36.204.764.204 1.212zm-2.724-2.136c-.544 0-.972.188-1.284.564s-.468.9-.468 1.572c0 .68.152 1.208.456 1.584.312.368.744.552 1.296.552s.98-.188 1.284-.564.456-.9.456-1.572-.156-1.196-.468-1.572c-.304-.376-.728-.564-1.272-.564zm11.241 1.14c0-.392-.112-.68-.336-.864s-.524-.276-.9-.276a2.02 2.02 0 0 0-1.392.552c.048.16.072.332.072.516v3.816a1.09 1.09 0 0 1-.192.048.87.87 0 0 1-.252.036c-.344 0-.516-.144-.516-.432V8.232c0-.392-.112-.68-.336-.864s-.528-.276-.912-.276a2.23 2.23 0 0 0-.732.12 2.76 2.76 0 0 0-.576.276v4.488c-.04.016-.1.032-.18.048-.08.024-.168.036-.264.036-.344 0-.516-.144-.516-.432V7.536c0-.16.032-.292.096-.396.072-.112.192-.224.36-.336.216-.136.488-.252.816-.348.336-.104.672-.156 1.008-.156.392 0 .74.06 1.044.18.304.112.536.268.696.468a2.54 2.54 0 0 1 .78-.456c.312-.128.668-.192 1.068-.192.648 0 1.164.156 1.548.468.384.304.576.776.576 1.416v3.792a1.09 1.09 0 0 1-.192.048.87.87 0 0 1-.252.036c-.344 0-.516-.144-.516-.432V8.232zm3.785 3.744c-.04.016-.1.032-.18.048-.08.024-.168.036-.264.036-.344 0-.516-.144-.516-.432V6.48c.04-.016.1-.032.18-.048.088-.024.18-.036.276-.036.336 0 .504.148.504.444v5.136zm-1.104-7.272a.57.57 0 0 1 .168-.42c.12-.12.272-.18.456-.18s.332.06.444.18a.57.57 0 0 1 .168.42.61.61 0 0 1-.168.432.6.6 0 0 1-.444.168c-.184 0-.336-.056-.456-.168a.61.61 0 0 1-.168-.432zm6.819 3.684c0-.448-.128-.776-.384-.984-.248-.208-.584-.312-1.008-.312-.32 0-.604.04-.852.12a3.16 3.16 0 0 0-.636.276v4.488c-.04.016-.1.032-.18.048-.08.024-.168.036-.264.036-.344 0-.516-.144-.516-.432V7.536a.77.77 0 0 1 .096-.408c.072-.112.192-.22.36-.324.208-.128.484-.244.828-.348s.732-.156 1.164-.156c.728 0 1.3.164 1.716.492.424.328.636.844.636 1.548v3.636a1.09 1.09 0 0 1-.192.048.87.87 0 0 1-.252.036c-.344 0-.516-.144-.516-.432v-3.24zm6.466 3.036c-.136.112-.324.208-.564.288a2.59 2.59 0 0 1-.84.12 3.37 3.37 0 0 1-.996-.144 2.32 2.32 0 0 1-.828-.48c-.232-.224-.42-.512-.564-.864-.136-.352-.204-.78-.204-1.284 0-.456.068-.856.204-1.2a2.42 2.42 0 0 1 .564-.864c.248-.232.54-.404.876-.516.336-.12.708-.18 1.116-.18.368 0 .704.048 1.008.144.312.088.572.2.78.336.12.08.216.172.288.276.08.096.12.216.12.36v4.824c0 .4-.068.736-.204 1.008a1.63 1.63 0 0 1-.552.672c-.232.176-.508.304-.828.384s-.664.12-1.032.12c-.408 0-.756-.044-1.044-.132-.28-.08-.472-.152-.576-.216-.24-.136-.36-.308-.36-.516a.55.55 0 0 1 .072-.288.59.59 0 0 1 .204-.168c.168.128.404.244.708.348a2.86 2.86 0 0 0 .996.168c.536 0 .944-.116 1.224-.348.288-.224.432-.588.432-1.092v-.756zm-1.296-.384c.32 0 .58-.048.78-.144a2.15 2.15 0 0 0 .516-.348v-3.12c-.136-.088-.308-.164-.516-.228-.2-.072-.44-.108-.72-.108-.544 0-.98.164-1.308.492-.32.328-.48.816-.48 1.464 0 .36.044.668.132.924a1.7 1.7 0 0 0 .36.612c.16.16.344.276.552.348a2.15 2.15 0 0 0 .684.108zm10.348-.516c0 .512-.188.912-.564 1.2s-.92.432-1.632.432c-.304 0-.584-.028-.84-.084-.256-.048-.476-.112-.66-.192-.176-.088-.316-.184-.42-.288-.096-.112-.144-.224-.144-.336a.57.57 0 0 1 .072-.276c.056-.088.136-.164.24-.228.216.16.468.304.756.432.288.12.616.18.984.18.832 0 1.248-.28 1.248-.84 0-.456-.276-.752-.828-.888l-.996-.264c-.488-.128-.844-.312-1.068-.552-.224-.248-.336-.564-.336-.948 0-.208.04-.408.12-.6.088-.192.22-.36.396-.504a1.91 1.91 0 0 1 .648-.336c.264-.088.572-.132.924-.132.56 0 1.012.084 1.356.252.344.16.516.348.516.564a.47.47 0 0 1-.084.276c-.048.08-.116.14-.204.18-.144-.096-.348-.2-.612-.312s-.576-.168-.936-.168-.648.068-.864.204a.65.65 0 0 0-.312.576.66.66 0 0 0 .18.468c.12.128.32.224.6.288l.828.204c.544.136.952.34 1.224.612.272.264.408.624.408 1.08zm6.662-1.296a3.6 3.6 0 0 1-.192 1.212 2.61 2.61 0 0 1-.552.924c-.232.256-.516.452-.852.588s-.712.204-1.128.204-.792-.068-1.128-.204-.624-.332-.864-.588a2.61 2.61 0 0 1-.552-.924 3.6 3.6 0 0 1-.192-1.212 3.6 3.6 0 0 1 .192-1.212c.136-.36.324-.668.564-.924s.528-.452.864-.588.708-.204 1.116-.204.78.068 1.116.204.62.332.852.588a2.61 2.61 0 0 1 .552.924c.136.36.204.764.204 1.212zM62.94 7.092c-.544 0-.972.188-1.284.564s-.468.9-.468 1.572c0 .68.152 1.208.456 1.584.312.368.744.552 1.296.552s.98-.188 1.284-.564.456-.9.456-1.572-.156-1.196-.468-1.572c-.304-.376-.728-.564-1.272-.564zm9.357 2.136a3.6 3.6 0 0 1-.192 1.212 2.61 2.61 0 0 1-.552.924c-.232.256-.516.452-.852.588s-.712.204-1.128.204-.792-.068-1.128-.204-.624-.332-.864-.588a2.61 2.61 0 0 1-.552-.924 3.6 3.6 0 0 1-.192-1.212 3.6 3.6 0 0 1 .192-1.212c.136-.36.324-.668.564-.924s.528-.452.864-.588.708-.204 1.116-.204.78.068 1.116.204.62.332.852.588a2.61 2.61 0 0 1 .552.924c.136.36.204.764.204 1.212zm-2.724-2.136c-.544 0-.972.188-1.284.564s-.468.9-.468 1.572c0 .68.152 1.208.456 1.584.312.368.744.552 1.296.552s.98-.188 1.284-.564.456-.9.456-1.572-.156-1.196-.468-1.572c-.304-.376-.728-.564-1.272-.564zm8.049 1.296c0-.448-.128-.776-.384-.984-.248-.208-.584-.312-1.008-.312-.32 0-.604.04-.852.12a3.16 3.16 0 0 0-.636.276v4.488c-.04.016-.1.032-.18.048-.08.024-.168.036-.264.036-.344 0-.516-.144-.516-.432V7.536a.77.77 0 0 1 .096-.408c.072-.112.192-.22.36-.324.208-.128.484-.244.828-.348s.732-.156 1.164-.156c.728 0 1.3.164 1.716.492.424.328.636.844.636 1.548v3.636a1.09 1.09 0 0 1-.192.048.87.87 0 0 1-.252.036c-.344 0-.516-.144-.516-.432v-3.24z" fill="#fff"/></svg>