<svg xmlns="http://www.w3.org/2000/svg" width="33" height="33" fill="none" xmlns:v="https://vecta.io/nano"><circle cx="16.5" cy="16.5" r="16.5" fill="#00aa96"/><path d="M7.714 16.809l3.793 1.415 1.479 4.758c.064.321.45.386.707.193l2.122-1.736c.193-.193.514-.193.772 0l3.793 2.765c.257.193.643.064.707-.257l2.829-13.502c.064-.322-.257-.643-.579-.514L7.714 15.973a.45.45 0 0 0 0 .836zm5.079.707l7.458-4.565c.129-.064.257.129.129.193l-6.108 5.722c-.193.193-.386.45-.386.771l-.193 1.543c0 .193-.321.257-.386 0l-.772-2.829c-.193-.322-.064-.707.257-.836z" fill="#ebfff3"/></svg>