<svg width="33" height="33" viewBox="0 0 33 33" fill="none" xmlns="http://www.w3.org/2000/svg">
<circle cx="16.5" cy="16.5" r="16.5" fill="#00AA96"/>
<path d="M7.71389 16.8085L11.5073 18.223L12.9861 22.9809C13.0504 23.3023 13.4362 23.3666 13.6933 23.1737L15.8151 21.4378C16.0079 21.2449 16.3294 21.2449 16.5866 21.4378L20.38 24.2025C20.6372 24.3953 21.023 24.2668 21.0873 23.9453L23.9162 10.4433C23.9805 10.1218 23.6591 9.80037 23.3376 9.92896L7.71389 15.9727C7.32812 16.1013 7.32812 16.6799 7.71389 16.8085ZM12.7932 17.5158L20.2514 12.9508C20.38 12.8865 20.5086 13.0794 20.38 13.1437L14.272 18.866C14.0791 19.0589 13.8862 19.316 13.8862 19.6375L13.6933 21.1806C13.6933 21.3735 13.3719 21.4378 13.3076 21.1806L12.536 18.3516C12.3431 18.0301 12.4717 17.6444 12.7932 17.5158Z" fill="#EBFFF3"/>
</svg>
