<svg width="663" height="396" viewBox="0 0 663 396" fill="none" xmlns="http://www.w3.org/2000/svg">
<path d="M663 64.551C639.321 74.7434 612.261 81.5384 585.199 84.9359C612.261 67.9487 635.939 40.7693 646.087 10.1924C619.025 27.1796 591.965 37.3719 558.138 44.1668C534.459 16.9873 497.25 0 460.041 0C385.622 0 324.735 61.1538 324.735 135.897C324.735 146.09 324.735 156.282 328.117 166.474C216.49 159.679 115.01 105.32 47.357 23.7819C37.209 44.1665 30.4437 67.9486 30.4437 91.7306C30.4437 139.295 54.1224 180.064 91.3316 203.846C67.653 203.846 47.357 197.051 30.4437 186.859C30.4437 251.41 77.8008 309.166 138.689 319.359C128.541 322.756 115.01 322.756 101.48 322.756C91.3317 322.756 84.5663 322.756 74.4183 319.359C91.3316 373.718 142.071 414.487 202.959 414.487C155.602 451.859 98.097 472.243 33.8265 472.243C23.6786 472.243 13.5306 472.244 0 468.846C60.8878 506.218 131.923 530 209.724 530C460.041 530 595.347 322.756 595.347 142.692V125.705C622.408 115.513 646.087 91.7305 663 64.551Z" fill="url(#paint0_linear)" fill-opacity="0.5"/>
<defs>
<linearGradient id="paint0_linear" x1="0" y1="0" x2="669.04" y2="7.7379" gradientUnits="userSpaceOnUse">
<stop stop-color="#9BEFD7"/>
<stop offset="0.473958" stop-color="#8BF7AB"/>
<stop offset="1" stop-color="#FFD465"/>
</linearGradient>
</defs>
</svg>
