<svg xmlns="http://www.w3.org/2000/svg" width="33" height="33" fill="none" xmlns:v="https://vecta.io/nano"><circle cx="16.5" cy="16.5" r="16.5" fill="#00aa96"/><path d="M25.245 12.293c-.578.248-1.237.412-1.897.495.66-.412 1.237-1.072 1.485-1.815-.66.412-1.32.66-2.145.825-.578-.66-1.485-1.072-2.392-1.072a3.31 3.31 0 0 0-3.3 3.3c0 .248 0 .495.082.742-2.722-.165-5.197-1.485-6.847-3.465-.248.495-.413 1.072-.413 1.65 0 1.155.578 2.145 1.485 2.723a2.85 2.85 0 0 1-1.485-.412c0 1.568 1.155 2.97 2.64 3.217-.248.082-.578.082-.908.082-.248 0-.412 0-.66-.082.412 1.32 1.65 2.31 3.135 2.31-1.155.908-2.557 1.402-4.125 1.402-.248 0-.495 0-.825-.082 1.485.908 3.217 1.485 5.115 1.485 6.105 0 9.405-5.032 9.405-9.405v-.412c.66-.248 1.238-.825 1.65-1.485z" fill="#ebfff3"/></svg>