<svg xmlns="http://www.w3.org/2000/svg" width="256" height="256" fill="none" xmlns:v="https://vecta.io/nano"><rect width="256" height="256" rx="12" fill="#2c3437"/><g fill="#fff"><path d="M122.278 90.654a3.15 3.15 0 0 1-3.147-3.146 14.23 14.23 0 0 0-4.168-10.047c-2.665-2.665-6.279-4.164-10.048-4.169a3.15 3.15 0 0 1-2.225-.922c-.59-.59-.921-1.39-.921-2.225s.331-1.635.921-2.225a3.15 3.15 0 0 1 2.225-.921c5.437.007 10.649 2.169 14.494 6.013a20.53 20.53 0 0 1 6.014 14.492c0 .834-.33 1.635-.92 2.225a3.15 3.15 0 0 1-2.225.923zm11.023 0c-.835 0-1.635-.332-2.225-.922a3.15 3.15 0 0 1-.922-2.225c.007-5.437 2.17-10.65 6.015-14.494A20.53 20.53 0 0 1 150.662 67c.835 0 1.635.332 2.225.922s.921 1.39.921 2.225-.331 1.635-.921 2.225-1.39.921-2.225.921a14.23 14.23 0 0 0-10.047 4.169c-2.665 2.665-4.163 6.279-4.168 10.048a3.14 3.14 0 0 1-.922 2.223 3.15 3.15 0 0 1-2.224.921zm-41.577 76.242c-11.017 3.823-20.263 3.435-26.39 2.287-8.439-1.579-13.356-5.053-14.112-6.561-.4-.8-.074-1.029.236-1.218l38.211-21.426v-6.746L48.4 156.373l-.07.039c-3.189 1.901-4.206 5.419-2.534 8.755 2.087 4.159 9.477 8.074 18.391 9.743 3.246.602 6.544.903 9.849.898 6.489 0 14.331-1.139 23.002-4.662l-1.541-.861a11.52 11.52 0 0 1-3.774-3.389zm115.523-10.486l-.071-.038-41.278-23.14v6.745l38.219 21.425c.313.188.64.42.239 1.218-.757 1.508-5.674 4.981-14.115 6.561-6.128 1.146-15.375 1.534-26.393-2.287a11.54 11.54 0 0 1-3.748 3.385l-1.561.872c8.668 3.52 16.507 4.657 22.995 4.657a53.59 53.59 0 0 0 9.851-.898c8.917-1.669 16.309-5.583 18.396-9.742 1.673-3.339.655-6.857-2.534-8.758z"/><path d="M162.42 114.706l-29.03-17.731c-1.698-1.041-3.626-1.59-5.59-1.591s-3.891.547-5.59 1.588l-29.038 17.735c-1.696 1.039-3.106 2.53-4.088 4.325a12.41 12.41 0 0 0-1.508 5.906v35.486a12.42 12.42 0 0 0 1.506 5.917c.982 1.799 2.393 3.295 4.091 4.337l29.023 17.726A10.68 10.68 0 0 0 127.79 190c1.964.001 3.894-.547 5.594-1.588l29.047-17.74c1.691-1.047 3.094-2.543 4.071-4.34s1.493-3.833 1.498-5.906V124.94c-.007-2.073-.526-4.107-1.504-5.902s-2.384-3.289-4.076-4.332zm-66.349 5.308l9.393-5.737h44.667l9.381 5.73a5.59 5.59 0 0 1 1.967 2.087 5.99 5.99 0 0 1 .728 2.846v7.78H93.369v-7.779c.004-1 .256-1.981.73-2.845s1.154-1.582 1.972-2.082zm63.455 45.358l-9.297 5.678h-44.861l-9.294-5.676c-.82-.503-1.502-1.224-1.977-2.092a6 6 0 0 1-.729-2.856v-7.817h68.84v7.817c-.002 1-.251 1.982-.722 2.85a5.61 5.61 0 0 1-1.961 2.096z"/></g></svg>