<svg xmlns="http://www.w3.org/2000/svg" width="153" height="59" fill="none" xmlns:v="https://vecta.io/nano"><path d="M84.838 27.963l-6.328-9.615h6.082l3.269 5.906 3.322-5.906h6.082l-6.416 9.615L97.547 38h-6.082l-3.603-6.363L84.258 38h-6.082l6.662-10.037zm36-3.059c0 2.168-.299 4.072-.897 5.713-.586 1.629-1.441 2.994-2.566 4.096-1.113 1.09-2.484 1.91-4.113 2.461-1.617.551-3.463.826-5.537.826h-6.768V12.301h7.523c1.887 0 3.586.269 5.098.809 1.524.539 2.824 1.342 3.902 2.408 1.079 1.055 1.905 2.367 2.479 3.938.586 1.57.879 3.387.879 5.449zm-5.52.141c0-1.43-.146-2.66-.439-3.691-.281-1.043-.697-1.904-1.248-2.584a4.9 4.9 0 0 0-2.004-1.512c-.785-.328-1.688-.492-2.707-.492h-2.514V33.5h2.004c2.297 0 4.02-.703 5.168-2.109 1.16-1.406 1.74-3.521 1.74-6.346zM137.15 38l-1.037-2.672h-.158c-.387.527-.773.984-1.16 1.371-.387.375-.809.686-1.266.932s-.972.428-1.547.545c-.562.117-1.218.176-1.968.176-.797 0-1.535-.123-2.215-.369-.68-.258-1.272-.639-1.776-1.143-.492-.516-.878-1.16-1.16-1.934-.281-.785-.422-1.711-.422-2.777 0-2.086.668-3.621 2.004-4.606 1.336-.996 3.334-1.547 5.994-1.652l3.129-.105v-1.476c0-.809-.234-1.406-.703-1.793s-1.125-.58-1.969-.58a8.47 8.47 0 0 0-2.478.369 15.29 15.29 0 0 0-2.408.984l-1.74-3.551c.984-.551 2.074-.984 3.269-1.301a14.64 14.64 0 0 1 3.762-.475c2.449 0 4.324.574 5.625 1.723 1.312 1.148 1.969 2.895 1.969 5.238V38h-3.745zm-1.582-9.105l-1.775.07c-.715.023-1.318.117-1.811.281s-.89.387-1.195.668a2.45 2.45 0 0 0-.65.984c-.129.375-.194.797-.194 1.266 0 .82.2 1.406.598 1.758.398.34.92.51 1.564.51.493 0 .95-.082 1.372-.246.421-.176.785-.428 1.089-.756.317-.34.563-.75.739-1.23.175-.492.263-1.055.263-1.687v-1.617zm10.618-15.627c0-.504.076-.92.228-1.248a2.06 2.06 0 0 1 .615-.809c.27-.211.58-.357.932-.439.363-.082.744-.123 1.143-.123s.773.041 1.125.123a2.22 2.22 0 0 1 .914.439c.269.199.48.469.632.809.164.328.246.744.246 1.248 0 .492-.082.908-.246 1.248-.152.34-.363.615-.632.826-.258.199-.563.346-.914.439-.352.082-.727.123-1.125.123s-.78-.041-1.143-.123c-.352-.094-.662-.24-.932-.439a2.21 2.21 0 0 1-.615-.826c-.152-.34-.228-.756-.228-1.248zM151.775 38h-5.361V18.348h5.361V38z" fill="#262a2a"/><path fill-rule="evenodd" d="M23.065 0H0v11.639h23.065V0zM58 0H34.935v11.639H58V0zM46.4 46.555H34.935v11.639H58V46.555 35.052H46.4v11.504zm-23.335 0H11.6V35.052H0v11.504 11.639h0 23.065V46.555z" fill="#48a9a6"/></svg>